<ttFont>
          <CharString index="0">
            264 -35 rmoveto
            -1 8 8 0 8 hhcurveto
            289 304 245 254 115 62 callgsubr
            13 39 84 61 vvcurveto
            77 -59 42 -85 10 vhcurveto
            61 callgsubr
            -1 4 vhcurveto
            94 -27 -68 61 -100 hhcurveto
            -25 -27 -5 -12 -29 hvcurveto
            9 -9 -22 -2 -13 hhcurveto
            -151 -1 -173 -88 -155 -157 rrcurveto
            -105 -106 -117 -169 -167 vvcurveto
            -138 81 -103 173 -12 vhcurveto
            1 18 rmoveto
            -154 8 -82 91 135 vvcurveto
            162 112 163 104 105 vhcurveto
            120 119 181 121 156 9 10 0 10 hhcurveto
            -61 -34 -36 -54 -3 -74 rrcurveto
            -39 11 -41 22 -37 vhcurveto
            -29 -31 -28 -37 -24 -45 rrcurveto
            -14 callgsubr
            -6 5 -4 5 3 3 8 callgsubr
            vhcurveto
            22 43 26 34 28 29 rrcurveto
            -79 56 119 -52 127 hhcurveto
            -43 -92 -68 -90 -84 -77 rrcurveto
            -111 -120 -174 -109 -206 -5 -6 0 -5 hhcurveto
            457 582 rmoveto
            -14 13 -12 14 -10 14 rrcurveto
            return
          </CharString>
          <CharString index="1">
            1221 818 rmoveto
            4 -1 -3 3 -4 -1 45 callgsubr
            hhcurveto
            -4 -377 -103 -544 -228 hvcurveto
            -144 -67 -117 -109 -165 hhcurveto
            -100 -97 63 131 166 174 233 127 125 hvcurveto
            53 52 52 45 44 36 rrcurveto
            -2 22 21 -1 22 hhcurveto
            48 114 -1 72 38 -27 15 -34 -68 -56 -62 -40 -48 hvcurveto
            22 -214 -86 110 -194 hhcurveto
            -81 -94 -28 -93 -95 125 -17 4 3 hvcurveto
            0 1 0 0 5 4 3 5 5 -2 4 -7 1 vhcurveto
            -54 4 -57 28 58 vvcurveto
            91 97 13 59 180 89 -104 -26 206 vhcurveto
            -121 -101 -162 -150 -104 -208 rrcurveto
            -40 -80 -16 -66 -55 vvcurveto
            -153 122 -59 93 149 89 73 99 73 vhcurveto
            -11 -36 -13 -51 -46 vvcurveto
            -64 28 -54 81 102 62 130 94 vhcurveto
            5 -1 10 callgsubr
            hhcurveto
            -14 callsubr
            -93 -62 -112 -85 -67 -23 48 54 52 19 60 11 33 vhcurveto
            52 154 111 180 40 53 188 249 207 74 30 6 rrcurveto
            4 1 2 3 4 42 callgsubr
            vvcurveto
            return
          </CharString>
          <CharString index="2">
            -15 50 71 -11 94 hhcurveto
            30 28 2 2 29 hvcurveto
            37 -93 15 -94 -84 vvcurveto
            18 hlineto
            106 6 92 15 89 vhcurveto
            120 28 59 48 1 vvcurveto
            22 callgsubr
            3 vvcurveto
            5 51 callgsubr
            -84 callsubr
            -2 -2 -53 -43 -109 -27 94 475 323 213 28 19 46 -3 51 -13 45 -31 rrcurveto
            -2 2 2 0 2 hhcurveto
            4 4 3 4 61 callgsubr
            -3 2 hvcurveto
            -1084 -580 rmoveto
            69 71 15 50 25 22 -3 -5 20 vhcurveto
            -38 -54 -34 -55 -33 -52 rrcurveto
            -39 15 -44 26 44 vvcurveto
            return
          </CharString>
          <CharString index="3">
            23 callsubr
            hintmask 10101100
            -107 callsubr
            hintmask 11001100
            -102 callsubr
            return
          </CharString>
          <CharString index="4">
            41 -94 callsubr
            -16 35 97 -45 118 -80 callsubr
            -49 17 -44 47 -25 vhcurveto
            55 338 -63 callgsubr
            return
          </CharString>
          <CharString index="5">
            -93 callsubr
            -96 callsubr
            return
          </CharString>
          <CharString index="6">
            141 -10 -34 callgsubr
            -46 43 62 -22 65 hhcurveto
            72 72 28 50 65 -2 callsubr
            -41 callgsubr
            -48 -61 -71 -26 -66 hhcurveto
            -59 -55 20 44 -43 -98 callsubr
            return
          </CharString>
          <CharString index="7">
            rmoveto
            -7 41 -12 48 -18 43 19 3 18 3 17 3 -8 -44 -6 -47 -3 -50 rrcurveto
            236 654 rmoveto
            -88 -117 -87 -162 -40 -215 -20 -4 -22 -3 -23 -3 -34 83 -59 78 -93 34 6 9 7 57 callgsubr
            210 287 197 202 257 11 -40 -28 -89 -71 -89 -119 rrcurveto
            return
          </CharString>
          <CharString index="8">
            -70 callgsubr
            2 -2 -43 56 -101 hhcurveto
            -94 -126 -70 callsubr
            return
          </CharString>
          <CharString index="9">
            hvcurveto
            83 92 38 75 50 -99 callsubr
            return
          </CharString>
          <CharString index="10">
            1371 863 rmoveto
            3 14 callgsubr
            vhcurveto
            0 7 callsubr
            -2 -220 -32 -304 -214 vhcurveto
            -33 -47 -52 -75 -68 -101 rrcurveto
            -119 -87 -93 -81 -116 hhcurveto
            -85 -102 39 120 48 16 62 43 80 hvcurveto
            99 185 110 100 96 76 rrcurveto
            -1 26 33 -3 32 hhcurveto
            68 68 19 53 27 -21 27 -37 -62 -65 -63 -40 -47 hvcurveto
            21 -213 -91 112 -191 hhcurveto
            -95 -77 -43 -81 hvcurveto
            -88 128 -24 4 vvcurveto
            -50 callsubr
            1 hvcurveto
            -65 callgsubr
            vhcurveto
            -53 10 -58 20 60 vvcurveto
            82 87 24 71 174 94 -105 -26 203 vhcurveto
            -93 -76 -109 -101 -94 -178 rrcurveto
            -43 -81 -18 -65 -53 vvcurveto
            -135 115 -42 90 86 75 43 54 54 vhcurveto
            -42 -66 -43 -69 -48 -76 rrcurveto
            -100 -64 -102 -64 -113 hhcurveto
            -100 -95 44 72 -38 hvcurveto
            return
          </CharString>
          <CharString index="11">
            54 -8 65 -21 3 -82 rrcurveto
            -74 -70 -59 -85 -6 vhcurveto
            21 53 16 55 3 67 rrcurveto
            -396 69 rmoveto
            101 90 68 98 3 vhcurveto
            88 65 -52 -95 26 hvcurveto
            -110 -121 -27 -102 -107 hvcurveto
            -20 33 -9 36 35 vvcurveto
            return
          </CharString>
          <CharString index="12">
            318 541 -27 callsubr
            -72 -46 -79 -89 -36 7 -35 17 -27 50 callsubr
            -118 -128 -76 -94 -59 callgsubr
            return
          </CharString>
          <CharString index="13">
            13 rmoveto
            -17 32 41 -7 43 hhcurveto
            5 callgsubr
            hvcurveto
            -89 callgsubr
            -110 -52 49 76 -4 callsubr
            return
          </CharString>
          <CharString index="14">
            91 96 112 36 114 3 4 0 4 hhcurveto
            6 -32 1 -29 -14 vvcurveto
            -59 -17 -60 -25 -58 vhcurveto
            -1 -6 -5 0 -6 hhcurveto
            -93 -101 37 48 -51 hvcurveto
            322 93 rmoveto
            14 -1 28 -6 32 vhcurveto
            return
          </CharString>
          <CharString index="15">
            -33 callgsubr
            123 178 94 137 153 vhcurveto
            -88 callsubr
            -49 -54 -211 -178 -179 hhcurveto
            -52 -25 21 40 37 22 42 -30 callgsubr
            4 -31 callgsubr
            6 6 rrcurveto
            -1 35 34 -1 34 hhcurveto
            37 106 -3 15 17 callsubr
            -2 -45 -46 -1 -48 -27 -27 1 -28 hhcurveto
            65 72 170 190 74 194 rrcurveto
            4 10 9 29 18 vvcurveto
            21 -15 0 -4 -36 -121 -197 -336 -179 vhcurveto
            -68 2 -70 4 -72 6 rrcurveto
            1 -11 -4 0 -2 hhcurveto
            -5 -4 -29 callsubr
            4 -4 5 -1 hvcurveto
            return
          </CharString>
          <CharString index="16">
            -68 callgsubr
            -57 -93 -65 -93 -89 -80 rrcurveto
            -56 callsubr
            -3 -2 vvcurveto
            -5 -41 callsubr
            83 75 73 93 59 102 -36 callgsubr
            return
          </CharString>
          <CharString index="17">
            -20 callsubr
            -43 callsubr
            -79 callsubr
            return
          </CharString>
          <CharString index="18">
            -92 callgsubr
            -84 callgsubr
            return
          </CharString>
          <CharString index="19">
            2 2 1 2 -85 callsubr
            return
          </CharString>
          <CharString index="20">
            63 callsubr
            hintmask 11011000
            -105 callgsubr
            hintmask 10111000
            -69 callsubr
            return
          </CharString>
          <CharString index="21">
            37 40 37 54 55 vvcurveto
            36 -18 30 -32 -55 -14 -74 -43 -34 9 -32 14 -29 vhcurveto
            -33 -33 -33 -25 -33 -6 rrcurveto
            -4 -1 68 callgsubr
            vvcurveto
            -4 2 -5 6 37 45 40 25 25 vhcurveto
            -89 56 99 -31 91 hhcurveto
            128 101 73 100 65 61 callsubr
            241 150 216 69 97 230 325 202 -12 -1 24 rrcurveto
            -9 callgsubr
            vvcurveto
            -557 61 rmoveto
            2 2 0 2 hhcurveto
            26 16 -18 -18 -42 -67 -12 -54 -25 -24 2 2 -18 hvcurveto
            45 34 43 45 52 7 rrcurveto
            -795 -896 rmoveto
            45 1 13 55 37 hhcurveto
            return
          </CharString>
          <CharString index="22">
            3 vvcurveto
            5 -4 4 -5 -84 callsubr
            return
          </CharString>
          <CharString index="23">
            -2 36 callsubr
            return
          </CharString>
          <CharString index="24">
            -20 hstem
            1025 20 vstem
            -2 -19 rmoveto
            -47 61 82 -27 85 hhcurveto
            123 97 41 40 54 hvcurveto
            229 171 -58 263 27 239 56 2 58 13 51 23 rrcurveto
            78 35 104 89 101 vvcurveto
            70 -46 34 -62 2 vhcurveto
            -168 -70 -213 -138 -17 hvcurveto
            -57 -52 14 29 -38 hvcurveto
            2 42 callsubr
            hhcurveto
            -4 -5 -3 -5 -3 1 -3 3 -2 hvcurveto
            -32 42 55 -15 59 hhcurveto
            -26 -242 53 -253 -218 -162 rrcurveto
            -38 -51 -93 -41 -119 hhcurveto
            -90 -74 31 48 -63 hvcurveto
            109 65 56 100 3 108 rrcurveto
            65 -39 50 -71 4 vhcurveto
            -102 -56 -118 -98 -61 22 -61 48 -51 hvcurveto
            -17 -35 -41 -12 -48 -20 -22 7 -23 hhcurveto
            -5 -4 -5 -4 -15 56 -1 18 45 54 12 22 39 hvcurveto
            -35 311 rmoveto
            23 40 33 28 53 5 rrcurveto
            56 35 -44 -56 -105 -68 -99 -95 -58 hvcurveto
            -46 46 -21 57 60 vvcurveto
            42 10 43 20 41 vhcurveto
            790 531 rmoveto
            34 85 62 86 103 5 rrcurveto
            41 47 -22 -64 -143 -185 -99 -140 -5 hvcurveto
            7 54 11 53 20 50 rrcurveto
            return
          </CharString>
          <CharString index="25">
            2 10 4 6 8 1 rrcurveto
            12 5 -10 -10 -9 -3 -14 -11 -22 hvcurveto
            -11 7 -7 19 15 59 callgsubr
            3 50 callgsubr
            return
          </CharString>
          <CharString index="26">
            162 hmoveto
            -93 callgsubr
            endchar
          </CharString>
          <CharString index="27">
            -45 callgsubr
            -127 -76 -120 -112 -69 callgsubr
            return
          </CharString>
          <CharString index="28">
            -11 26 -6 29 30 vvcurveto
            26 4 28 8 27 vhcurveto
            57 -47 65 -19 77 -3 rrcurveto
            105 134 68 114 86 -74 37 -76 -16 -16 -1 -2 -16 hvcurveto
            return
          </CharString>
          <CharString index="29">
            rmoveto
            -82 callsubr
            return
          </CharString>
          <CharString index="30">
            20 -53 -51 26 -55 hhcurveto
            -78 -48 -67 -74 -89 41 -48 2 5 5 4 5 9 -15 24 -4 12 hvcurveto
            -8 22 -8 30 31 vvcurveto
            71 46 52 62 55 49 -27 -18 48 vhcurveto
            71 -27 130 -42 180 -26 -85 -85 -73 -115 -68 -90 -180 16 rcurveline
            36 callgsubr
            -5 -3 -5 -5 -4 3 -3 5 -1 hvcurveto
            169 -15 -56 -72 -144 -167 -132 -118 rlinecurve
            20 -70 -79 23 -83 hhcurveto
            -67 -73 -26 -81 -73 64 -18 47 102 66 47 88 98 hvcurveto
            -55 203 178 -102 225 hhcurveto
            92 108 24 127 18 -2 33 -11 -5 -4 -4 -4 hvcurveto
            -15 4 -15 -16 vvcurveto
            -115 -108 -15 -74 -219 -189 102 51 -183 vhcurveto
            136 122 149 176 48 63 220 -21 rcurveline
            4 -1 5 4 1 5 rrcurveto
            5 -4 5 -5 vhcurveto
            -208 20 69 92 73 109 85 88 rlinecurve
            return
          </CharString>
          <CharString index="31">
            -76 -46 -94 -79 hhcurveto
            -36 -13 21 28 18 5 16 1 1 -42 callgsubr
            -11 4 -51 return
          </CharString>
          <CharString index="32">
            -88 callgsubr
            20 2 -17 -4 -57 callsubr
            return
          </CharString>
          <CharString index="33">
            vvcurveto
            40 -55 1 -17 -21 -59 7 19 -33 vhcurveto
            -91 callsubr
            -9 -6 -12 -7 -10 hvcurveto
            return
          </CharString>
          <CharString index="34">
            -42 callsubr
            -13 25 -5 30 30 vvcurveto
            92 44 56 56 1 vhcurveto
            return
          </CharString>
          <CharString index="35">
            -20 hstemhm
            35 callgsubr
            hintmask 11110111
            -103 callgsubr
            return
          </CharString>
          <CharString index="36">
            -11 -6 -13 -5 -16 hhcurveto
            -39 -46 24 36 -23 hvcurveto
            2 14 18 3 23 hhcurveto
            6 83 2 -42 -3 0 30 callgsubr
            hvcurveto
            return
          </CharString>
          <CharString index="37">
            -53 -109 51 callsubr
            -55 -54 -77 -88 -104 vvcurveto
            -71 39 -73 110 -6 vhcurveto
            return
          </CharString>
          <CharString index="38">
            -31 callsubr
            114 45 112 84 122 -39 callsubr
            return
          </CharString>
          <CharString index="39">
            12 24 5 18 15 vvcurveto
            8 0 29 -34 -6 -29 -3 -41 -20 8 -20 20 -15 vhcurveto
            return
          </CharString>
          <CharString index="40">
            30 -24 24 -30 -30 -24 -24 -30 return
          </CharString>
          <CharString index="41">
            rmoveto
            18 callgsubr
            2 hvcurveto
            813 1270 -44 callgsubr
            -813 -1270 -24 callsubr
            endchar
          </CharString>
          <CharString index="42">
            3 vvcurveto
            -61 callsubr
            return
          </CharString>
          <CharString index="43">
            -16 callsubr
            -80 callgsubr
            -63 10 -62 -67 20 callsubr
            return
          </CharString>
          <CharString index="44">
            rmoveto
            -67 callgsubr
            return
          </CharString>
          <CharString index="45">
            153 194 155 106 47 hvcurveto
            24 54 52 12 43 hhcurveto
            return
          </CharString>
          <CharString index="46">
            5 -4 4 return
          </CharString>
          <CharString index="47">
            106 47 callsubr
            380 85 rmoveto
            -78 callgsubr
            return
          </CharString>
          <CharString index="48">
            vhcurveto
            -36 -81 -50 -76 -66 -70 -65 -69 -110 -89 -131 -21 rrcurveto
            -1 -6 -7 -1 -7 hhcurveto
            -39 -45 19 54 21 return
          </CharString>
          <CharString index="49">
            rmoveto
            20 49 -3 16 hvcurveto
            5 -1 10 callgsubr
            hhcurveto
            return
          </CharString>
          <CharString index="50">
            -45 -52 -36 -24 -16 hvcurveto
            2 55 11 38 16 14 rrcurveto
            return
          </CharString>
          <CharString index="51">
            -2 -2 -1 return
          </CharString>
          <CharString index="52">
            rmoveto
            17 6 -18 -14 -28 -21 -37 -14 -21 hvcurveto
            -5 -7 rlineto
            -211 -305 -309 -277 -7 vvcurveto
            -1 -1 -38 -36 -46 -29 25 90 71 122 113 148 127 167 146 153 40 36 rrcurveto
            return
          </CharString>
          <CharString index="53">
            -23 callsubr
            4 -1 return
          </CharString>
          <CharString index="54">
            rmoveto
            4 callsubr
            8 2 3 19 -3 5 93 -102 hvcurveto
            return
          </CharString>
          <CharString index="55">
            hhcurveto
            -125 -24 119 5 hvcurveto
            -2 9 -1 10 11 vvcurveto
            13 2 14 3 16 vhcurveto
            54 31 47 45 2 2 4 4 307 282 212 306 rrcurveto
            4 7 39 60 35 vvcurveto
            36 -21 13 -21 return
          </CharString>
          <CharString index="56">
            -78 callsubr
            endchar
          </CharString>
          <CharString index="57">
            5 -31 callgsubr
            return
          </CharString>
          <CharString index="58">
            216 117 153 267 28 49 callgsubr
            -5 0 -8 -38 callsubr
            return
          </CharString>
          <CharString index="59">
            -10 58 58 -5 57 hhcurveto
            181 28 67 34 27 -19 26 -23 9 hvcurveto
            -1069 -914 rmoveto
            -27 -53 -36 -5 -36 hhcurveto
            -46 -47 18 56 70 67 18 56 86 65 -22 -17 64 hvcurveto
            -39 -35 -35 -31 -46 -25 rrcurveto
            1089 832 rmoveto
            -24 -12 -39 -39 -136 hhcurveto
            -56 -52 3 9 -48 hvcurveto
            91 98 123 33 51 hhcurveto
            49 26 -23 -31 -6 -1 -7 -3 -6 hvcurveto
            return
          </CharString>
          <CharString index="60">
            rmoveto
            32 -26 25 -31 -25 callgsubr
            31 26 25 31 vhcurveto
            return
          </CharString>
          <CharString index="61">
            -62 callsubr
            -73 callgsubr
            return
          </CharString>
          <CharString index="62">
            vhcurveto
            -53 -62 -50 -92 -79 vvcurveto
            -84 61 -54 119 5 callgsubr
            vhcurveto
            -89 callgsubr
            -108 -53 47 73 78 55 95 45 52 hvcurveto
            78 91 103 73 132 22 rrcurveto
            return
          </CharString>
          <CharString index="63">
            rmoveto
            3 -66 10 -72 0 callsubr
            -6 callgsubr
            vhcurveto
            -81 callgsubr
            return
          </CharString>
          <CharString index="64">
            27 25 11 31 50 -73 7 -40 -19 -19 -1 -4 -20 hvcurveto
            return
          </CharString>
          <CharString index="65">
            rmoveto
            23 8 -13 -20 -49 -45 -73 -68 -79 hvcurveto
            return
          </CharString>
          <CharString index="66">
            4 -4 5 2 2 0 2 2 vhcurveto
            return
          </CharString>
          <CharString index="67">
            -55 callsubr
            40 45 34 24 21 -7 callsubr
            return
          </CharString>
          <CharString index="68">
            hhcurveto
            83 52 -34 -68 -100 -109 -64 -112 -2 hvcurveto
            return
          </CharString>
          <CharString index="69">
            -4 -12 hvcurveto
            -57 -186 -177 -197 -62 -70 rrcurveto
            return
          </CharString>
          <CharString index="70">
            hhcurveto
            68 61 -40 -56 -81 -122 -68 -109 return
          </CharString>
          <CharString index="71">
            -5 -1 -3 -3 -5 vvcurveto
            -59 46 -62 31 -31 vhcurveto
            return
          </CharString>
          <CharString index="72">
            -72 callgsubr
            -81 callsubr
          </CharString>
          <CharString index="73">
            110 45 93 47 131 111 return
          </CharString>
          <CharString index="74">
            -28 callgsubr
            -20 20 -10 25 36 vvcurveto
            16 5 13 8 6 vhcurveto
            return
          </CharString>
          <CharString index="75">
            -140 -60 -50 -55 -60 vvcurveto
            return
          </CharString>
          <CharString index="76">
            42 69 callsubr
            -68 -72 21 49 -53 hvcurveto
            return
          </CharString>
          <CharString index="77">
            363 -26 -21 47 -20 287 234 return
          </CharString>
          <CharString index="78">
            -4 -4 -5 return
          </CharString>
          <CharString index="79">
            -32 callsubr
            21 callsubr
            return
          </CharString>
          <CharString index="80">
            rmoveto
            78 38 -37 -13 11 hvcurveto
            return
          </CharString>
          <CharString index="81">
            rmoveto
            32 -25 25 -32 -25 callgsubr
            3 3 0 1 3 vhcurveto
            -14 -13 -21 -12 -30 -8 rrcurveto
            -4 -2 -3 -3 -3 vvcurveto
            -7 5 -2 6 vhcurveto
            98 27 11 64 14 vvcurveto
            endchar
          </CharString>
          <CharString index="82">
            -30 callsubr
            512 return
          </CharString>
          <CharString index="83">
            -10 callgsubr
            51 callgsubr
            6 vhcurveto
            return
          </CharString>
          <CharString index="84">
            -4 3 -4 return
          </CharString>
          <CharString index="85">
            39 callsubr
            vhcurveto
            return
          </CharString>
          <CharString index="86">
            -171 -102 -176 -326 -217 hhcurveto
            -42 -22 21 36 67 43 103 65 113 hvcurveto
            48 84 46 64 1 vvcurveto
            1 1 0 callgsubr
            5 -5 4 -4 vhcurveto
            0 return
          </CharString>
          <CharString index="87">
            32 hvcurveto
            -36 19 46 -38 64 hhcurveto
            return
          </CharString>
          <CharString index="88">
            vhcurveto
            -67 -118 -45 -102 -71 vvcurveto
            -47 31 -29 52 32 38 10 20 42 vhcurveto
            118 55 73 94 82 121 rrcurveto
            -38 -89 -20 -70 -52 vvcurveto
            -67 34 -35 62 return
          </CharString>
          <CharString index="89">
            -5 -2 -2 -1 14 callsubr
            return
          </CharString>
          <CharString index="90">
            rmoveto
            -93 callgsubr
            return
          </CharString>
          <CharString index="91">
            -27 callgsubr
            -15 18 -25 return
          </CharString>
          <CharString index="92">
            57 callsubr
            -3 -1 vhcurveto
            return
          </CharString>
          <CharString index="93">
            -5 -1 -3 -4 -5 vvcurveto
            return
          </CharString>
          <CharString index="94">
            rmoveto
            3 22 callgsubr
            vvcurveto
            6 14 callgsubr
            -29 callgsubr
            return
          </CharString>
          <CharString index="95">
            rmoveto
            -8 -65 -95 -137 -104 -114 rrcurveto
            -112 return
          </CharString>
          <CharString index="96">
            -20 hstemhm
            77 -2 callgsubr
            return
          </CharString>
          <CharString index="97">
            hhcurveto
            -50 callsubr
            return
          </CharString>
          <CharString index="98">
            2 2 vvcurveto
            return
          </CharString>
          <CharString index="99">
            1 callsubr
            -33 53 -2 vhcurveto
            return
          </CharString>
          <CharString index="100">
            hhcurveto
            -186 -574 rmoveto
            33 1 -52 -19 -28 -3 -26 -5 -23 hvcurveto
            return
          </CharString>
          <CharString index="101">
            rmoveto
            -19 14 -15 15 -13 16 rrcurveto
            91 126 131 55 88 hhcurveto
            return
          </CharString>
          <CharString index="102">
            -67 -54 -54 -67 -67 54 -54 67 hvcurveto
            224 vmoveto
            57 46 -46 -57 return
          </CharString>
          <CharString index="103">
            77 49 91 40 38 hvcurveto
            return
          </CharString>
          <CharString index="104">
            1220 891 rmoveto
            5 -13 -17 4 -21 hhcurveto
            -62 -132 -41 -97 -101 hvcurveto
            -139 20 -128 30 -123 46 rrcurveto
            return
          </CharString>
          <CharString index="105">
            hvcurveto
            13 callsubr
            return
          </CharString>
          <CharString index="106">
            hvcurveto
            7 26 3 30 31 vvcurveto
            62 -21 27 -32 -26 -27 -22 -38 return
          </CharString>
          <CharString index="107">
            -71 vvcurveto
            -1 38 callsubr
            hhcurveto
            return
          </CharString>
          <CharString index="108">
            26 callsubr
            -59 -83 -147 -174 -101 vvcurveto
            -46 27 return
          </CharString>
          <CharString index="109">
            -3 30 callgsubr
            -2 vhcurveto
            return
          </CharString>
          <CharString index="110">
            vvcurveto
            14 callgsubr
            5 return
          </CharString>
          <CharString index="111">
            -9 callgsubr
            hhcurveto
            return
          </CharString>
          <CharString index="112">
            30 callsubr
            -2 return
          </CharString>
          <CharString index="113">
            -5 -8 hvcurveto
            -53 -88 -61 -111 -61 vvcurveto
            -54 45 -32 58 200 201 219 195 91 vhcurveto
            return
          </CharString>
          <CharString index="114">
            -1 0 0 return
          </CharString>
          <CharString index="115">
            2 7 -21 483 99 -99 209 return
          </CharString>
          <CharString index="116">
            -40 -32 -42 -108 return
          </CharString>
          <CharString index="117">
            rmoveto
            10 5 -7 -16 -45 -32 -71 -15 -35 hvcurveto
            -14 18 -8 26 30 vvcurveto
            33 13 67 41 vhcurveto
            return
          </CharString>
          <CharString index="118">
            hvcurveto
            56 callgsubr
            1 vvcurveto
            6 14 callgsubr
            -22 return
          </CharString>
          <CharString index="119">
            21 11 -21 473 85 -17 return
          </CharString>
          <CharString index="120">
            32 callgsubr
            3 return
          </CharString>
          <CharString index="121">
            -1 -1 vhcurveto
            return
          </CharString>
          <CharString index="122">
            rmoveto
            -32 26 -25 31 31 25 25 32 31 -25 25 -31 -31 -26 -25 -31 vhcurveto
            endchar
          </CharString>
          <CharString index="123">
            23 callgsubr
            vhcurveto
            return
          </CharString>
          <CharString index="124">
            -65 callgsubr
            hvcurveto
            return
          </CharString>
          <CharString index="125">
            rmoveto
            -67 callsubr
            vhcurveto
            return
          </CharString>
          <CharString index="126">
            -21 1288 -20 hstem
            return
          </CharString>
          <CharString index="127">
            vvcurveto
            -4 2 -7 -7 vhcurveto
            return
          </CharString>
          <CharString index="128">
            -50 40 -25 43 return
          </CharString>
          <CharString index="129">
            3 1 3 return
          </CharString>
          <CharString index="130">
            hstemhm
            1026 151 return
          </CharString>
          <CharString index="131">
            2 2 2 return
          </CharString>
          <CharString index="132">
            -12 2 25 -122 141 hhcurveto
            54 98 20 103 94 hvcurveto
            30 33 return
          </CharString>
          <CharString index="133">
            -37 callgsubr
            -9 -6 -12 -7 -10 hvcurveto
            return
          </CharString>
          <CharString index="134">
            53 callgsubr
            47 callgsubr
            vvcurveto
            return
          </CharString>
          <CharString index="135">
            21 callsubr
            79 51 85 155 return
          </CharString>
          <CharString index="136">
            69 callgsubr
            -5 return
          </CharString>
          <CharString index="137">
            -1 -1 0 return
          </CharString>
          <CharString index="138">
            vhcurveto
            -1 -1 return
          </CharString>
          <CharString index="139">
            hvcurveto
            42 103 58 99 16 28 rrcurveto
            0 0 0 -15 10 vhcurveto
            return
          </CharString>
          <CharString index="140">
            23 vvcurveto
            23 -15 21 -31 return
          </CharString>
          <CharString index="141" raw="1">
            8f86530a 8a0b  
          </CharString>
          <CharString index="142">
            61 vhcurveto
            115 126 return
          </CharString>
          <CharString index="143">
            -2 -1 -1 -2 vhcurveto
            return
          </CharString>
          <CharString index="144">
            458 167 return
          </CharString>
          <CharString index="145">
            -3 -2 -1 return
          </CharString>
          <CharString index="146">
            2 -1 2 return
          </CharString>
          <CharString index="147">
            hvcurveto
            12 5 14 15 vvcurveto
            -65 callgsubr
            -13 -1 return
          </CharString>
          <CharString index="148">
            -605 hlineto
            -53 callgsubr
            return
          </CharString>
          <CharString index="149">
            68 callsubr
            -2 return
          </CharString>
          <CharString index="150">
            1 1 1 2 return
          </CharString>
          <CharString index="151">
            364 rmoveto
            return
          </CharString>
          <CharString index="152">
            -2 1 -3 return
          </CharString>
          <CharString index="153">
            vhcurveto
            137 44 204 76 191 163 return
          </CharString>
          <CharString index="154">
            -21 569 -20 hstem
            return
          </CharString>
          <CharString index="155">
            65 callsubr
            hstemhm
            return
          </CharString>
          <CharString index="156">
            -3 -1 -2 return
          </CharString>
          <CharString index="157">
            hvcurveto
            -131 return
          </CharString>
          <CharString index="158">
            -112 hvcurveto
            return
          </CharString>
          <CharString index="159">
            -40 -32 -55 -66 -21 4 -39 28 -29 vhcurveto
            return
          </CharString>
          <CharString index="160">
            vvcurveto
            21 10 23 25 vhcurveto
            return
          </CharString>
          <CharString index="161" raw="1">
            b21d8f0b   
          </CharString>
          <CharString index="162">
            365 206 return
          </CharString>
          <CharString index="163">
            4 -5 4 -4 return
          </CharString>
          <CharString index="164">
            -4 -3 -2 return
          </CharString>
          <CharString index="165">
            -110 hvcurveto
            return
          </CharString>
          <CharString index="166">
            -1 -2 -1 return
          </CharString>
          <CharString index="167">
            5 -3 4 return
          </CharString>
          <CharString index="168">
            hvcurveto
            148 return
          </CharString>
          <CharString index="169">
            -225 rmoveto
            return
          </CharString>
          <CharString index="170">
            hstemhm
            55 callsubr
            return
          </CharString>
          <CharString index="171">
            vvcurveto
            4 38 callgsubr
            return
          </CharString>
          <CharString index="172">
            -108 108 return
          </CharString>
          <CharString index="173">
            1 2 2 return
          </CharString>
          <CharString index="174">
            -5 -4 -3 return
          </CharString>
          <CharString index="175">
            -2 -2 0 return
          </CharString>
          <CharString index="176">
            176 rmoveto
            return
          </CharString>
        <CharString name=".notdef">
          -433 endchar
        </CharString>
        <CharString name=".null">
          -845 endchar
        </CharString>
        <CharString name="A">
          -30 callsubr
          529 -20 hstem
          -107 callgsubr
          endchar
        </CharString>
        <CharString name="AE">
          917 -26 -21 47 -20 287 233 -17 99 -99 209 268 70 hstemhm
          943 58 261 206 hintmask 11010111
          1265 hmoveto
          -85 callgsubr
          104 135 163 -90 callsubr
          0 -179 -25 -69 -176 vhcurveto
          -38 callgsubr
          -36 callsubr
          -83 callgsubr
          hintmask 11100111
          -71 callsubr
          hintmask 11001111
          -31 callsubr
          107 42 108 91 129 -39 callsubr
          74 288 -102 callgsubr
          hintmask 11100111
          -105 callsubr
          270 -114 rmoveto
          -74 2 -55 9 -52 callgsubr
          -3 -32 -25 -1 -24 -12 -11 1 -11 hhcurveto
          177 -145 -100 callsubr
          endchar
        </CharString>
        <CharString name="Aacute">
          -25 callsubr
          69 124 -20 hstem
          -107 callgsubr
          13 273 -100 callgsubr
        </CharString>
        <CharString name="Acircumflex">
          -25 callsubr
          89 108 -20 hstem
          -107 callgsubr
          474 259 -101 callgsubr
        </CharString>
        <CharString name="Adieresis">
          -30 callsubr
          565 108 hstem
          1238 9 callgsubr
          vstem
          -107 callgsubr
          203 325 -76 callgsubr
        </CharString>
        <CharString name="Agrave">
          -25 callsubr
          84 hstem
          -107 callgsubr
          298 283 -98 callgsubr
        </CharString>
        <CharString name="Aring">
          -25 callsubr
          57 -18 242 hstemhm
          1279 242 hintmask 11110100
          -107 callgsubr
          hintmask 11101100
          257 257 6 callgsubr
          hvcurveto
          hintmask 11110100
          11 callgsubr
          vhcurveto
          endchar
        </CharString>
        <CharString name="Atilde">
          -25 callsubr
          64 65 callgsubr
          hintmask 11110000
          -107 callgsubr
          hintmask 11101000
          424 264 -53 callsubr
          hintmask 11110000
          -76 callsubr
          vhcurveto
          hintmask 11101000
          -38 21 -29 46 vhcurveto
          86 51 93 66 hhcurveto
          68 9 -53 -16 hvcurveto
          -13 45 callgsubr
          vvcurveto
          -54 callsubr
          vhcurveto
          endchar
        </CharString>
        <CharString name="B">
          150 -29 -21 525 98 323 122 hstem
          1078 944 rmoveto
          56 -26 -75 18 -56 hhcurveto
          -99 -87 -35 -69 -75 hvcurveto
          1 -6 -12 0 -8 -265 -130 -187 -2 hhcurveto
          -1 -2 -1 -1 -2 29 callgsubr
          2 vhcurveto
          24 32 40 36 34 24 rrcurveto
          46 66 96 42 129 hhcurveto
          -214 -208 -222 -544 -147 -125 rrcurveto
          -33 -39 -42 -19 -48 hhcurveto
          -46 -44 30 45 -9 hvcurveto
          53 callgsubr
          -51 66 -40 51 188 94 256 266 158 hvcurveto
          104 175 91 153 102 96 rrcurveto
          251 -15 32 -129 -67 vvcurveto
          -21 -2 -13 -4 -16 vhcurveto
          -2 -4 -21 -103 -133 -28 rrcurveto
          50 -65 -50 23 -49 hhcurveto
          -25 -29 -15 -28 -54 115 -1 28 24 24 2 4 23 hvcurveto
          3 -4 4 -3 4 -3 rrcurveto
          51 -47 37 -61 -80 vvcurveto
          -181 -159 -112 -139 -70 -85 17 48 -48 vhcurveto
          -47 52 -9 54 36 14 3 11 11 vvcurveto
          4 -2 5 -7 -5 -7 5 -50 -163 135 -62 142 171 145 143 170 84 -40 68 -56 48 vhcurveto
          125 36 26 96 5 13 rrcurveto
          1 3 6 26 26 vvcurveto
          74 -38 133 -244 20 vhcurveto
          72 87 72 16 94 hhcurveto
          48 58 -27 -37 18 hvcurveto
          -3 1 4 -2 3 hhcurveto
          6 3 4 5 1 0 2 -1 1 hvcurveto
          -362 -451 rmoveto
          -86 1 -43 13 23 vvcurveto
          16 20 11 17 46 34 -21 -40 59 vhcurveto
          -2 -14 -16 -1 -17 hhcurveto
          endchar
        </CharString>
        <CharString name="C">
          -107 -10 -21 975 -20 hstem
          163 -14 rmoveto
          -13 33 34 -4 28 hhcurveto
          56 53 14 31 54 hvcurveto
          58 33 77 64 75 116 rrcurveto
          -5 callgsubr
          -74 -115 -75 -59 -55 -33 -51 -30 -43 -11 -60 -2 rrcurveto
          -130 -66 89 114 -3 hvcurveto
          193 193 229 203 158 vhcurveto
          -50 36 78 -55 118 hhcurveto
          139 65 91 10 7 hvcurveto
          16 21 12 31 32 vvcurveto
          53 -33 41 -79 -94 -136 -57 -92 -125 vhcurveto
          -39 callgsubr
          38 -86 84 -33 vhcurveto
          353 749 -6 callsubr
          75 19 -38 -38 -27 -11 -29 -13 -18 hvcurveto
          -3 -3 -60 -90 -134 hhcurveto
          -72 -60 23 29 -39 hvcurveto
          endchar
        </CharString>
        <CharString name="CR">
          -433 endchar
        </CharString>
        <CharString name="Ccedilla">
          -107 -241 228 957 -20 hstem
          163 -14 rmoveto
          -13 33 34 -4 28 hhcurveto
          56 53 14 31 54 hvcurveto
          58 33 77 64 75 116 rrcurveto
          -5 callgsubr
          -74 -115 -75 -59 -55 -33 -51 -30 -43 -11 -60 -2 rrcurveto
          -130 -66 89 114 -3 hvcurveto
          193 193 229 203 158 vhcurveto
          -50 36 78 -55 118 hhcurveto
          139 65 91 10 7 hvcurveto
          16 21 12 31 32 vvcurveto
          53 -33 41 -79 -94 -136 -57 -92 -125 vhcurveto
          -39 callgsubr
          38 -86 84 -33 vhcurveto
          353 749 -6 callsubr
          75 19 -38 -38 -27 -11 -29 -13 -18 hvcurveto
          -3 -3 -60 -90 -134 hhcurveto
          -72 -60 23 29 -39 hvcurveto
          -495 -957 rmoveto
          -14 39 31 -5 26 hhcurveto
          88 29 65 26 44 -54 16 -28 5 hvcurveto
          47 59 rlineto
          1 2 0 callgsubr
          56 callsubr
          20 callgsubr
          -57 -70 21 callgsubr
          -16 90 4 -46 vvcurveto
          -43 -54 -32 -46 -26 -29 6 12 -34 31 callsubr
          1 -2 25 callgsubr
          -4 -6 -3 2 -3 4 -1 hvcurveto
          endchar
        </CharString>
        <CharString name="D">
          -90 callgsubr
          endchar
        </CharString>
        <CharString name="E">
          8 callsubr
          287 -20 -87 callsubr
          endchar
        </CharString>
        <CharString name="Eacute">
          8 callsubr
          268 97 124 -20 63 callsubr
          hintmask 11011100
          -105 callgsubr
          hintmask 10111100
          -69 callsubr
          -56 351 -100 callgsubr
        </CharString>
        <CharString name="Ecircumflex">
          2 7 -21 483 99 378 76 108 -20 hstem
          55 callsubr
          vstem
          -105 callgsubr
          -69 callsubr
          383 296 -101 callgsubr
        </CharString>
        <CharString name="Edieresis">
          8 callsubr
          268 150 -108 108 63 callsubr
          -4 108 54 104 hintmask 11010101
          -105 callgsubr
          hintmask 10110011
          -69 callsubr
          81 364 18 callsubr
          hintmask 11001011
          -35 callsubr
        </CharString>
        <CharString name="Egrave">
          8 callsubr
          268 102 -87 callsubr
          217 351 -98 callgsubr
        </CharString>
        <CharString name="Eth">
          -90 callgsubr
          73 -211 -20 callgsubr
          endchar
        </CharString>
        <CharString name="Euro">
          -29 3 -21 354 227 -18 138 261 -20 hstemhm
          hintmask 10110000
          604 545 rmoveto
          -50 callsubr
          hvcurveto
          hintmask 11010000
          7 callgsubr
          hintmask 10110000
          -5 4 -4 5 vhcurveto
          hintmask 11010000
          482 -209 -58 callgsubr
          261 -331 rmoveto
          -16 34 37 -7 36 hhcurveto
          150 156 121 124 81 hvcurveto
          -5 callgsubr
          -133 -87 -159 -103 -132 hhcurveto
          -129 -50 86 92 79 32 90 35 61 hvcurveto
          74 133 124 126 131 102 rrcurveto
          -67 48 91 -38 93 hhcurveto
          101 138 70 111 53 -40 45 -72 -94 -136 -57 -92 -125 hvcurveto
          -39 callgsubr
          25 -67 71 -33 vhcurveto
          379 730 -6 callsubr
          59 36 -36 -46 hvcurveto
          hintmask 10110000
          -91 -113 -70 -122 -55 -56 18 34 -47 vhcurveto
          endchar
        </CharString>
        <CharString name="F">
          -19 -21 420 130 233 205 hstem
          1357 913 rmoveto
          31 -30 -57 4 -44 hhcurveto
          -126 -115 -59 -89 -103 hvcurveto
          -67 17 -78 24 -92 34 rrcurveto
          19 -53 -50 8 -44 hhcurveto
          -98 -97 -39 -65 -65 hvcurveto
          -2 -2 0 23 callgsubr
          2 3 66 callsubr
          vhcurveto
          62 62 99 36 85 hhcurveto
          42 47 -7 -19 52 hvcurveto
          87 -32 75 -23 64 -17 -101 -90 -91 -114 -85 -112 rrcurveto
          10 -64 -42 30 -82 hhcurveto
          -46 -54 -14 -53 -55 89 -8 38 35 44 8 9 27 hvcurveto
          -8 -11 -52 -67 -115 -161 -66 -71 rlinecurve
          -77 -72 -60 -32 -58 hhcurveto
          -67 -46 31 66 40 callsubr
          -37 -13 -71 48 -44 82 148 112 173 242 179 vhcurveto
          18 24 22 33 16 18 rrcurveto
          -2 14 15 -1 15 hhcurveto
          36 40 8 23 42 hvcurveto
          3 1 2 3 3 43 callgsubr
          -6 -29 callgsubr
          -21 -40 -36 -7 -34 hhcurveto
          -11 -10 0 2 -11 hvcurveto
          86 113 92 117 101 84 rrcurveto
          -38 149 69 0 79 hhcurveto
          160 8 32 77 39 vvcurveto
          19 -7 16 -12 11 vhcurveto
          -806 -492 rmoveto
          -9 -19 -70 -14 -40 hhcurveto
          -32 -71 8 37 42 53 7 28 71 34 -22 -16 71 hvcurveto
          -8 -11 -8 -11 -9 -11 rrcurveto
          762 376 rmoveto
          -24 -17 -40 -16 -66 -3 rrcurveto
          -75 -63 0 34 -141 hvcurveto
          81 98 107 54 117 hhcurveto
          47 84 -8 -55 -28 -23 -31 -21 -11 hvcurveto
          endchar
        </CharString>
        <CharString name="G">
          163 -460 20 367 20 3 20 713 20 257 21 hstem
          265 21 894 20 vstem
          394 -460 rmoveto
          200 116 240 140 67 hvcurveto
          4 47 51 3 57 hhcurveto
          21 22 0 -1 22 hvcurveto
          6 5 4 6 16 -55 -5 -22 -50 -48 -2 -4 -46 hvcurveto
          52 117 32 107 31 93 -18 7 rcurveline
          -56 -133 -85 -72 -61 -36 rrcurveto
          -32 -55 -63 -22 -69 hhcurveto
          -95 -114 52 160 181 183 258 234 173 hvcurveto
          -69 57 95 -42 94 hhcurveto
          54 51 14 30 47 hvcurveto
          47 30 52 60 63 vvcurveto
          72 -54 29 -60 -115 -123 -61 -98 -141 vhcurveto
          -18 24 -25 42 41 vvcurveto
          5 -1 14 callgsubr
          hhcurveto
          -6 -4 -5 -5 -36 23 -52 24 -29 hvcurveto
          -260 -194 -166 -258 -176 vvcurveto
          -151 94 -82 135 131 132 76 125 88 vhcurveto
          -22 -65 -25 -71 -34 -76 rrcurveto
          -196 -28 -292 -70 -196 vvcurveto
          -71 52 -32 66 -2 vhcurveto
          360 377 rmoveto
          -52 -25 -125 -305 -210 hhcurveto
          -66 -32 33 52 91 100 71 5 hvcurveto
          1 1 102 81 250 28 rrcurveto
          -35 889 rmoveto
          99 135 136 55 94 hhcurveto
          66 30 -33 -47 -112 -136 -65 -98 -84 -86 36 67 -57 hvcurveto
          endchar
        </CharString>
        <CharString name="H">
          79 -219 -21 1213 132 hstem
          15 -194 rmoveto
          -28 22 33 -18 35 hhcurveto
          95 77 159 103 43 hvcurveto
          63 151 15 77 39 121 124 57 139 43 106 52 rrcurveto
          -75 -140 -72 -164 -129 vvcurveto
          -144 85 -67 105 -30 vhcurveto
          1 0 0 1 -10 callsubr
          3 -2 4 -4 2 hvcurveto
          -93 25 -84 57 141 vvcurveto
          131 76 172 82 143 vhcurveto
          245 121 127 130 5 5 rrcurveto
          25 27 27 35 41 vvcurveto
          41 -32 34 -44 -85 -98 -139 -5 -5 vhcurveto
          2 3 -102 -139 -78 -140 -107 -53 -142 -44 -129 -59 40 125 38 118 40 102 39 98 41 76 44 66 rrcurveto
          -4 17 17 -2 15 hhcurveto
          56 38 23 3 5 hvcurveto
          24 15 27 19 30 vvcurveto
          20 -13 22 -31 -58 -60 -48 -58 -44 vhcurveto
          -38 11 -45 26 -47 54 rrcurveto
          2 -2 45 callsubr
          hhcurveto
          -4 -5 -5 -4 -2 1 -2 2 -2 hvcurveto
          45 -52 43 -26 43 -16 -97 -130 -71 -226 -77 -244 -141 -68 -128 -86 -86 -114 rrcurveto
          -59 -79 -25 -72 -59 vvcurveto
          -40 12 -35 20 -25 vhcurveto
          67 299 rmoveto
          79 106 120 83 134 66 -26 -79 -24 -82 -28 -83 rrcurveto
          -144 -48 -92 -194 -91 hhcurveto
          -53 -52 48 80 54 23 69 58 76 hvcurveto
          999 786 rmoveto
          25 28 36 36 43 hhcurveto
          29 29 -26 -31 -35 -24 -31 -24 -25 hvcurveto
          -8 -9 -117 -117 -222 -114 19 34 20 31 18 29 71 112 30 51 72 70 rrcurveto
          -346 100 rmoveto
          -12 -12 1 2 -13 hvcurveto
          37 31 57 56 51 hhcurveto
          13 17 -3 -22 -22 -27 -17 -16 -9 hvcurveto
          0 -36 -23 -53 vhcurveto
          endchar
        </CharString>
        <CharString name="I">
          -16 callgsubr
          hstem
          35 callgsubr
          vstem
          -103 callgsubr
          endchar
        </CharString>
        <CharString name="Iacute">
          -16 callgsubr
          -20 80 124 -72 callsubr
          -30 158 rmoveto
          -2 22 22 -2 23 hhcurveto
          139 137 46 79 125 hvcurveto
          3 2 1 3 -65 callsubr
          -4 -84 callsubr
          hintmask 11101111
          -71 -110 -144 -51 -136 -23 -22 4 -22 25 callgsubr
          -5 -4 -54 callsubr
          hvcurveto
          endchar
        </CharString>
        <CharString name="Icircumflex">
          -16 callgsubr
          -20 49 108 -72 callsubr
          487 93 -91 callgsubr
          hintmask 11101111
          -100 -162 -140 -7 -58 hhcurveto
          -44 -27 6 0 hvcurveto
          36 callgsubr
          -53 callgsubr
          -54 callsubr
          hvcurveto
          1 28 -6 46 hhcurveto
          117 124 35 67 116 hvcurveto
          -77 5 51 -55 72 hhcurveto
          endchar
        </CharString>
        <CharString name="Idieresis">
          -16 callgsubr
          10 108 hstemhm
          -48 20 1082 108 54 95 -20 20 -20 33 hintmask 1111111010000000
          -103 callgsubr
          200 176 -17 callsubr
          hintmask 1111111001000000
          162 hmoveto
          30 -24 24 -30 vhcurveto
          hintmask 1111111100000000
          -30 -24 -24 -30 -30 24 -24 30 hvcurveto
          hintmask 1111111001000000
          30 24 24 30 hvcurveto
          endchar
        </CharString>
        <CharString name="Igrave">
          -16 callgsubr
          -20 71 hstemhm
          35 callgsubr
          hintmask 11110110
          -103 callgsubr
          256 144 -58 callsubr
          hintmask 11101110
          -2 -18 -18 0 -19 hhcurveto
          -121 -130 35 127 -42 hvcurveto
          63 -19 18 -7 -16 hhcurveto
          -53 callgsubr
          -1 0 -21 9 -29 31 callgsubr
          38 138 -48 130 hhcurveto
          endchar
        </CharString>
        <CharString name="J">
          -236 -381 -21 1304 -21 97 -20 hstem
          -549 20 vstem
          -450 -402 rmoveto
          210 216 235 169 156 hvcurveto
          110 15 105 9 66 104 32 46 9 43 1 2 rrcurveto
          -9 callgsubr
          vvcurveto
          4 -4 6 -6 -4 -4 -4 -4 -2 vhcurveto
          0 -9 -41 -30 -44 vhcurveto
          -58 -85 -90 -19 -98 -12 298 337 143 284 258 190 rrcurveto
          -44 160 62 -11 59 hhcurveto
          169 16 71 18 7 hvcurveto
          2 10 1 9 8 vvcurveto
          75 -105 7 -10 vhcurveto
          -8 -8 0 -8 hhcurveto
          -116 -112 -40 -81 -113 hvcurveto
          29 -110 -78 16 -67 hhcurveto
          -85 -53 -18 -1 -1 hvcurveto
          -4 -1 68 callgsubr
          vvcurveto
          -7 6 -3 5 vhcurveto
          6 45 17 82 hhcurveto
          62 75 -12 -27 100 hvcurveto
          -14 -10 -13 -11 -13 -11 -242 -204 -123 -250 -299 -335 -145 -21 -154 -6 -150 -63 rrcurveto
          -89 -37 -132 -94 -114 vvcurveto
          -64 44 -23 55 -1 vhcurveto
          551 400 rmoveto
          -276 -249 -164 -106 -136 hhcurveto
          -41 -40 14 59 100 127 87 82 36 hvcurveto
          132 57 141 10 148 19 rrcurveto
          769 852 rmoveto
          67 96 105 41 114 8 8 0 8 hhcurveto
          4 93 -1 -63 -58 -48 -37 -132 -54 -60 12 39 -142 hvcurveto
          endchar
        </CharString>
        <CharString name="K">
          53 -20 -21 481 151 -17 -20 271 28 -28 148 hstemhm
          557 39 hintmask 11010100
          1212 847 rmoveto
          4 -11 -11 2 -11 hhcurveto
          -71 -67 -78 -53 -62 50 callsubr
          -112 -169 -114 -160 -29 -33 41 -45 37 -45 23 83 112 82 104 86 70 rrcurveto
          -18 91 70 -11 29 hhcurveto
          52 63 18 63 hvcurveto
          hintmask 11001100
          56 -48 11 -33 vhcurveto
          -81 -3 -79 -38 -69 -59 rrcurveto
          26 -129 -192 52 -90 hhcurveto
          -103 -24 -51 -27 -7 1 -7 7 5 5 3 5 hvcurveto
          2 0 1 1 vvcurveto
          38 33 24 76 82 186 -49 -25 125 vhcurveto
          -83 -74 -83 -102 -79 -107 rrcurveto
          9 -20 -24 6 -22 hhcurveto
          -36 -33 -23 -36 -38 34 -14 20 -14 hvcurveto
          -267 -204 -111 -192 -147 hhcurveto
          -77 -35 39 57 hvcurveto
          12 5 15 15 vvcurveto
          4 14 callgsubr
          -14 0 -37 -13 -67 43 -47 87 145 110 168 246 183 vhcurveto
          14 19 14 18 13 19 rrcurveto
          -13 39 40 -6 40 hhcurveto
          26 26 2 5 26 hvcurveto
          39 -51 27 -59 -77 -73 -21 -63 -57 vvcurveto
          -62 40 -46 55 48 53 33 30 30 vhcurveto
          1 1 -54 callgsubr
          -29 -28 -47 -30 -42 hhcurveto
          -53 -25 48 43 hvcurveto
          51 21 66 76 vvcurveto
          76 -27 65 -37 50 vhcurveto
          165 35 164 111 129 112 rrcurveto
          54 63 69 72 57 hhcurveto
          39 22 -28 -31 hvcurveto
          -14 -7 -12 -10 vvcurveto
          -4 2 -4 7 5 11 8 36 32 -18 28 -28 11 vhcurveto
          -495 58 rmoveto
          51 31 51 18 52 1 rrcurveto
          31 -1 33 -7 -40 vvcurveto
          -53 -57 -11 -38 -26 -63 9 17 -86 vhcurveto
          17 13 18 13 17 10 rrcurveto
          -455 -373 rmoveto
          hintmask 10101100
          28 28 14 23 20 18 -6 -7 17 vhcurveto
          -20 -26 -20 -27 -19 -27 rrcurveto
          -20 9 -27 19 23 vvcurveto
          172 -74 rmoveto
          -37 -36 5 11 -35 hvcurveto
          20 27 19 27 20 26 27 -13 32 -16 55 -62 rrcurveto
          -3 -22 -22 -2 -21 hhcurveto
          endchar
        </CharString>
        <CharString name="L">
          40 callgsubr
          540 -188 rmoveto
          -38 68 65 -17 54 hhcurveto
          56 88 26 87 24 -9 25 -17 24 hvcurveto
          -26 36 -6 -6 0 vvcurveto
          -5 -4 -5 -5 hvcurveto
          -2 49 -36 -54 vvcurveto
          -71 -67 -25 -59 -51 -61 16 37 -66 vhcurveto
          -111 61 -48 68 -56 56 100 72 104 119 117 157 134 181 109 185 131 103 rrcurveto
          -27 70 47 -22 71 hhcurveto
          79 32 44 38 45 -40 25 -43 -82 -75 -34 -49 -62 hvcurveto
          19 -47 -67 20 -50 hhcurveto
          -85 -58 -34 -1 -1 hvcurveto
          49 callsubr
          -4 -3 3 callsubr
          1 2 1 50 callgsubr
          1 3 55 31 77 hhcurveto
          45 58 -19 -15 44 31 callgsubr
          -108 -109 -181 -130 -176 -117 -158 -103 -115 -99 -73 -61 60 -58 40 -87 3 rrcurveto
          -48 -56 -26 -63 -65 82 -29 65 50 62 21 36 48 hvcurveto
          51 -57 56 -71 114 -63 rrcurveto
          -510 227 rmoveto
          46 39 26 47 75 61 -40 -55 55 vhcurveto
          -33 -51 -51 -19 -46 hhcurveto
          -48 -74 16 59 -7 hvcurveto
          1069 784 rmoveto
          -16 6 -17 6 -20 8 61 42 61 27 74 3 rrcurveto
          28 40 -11 -42 -44 -46 -19 -51 -43 -34 10 14 -37 hvcurveto
          endchar
        </CharString>
        <CharString name="Lslash">
          40 callgsubr
          926 488 -20 callgsubr
          162 -420 rmoveto
          -38 68 65 -17 54 hhcurveto
          56 88 26 87 24 -9 25 -17 24 hvcurveto
          -26 36 -6 -6 0 vvcurveto
          -5 -4 -5 -5 hvcurveto
          -2 49 -36 -54 vvcurveto
          -71 -67 -25 -59 -51 -61 16 37 -66 vhcurveto
          -111 61 -48 68 -56 56 100 72 104 119 117 157 134 181 109 185 131 103 rrcurveto
          -27 70 47 -22 71 hhcurveto
          79 32 44 38 45 -40 25 -43 -82 -75 -34 -49 -62 hvcurveto
          19 -47 -67 20 -50 hhcurveto
          -85 -58 -34 -1 -1 hvcurveto
          49 callsubr
          -4 -3 3 callsubr
          1 2 1 50 callgsubr
          1 3 55 31 77 hhcurveto
          45 58 -19 -15 44 31 callgsubr
          -108 -109 -181 -130 -176 -117 -158 -103 -115 -99 -73 -61 60 -58 40 -87 3 rrcurveto
          -48 -56 -26 -63 -65 82 -29 65 50 62 21 36 48 hvcurveto
          51 -57 56 -71 114 -63 rrcurveto
          -510 227 rmoveto
          46 39 26 47 75 61 -40 -55 55 vhcurveto
          -33 -51 -51 -19 -46 hhcurveto
          -48 -74 16 59 -7 hvcurveto
          1069 784 rmoveto
          -16 6 -17 6 -20 8 61 42 61 27 74 3 rrcurveto
          28 40 -11 -42 -44 -46 -19 -51 -43 -34 10 14 -37 hvcurveto
          endchar
        </CharString>
        <CharString name="M">
          346 -178 -21 1122 -20 hstem
          410 152 vstem
          1018 -150 rmoveto
          -33 35 43 -16 53 hhcurveto
          111 56 97 2 2 hvcurveto
          1 1 0 callgsubr
          4 -5 5 -6 38 callsubr
          -4 -2 vhcurveto
          -4 -2 -52 -86 -99 hhcurveto
          -41 -45 13 31 -33 hvcurveto
          -39 37 -9 51 45 5 0 4 4 vvcurveto
          1 vlineto
          6 152 59 170 65 147 rrcurveto
          96 216 108 129 52 vvcurveto
          28 -20 11 -29 2 vhcurveto
          -150 -314 -266 -315 -228 hvcurveto
          28 178 62 152 63 146 rrcurveto
          13 30 5 21 16 vvcurveto
          25 -13 19 -31 -172 -226 -303 -266 -196 vhcurveto
          -259 -191 -150 -148 -155 hhcurveto
          -111 -37 71 66 36 11 37 17 25 11 callsubr
          -16 -81 -31 -73 41 -76 113 -6 vhcurveto
          111 98 55 115 112 hvcurveto
          259 252 303 547 226 hhcurveto
          17 8 -6 -20 1 hvcurveto
          -12 -4 -19 -12 -28 vhcurveto
          -68 -156 -67 -164 -25 -196 -29 -44 -29 -43 -25 -45 rrcurveto
          -23 -36 -36 -60 -52 vvcurveto
          -38 22 -39 41 81 8 102 46 vhcurveto
          18 -1 17 18 vvcurveto
          51 3 50 6 48 vhcurveto
          319 222 328 283 147 hhcurveto
          22 8 -11 -14 -16 -11 -23 -9 -14 hvcurveto
          -84 -123 -215 -379 -14 -308 rrcurveto
          -52 5 -63 49 -46 vhcurveto
          -545 115 rmoveto
          -32 -14 31 28 21 21 71 100 149 hvcurveto
          -3 -45 -2 -34 -42 -15 1 -16 -18 vvcurveto
          -47 -10 -83 -61 vhcurveto
          endchar
        </CharString>
        <CharString name="N">
          76 -43 -21 857 159 29 -20 -87 callgsubr
          endchar
        </CharString>
        <CharString name="Ntilde">
          76 -43 -21 1060 112 -87 callgsubr
          -156 185 -66 callgsubr
        </CharString>
        <CharString name="O">
          -18 callgsubr
          23 callsubr
          hintmask 10110000
          -107 callsubr
          hintmask 11010000
          -102 callsubr
          endchar
        </CharString>
        <CharString name="OE">
          878 -15 -21 498 106 -106 216 55 183 -28 28 49 -20 hstemhm
          960 217 -151 151 -18 80 -18 206 hintmask 1100110101000000
          -107 callsubr
          hintmask 1101010101000000
          -93 callsubr
          hintmask 1101010010000000
          -96 callsubr
          576 -740 rmoveto
          -85 callgsubr
          106 135 161 -20 callsubr
          hintmask 1101011001000000
          -43 callsubr
          hintmask 1101010010000000
          -79 callsubr
          -1 -179 -27 -174 -68 hvcurveto
          hintmask 1101011001000000
          -38 callgsubr
          hintmask 1101010010000000
          -36 callsubr
          hintmask 1011011001000000
          -95 callgsubr
          -69 callsubr
          endchar
        </CharString>
        <CharString name="Oacute">
          -18 callgsubr
          -28 115 124 -20 -104 callsubr
          90 263 rmoveto
          -2 22 22 -2 23 hhcurveto
          139 137 46 79 125 hvcurveto
          3 2 1 3 -65 callsubr
          -4 -84 callsubr
          hintmask 10011100
          -71 -110 -144 -51 -136 -23 -22 4 -22 25 callgsubr
          -5 -4 -54 callsubr
          hvcurveto
          endchar
        </CharString>
        <CharString name="Ocircumflex">
          -18 callgsubr
          -28 70 108 -20 -104 callsubr
          538 184 -91 callgsubr
          hintmask 10011100
          -100 -162 -140 -7 -58 hhcurveto
          -44 -27 6 0 hvcurveto
          36 callgsubr
          -53 callgsubr
          -54 callsubr
          hvcurveto
          1 28 -6 46 hhcurveto
          117 124 35 67 116 hvcurveto
          -77 5 51 -55 72 hhcurveto
          endchar
        </CharString>
        <CharString name="Odieresis">
          -18 callgsubr
          23 108 hstemhm
          786 9 callgsubr
          -30 151 hintmask 10111010
          -107 callsubr
          hintmask 11011010
          -102 callsubr
          246 267 -17 callsubr
          hintmask 11011100
          -81 callsubr
        </CharString>
        <CharString name="Ograve">
          -18 callgsubr
          -28 92 23 callsubr
          hintmask 10101000
          -107 callsubr
          hintmask 11001000
          -102 callsubr
          300 235 -58 callsubr
          hintmask 10011000
          -2 -18 -18 0 -19 hhcurveto
          -121 -130 35 127 -42 hvcurveto
          63 -19 18 -7 -16 hhcurveto
          -53 callgsubr
          -1 0 -21 9 -29 31 callgsubr
          38 138 -48 130 hhcurveto
          endchar
        </CharString>
        <CharString name="Oslash">
          106 -204 -21 958 183 -28 28 147 -20 23 callsubr
          hintmask 10111000
          -107 callsubr
          hintmask 11011000
          -102 callsubr
          -580 -951 -66 callsubr
        </CharString>
        <CharString name="Otilde">
          -18 callgsubr
          -28 82 -18 112 -104 callsubr
          443 226 -53 callsubr
          hintmask 10010100
          -76 callsubr
          vhcurveto
          hintmask 11001100
          -38 21 -29 46 vhcurveto
          86 51 93 66 hhcurveto
          68 9 -53 -16 hvcurveto
          -13 45 callgsubr
          vvcurveto
          -54 callsubr
          vhcurveto
          endchar
        </CharString>
        <CharString name="P">
          358 -97 -21 1052 -20 hstem
          407 154 vstem
          1290 818 rmoveto
          75 -34 -78 20 -77 hhcurveto
          -40 -38 -6 -10 -35 hvcurveto
          23 -75 -77 12 -73 hhcurveto
          -86 -89 -26 -45 -70 hvcurveto
          -44 54 -73 18 1 vvcurveto
          36 callgsubr
          -6 -4 -5 -5 -7 56 -21 19 -11 hvcurveto
          14 -9 14 -12 12 -14 rrcurveto
          -63 -49 -34 -81 -40 vvcurveto
          -47 24 -34 49 50 31 40 79 36 -7 58 -25 35 vhcurveto
          48 76 86 19 86 hhcurveto
          46 86 -8 -19 49 hvcurveto
          -293 -105 -203 -479 -151 -236 rrcurveto
          -98 -63 -64 -69 -89 hhcurveto
          -48 -44 26 49 -11 hvcurveto
          4 -1 -3 3 -4 hhcurveto
          -5 -5 -5 -5 0 0 -1 0 hvcurveto
          -57 16 50 -32 56 hhcurveto
          183 86 265 257 161 hvcurveto
          134 214 136 205 191 55 rrcurveto
          234 -78 11 -182 -37 vvcurveto
          -181 -179 -143 -154 -99 -104 56 77 -57 vhcurveto
          2 -2 -3 2 -3 hhcurveto
          -29 callsubr
          -5 -2 1 -2 1 -1 hvcurveto
          0 26 -36 47 -35 vhcurveto
          -47 63 69 -23 67 hhcurveto
          181 172 164 179 37 -12 170 -202 91 hvcurveto
          -6 2 -6 3 -6 2 rrcurveto
          6 29 31 3 32 hhcurveto
          65 71 -22 -62 28 hvcurveto
          -4 1 4 -2 3 -10 callsubr
          1 0 2 -1 1 hvcurveto
          -753 -39 rmoveto
          4 -23 2 -21 -17 vvcurveto
          -69 -27 -32 -37 -41 -13 30 33 33 30 75 60 48 vhcurveto
          11 -16 8 -19 3 -22 rrcurveto
          endchar
        </CharString>
        <CharString name="Q">
          159 -324 220 8 200 -18 71 724 -20 hstemhm
          27 165 584 206 hintmask 10111100
          751 -298 rmoveto
          -21 49 44 -5 30 hhcurveto
          67 91 32 88 74 -53 26 -56 -75 8 -14 -3 -5 4 -4 4 hvcurveto
          -1 17 20 9 22 hhcurveto
          42 49 -16 -65 -75 -76 -28 -64 -55 -111 18 125 -96 hvcurveto
          -42 54 -43 43 -38 32 259 118 222 269 12 235 rrcurveto
          127 -57 166 -223 -254 -274 -239 -234 -141 116 -128 173 220 111 154 122 140 -97 57 -81 -44 -44 -14 -24 -36 vhcurveto
          38 callsubr
          -3 -3 vvcurveto
          -5 4 -4 5 1 2 1 50 callgsubr
          21 32 39 14 39 hhcurveto
          78 86 -53 -126 -112 -102 -146 -211 -174 -97 132 121 81 38 89 56 69 hvcurveto
          96 117 163 94 157 3 62 1 65 -19 51 -39 rrcurveto
          67 -52 17 -76 -89 vvcurveto
          -11 -226 -221 -271 -259 -113 -77 63 -60 22 -4 2 rrcurveto
          hintmask 11011100
          21 -52 -62 17 -62 hhcurveto
          -51 -78 -19 -77 -94 143 -10 57 81 68 15 39 95 hvcurveto
          39 -33 44 -43 43 -56 50 -65 56 -37 49 -22 rrcurveto
          -701 330 rmoveto
          hintmask 10111100
          39 19 40 15 46 hhcurveto
          58 65 -16 -21 47 hvcurveto
          5 -2 53 -20 71 -56 rrcurveto
          -29 -71 -75 -20 -78 hhcurveto
          -7 -178 -5 89 9 2 9 3 8 hvcurveto
          endchar
        </CharString>
        <CharString name="R">
          309 -133 -21 627 108 317 -20 hstem
          336 155 205 40 vstem
          1220 783 rmoveto
          81 -37 -83 13 -78 hhcurveto
          -37 -34 -6 -9 -32 hvcurveto
          24 -82 -72 10 -72 hhcurveto
          -25 -119 -3 -67 -101 hvcurveto
          0 0 0 -1 vvcurveto
          56 -48 -69 17 -1 36 callgsubr
          -5 -4 -4 -4 -8 57 -22 17 -11 hvcurveto
          14 -9 14 -11 12 -14 rrcurveto
          -61 -49 -36 -82 -41 vvcurveto
          -46 29 -34 43 63 20 70 49 48 -8 44 -24 37 vhcurveto
          64 92 121 3 21 hhcurveto
          67 65 -9 -17 63 hvcurveto
          -156 -56 -118 -151 -105 -161 rrcurveto
          4 -15 -15 2 -15 hhcurveto
          -41 -38 -19 -50 -30 17 -26 21 -16 hvcurveto
          -259 -158 -77 -226 -166 hhcurveto
          -49 -41 29 46 -10 hvcurveto
          27 callsubr
          -57 13 52 -32 53 hhcurveto
          188 92 266 226 135 hvcurveto
          50 -32 77 -48 146 -17 rrcurveto
          5 -26 2 -25 -25 -64 -21 -66 -60 vvcurveto
          -67 42 -44 54 49 50 31 32 32 vhcurveto
          2 2 1 2 -41 callgsubr
          -31 -33 -42 -28 -44 hhcurveto
          -54 -24 48 46 hvcurveto
          67 22 59 64 vvcurveto
          25 -2 24 -5 24 vhcurveto
          -1 14 15 -1 14 hhcurveto
          66 71 13 36 68 hvcurveto
          176 94 11 128 61 vvcurveto
          50 -22 157 -190 74 31 callsubr
          1 -1 hhcurveto
          5 26 27 3 29 hhcurveto
          71 72 -15 -69 30 hvcurveto
          -3 1 3 -2 4 -10 callsubr
          hvcurveto
          1 -1 2 1 vvcurveto
          -747 -101 rmoveto
          -48 -3 -13 -53 -49 hhcurveto
          -33 -21 26 38 32 34 80 56 43 hvcurveto
          24 -37 5 -42 -39 vvcurveto
          -71 -260 rmoveto
          39 30 12 31 12 13 -2 -3 11 vhcurveto
          -28 -41 -22 -34 -17 -29 rrcurveto
          -19 14 -11 22 22 vvcurveto
          45 -69 rmoveto
          24 38 22 35 23 36 32 -12 34 -15 61 -72 24 -28 23 -35 14 -41 -101 13 -81 32 -75 49 rrcurveto
          498 480 rmoveto
          163 -66 38 -112 -93 vvcurveto
          -85 -30 -96 -148 -79 vhcurveto
          -35 -65 -67 -12 -64 hhcurveto
          -16 -16 1 1 -16 hvcurveto
          -30 100 -88 73 -33 22 -15 10 -16 9 -16 7 109 165 122 156 161 44 9 -3 9 -3 9 -4 rrcurveto
          endchar
        </CharString>
        <CharString name="S">
          97 -72 -21 1123 -83 callsubr
          endchar
        </CharString>
        <CharString name="Scaron">
          97 -72 -21 1105 152 26 -83 callsubr
          176 227 rmoveto
          -1 1 24 callgsubr
          hhcurveto
          4 3 32 callgsubr
          hvcurveto
          1 1 82 80 82 hhcurveto
          -67 callgsubr
          -48 -57 -26 -44 -55 hvcurveto
          93 -102 3 -5 -53 callgsubr
          -5 4 -4 5 vhcurveto
          1 1 88 -2 -76 -8 -2 -9 -9 vvcurveto
          -3 1 -2 3 -1 vhcurveto
          endchar
        </CharString>
        <CharString name="T">
          -40 -78 -21 782 206 hstem
          -77 -62 rmoveto
          -28 24 45 -9 34 hhcurveto
          106 84 92 81 66 hvcurveto
          135 164 192 300 202 183 rrcurveto
          -32 129 85 -6 53 hhcurveto
          78 140 19 102 74 -84 11 -61 -127 -114 -63 -85 -103 hvcurveto
          -67 17 -79 24 -91 33 rrcurveto
          20 -54 -49 7 -45 hhcurveto
          -163 -96 -103 0 hvcurveto
          68 callsubr
          -3 -2 vvcurveto
          -5 4 -3 4 2 3 66 callsubr
          vhcurveto
          4 7 87 93 152 hhcurveto
          43 47 -7 -19 52 hvcurveto
          86 -32 75 -23 65 -17 -229 -204 -210 -352 -135 -143 -51 -54 -59 -51 -80 -3 rrcurveto
          -51 -61 20 76 40 callsubr
          -36 -14 -30 9 -27 18 -20 vhcurveto
          1155 763 rmoveto
          -49 -81 5 29 -120 hvcurveto
          92 74 105 60 126 2 rrcurveto
          46 -1 80 -3 -64 vvcurveto
          -34 -24 -68 -175 vhcurveto
          endchar
        </CharString>
        <CharString name="U">
          2 callgsubr
          30 -20 hstem
          -104 callgsubr
          endchar
        </CharString>
        <CharString name="Uacute">
          2 callgsubr
          158 -20 hstem
          -104 callgsubr
          146 38 -100 callgsubr
        </CharString>
        <CharString name="Ucircumflex">
          2 callgsubr
          -18 90 108 -20 hstemhm
          557 237 hintmask 11011000
          -106 callsubr
          hintmask 10111000
          -61 callgsubr
          594 42 -101 callgsubr
        </CharString>
        <CharString name="Udieresis">
          2 callgsubr
          -31 108 hstemhm
          714 219 -108 9 callgsubr
          hintmask 11010100
          -104 callgsubr
          269 41 rmoveto
          hintmask 10101100
          -82 callgsubr
        </CharString>
        <CharString name="Ugrave">
          2 callgsubr
          hstem
          -104 callgsubr
          355 49 -98 callgsubr
        </CharString>
        <CharString name="V">
          304 -144 142 750 123 62 -20 hstem
          -87 -144 rmoveto
          103 4 32 58 24 52 101 -20 97 -13 122 -3 rrcurveto
          164 498 81 908 118 hvcurveto
          60 callsubr
          -5 1 vhcurveto
          -5 -5 -3 -5 hvcurveto
          -903 -118 -490 -70 -154 hhcurveto
          -80 -127 14 21 -105 hvcurveto
          38 103 96 191 100 138 145 199 77 69 76 64 rrcurveto
          -2 20 20 -1 21 hhcurveto
          32 135 -10 82 32 -20 19 -40 -43 -66 -49 -53 -64 hvcurveto
          21 -212 -93 111 -188 hhcurveto
          -84 -90 -28 -92 -102 129 -10 -1 2 hvcurveto
          5 5 3 5 60 callsubr
          -6 1 hvcurveto
          -23 -87 22 71 76 77 25 78 183 86 -104 -26 204 hvcurveto
          -74 -60 -78 -77 -136 -186 -103 -142 -96 -195 -38 -103 rrcurveto
          5 -32 -29 3 -27 hhcurveto
          -57 -84 -25 -60 hvcurveto
          -40 2 38 -17 40 hhcurveto
          -42 94 rmoveto
          28 35 50 2 18 hhcurveto
          24 27 -3 -4 29 hvcurveto
          -35 -63 -39 -33 -67 -4 rrcurveto
          -26 -34 11 29 -2 hvcurveto
          11 6 14 14 12 vhcurveto
          802 816 rmoveto
          -13 -14 0 1 -13 hvcurveto
          20 15 19 15 21 17 rrcurveto
          31 37 30 8 21 hhcurveto
          24 17 -9 -24 -19 -11 -12 -12 -6 hvcurveto
          -6 -10 -28 -11 -88 hhcurveto
          endchar
        </CharString>
        <CharString name="W">
          715 -185 109 -73 148 746 124 29 -20 hstemhm
          903 170 hintmask 10111000
          593 -134 rmoveto
          -38 1 25 -13 30 hhcurveto
          59 47 41 53 39 hvcurveto
          -2 13 19 -1 21 hhcurveto
          39 51 3 13 52 hvcurveto
          190 47 328 246 14 592 rrcurveto
          5 -4 5 -5 -53 callgsubr
          vhcurveto
          -8 -294 -84 -206 -105 -138 rrcurveto
          -221 -168 -183 -25 -108 hhcurveto
          -16 -14 1 1 -12 hvcurveto
          51 74 57 104 24 215 60 106 47 137 27 177 rrcurveto
          2 2 10 13 vvcurveto
          26 -10 18 -17 -91 -5 -222 -253 -29 vhcurveto
          -1 -3 0 -3 -3 vvcurveto
          -313 -179 -279 -29 -96 hhcurveto
          -10 -42 0 13 -150 hvcurveto
          40 105 93 182 97 134 143 199 79 69 77 64 rrcurveto
          -2 19 21 -1 21 hhcurveto
          49 118 -3 74 35 -26 18 -31 -68 -55 -61 -42 -54 hvcurveto
          21 -208 -94 111 -190 hhcurveto
          -71 -103 -22 -100 -101 124 -7 4 5 4 4 6 5 -23 callsubr
          -39 -71 23 67 85 88 19 67 180 84 -104 -26 209 hvcurveto
          -74 -58 -78 -79 -136 -187 -100 -138 -94 -186 -40 -106 rrcurveto
          hintmask 01111000
          2 -22 -24 1 -23 hhcurveto
          -63 -100 -19 -71 -34 36 -24 42 72 64 50 76 30 hvcurveto
          49 -4 55 -6 104 -3 rrcurveto
          93 273 27 289 182 hvcurveto
          -26 -186 -57 -102 -46 -64 rrcurveto
          3 -20 -26 2 -25 hhcurveto
          -38 -83 -5 -62 hvcurveto
          109 -20 rmoveto
          -6 -13 -21 -8 -19 hhcurveto
          -18 -20 8 26 50 85 -1 23 20 20 -1 -2 15 hvcurveto
          -16 -23 -27 -29 -29 -14 rrcurveto
          -750 101 rmoveto
          27 31 46 8 46 hhcurveto
          22 22 -2 -2 20 hvcurveto
          -61 -27 -51 -48 -70 hhcurveto
          -26 -32 11 28 14 8 15 11 10 hvcurveto
          1073 835 rmoveto
          5 4 7 5 7 hhcurveto
          10 2 -11 -12 hvcurveto
          -8 -1 -8 -4 vvcurveto
          -22 -155 -40 -127 -49 -99 23 215 9 142 50 57 rrcurveto
          -271 -20 rmoveto
          -14 -13 1 1 -13 hvcurveto
          30 38 52 56 58 hhcurveto
          18 20 -4 -31 3 hvcurveto
          -49 -83 -4 -66 vhcurveto
          endchar
        </CharString>
        <CharString name="X">
          128 -82 -21 930 76 hstem
          1180 845 rmoveto
          -139 -151 -106 -102 -102 hvcurveto
          -38 -38 -46 -51 -45 -61 29 70 22 66 2 70 rrcurveto
          89 -2 -35 121 -209 hhcurveto
          -196 -80 -139 -111 -106 82 -57 84 86 66 65 64 4 -4 4 67 callsubr
          -3 -4 -1 hvcurveto
          -67 -14 -49 -46 -73 hhcurveto
          -82 -65 59 85 105 74 129 184 185 43 -103 -80 -179 -150 -219 -110 -129 hvcurveto
          -40 -46 -49 -38 -50 -34 rrcurveto
          -55 -81 -109 -53 -120 hhcurveto
          -103 -149 38 126 180 181 36 117 -50 callsubr
          11 -20 -3 -10 -140 -156 -69 -160 -150 166 -36 105 hvcurveto
          259 202 232 2 hhcurveto
          32 37 28 35 25 34 rrcurveto
          -23 -56 -21 -55 -66 vvcurveto
          -115 74 -80 107 99 94 67 110 62 -33 58 -76 -38 -38 -18 -28 -22 vhcurveto
          42 callsubr
          -2 vvcurveto
          -4 3 54 callgsubr
          2 vhcurveto
          26 21 32 12 31 hhcurveto
          68 23 -48 -51 -106 -91 -55 -84 -99 -65 74 102 20 2 22 4 17 hvcurveto
          52 207 141 168 96 100 rrcurveto
          108 108 146 94 125 hhcurveto
          81 63 -36 -80 -14 -2 -11 0 hvcurveto
          -5 60 callsubr
          7 4 -2 35 98 -76 36 -86 vhcurveto
          endchar
        </CharString>
        <CharString name="Y">
          33 callgsubr
          30 -94 callgsubr
          endchar
        </CharString>
        <CharString name="Yacute">
          33 callgsubr
          150 -94 callgsubr
          996 927 -100 callgsubr
        </CharString>
        <CharString name="Ydieresis">
          33 callgsubr
          12 97 hstemhm
          1 119 -18 187 715 9 callgsubr
          hintmask 11101110
          -97 callsubr
          hintmask 11110110
          -86 callsubr
          hintmask 11101110
          -7 callgsubr
          1093 970 -76 callgsubr
        </CharString>
        <CharString name="Z">
          46 callgsubr
          4 -20 hstemhm
          hintmask 11100000
          -3 callsubr
          hintmask 11010000
          -77 callsubr
          hintmask 11100000
          -48 callsubr
          endchar
        </CharString>
        <CharString name="Zcaron">
          46 callgsubr
          111 -20 hstem
          -3 callsubr
          -77 callsubr
          -48 callsubr
          -441 75 rmoveto
          -1 1 24 callgsubr
          hhcurveto
          4 3 32 callgsubr
          hvcurveto
          1 1 82 80 82 hhcurveto
          -67 callgsubr
          -48 -57 -26 -44 -55 hvcurveto
          93 -102 3 -5 -53 callgsubr
          -5 4 -4 5 vhcurveto
          1 1 88 -2 -76 -8 -2 -9 -9 vvcurveto
          -3 1 -2 3 -1 vhcurveto
          endchar
        </CharString>
        <CharString name="a">
          42 0 -20 23 -21 539 -20 -77 callgsubr
          endchar
        </CharString>
        <CharString name="aacute">
          1 callgsubr
          80 124 -20 hstemhm
          hintmask 01110000
          -106 callgsubr
          hintmask 10110000
          -96 callgsubr
          179 569 -100 callgsubr
        </CharString>
        <CharString name="acircumflex">
          1 callgsubr
          75 108 -20 hstemhm
          651 33 hintmask 01111000
          -106 callgsubr
          hintmask 10111000
          -96 callgsubr
          683 530 -101 callgsubr
        </CharString>
        <CharString name="acute">
          -340 826 -21 142 -20 hstem
          21 809 -100 callgsubr
        </CharString>
        <CharString name="adieresis">
          1 callgsubr
          173 48 callsubr
          395 114 54 88 -88 108 hintmask 01101100
          -106 callgsubr
          hintmask 10101100
          -96 callgsubr
          380 622 18 callsubr
          hintmask 01011010
          -35 callsubr
        </CharString>
        <CharString name="ae">
          751 -18 31 -13 -20 576 -20 hstemhm
          hintmask 10100000
          -106 callgsubr
          hintmask 01100000
          -96 callgsubr
          hintmask 10100000
          807 -94 callsubr
          -18 40 93 -43 117 -45 callgsubr
          -129 -78 -118 -110 -69 callgsubr
          -49 17 -44 47 -25 vhcurveto
          55 338 15 callgsubr
          hvcurveto
          -87 1 -78 24 -44 20 rrcurveto
          endchar
        </CharString>
        <CharString name="agrave">
          1 callgsubr
          95 -77 callgsubr
          481 579 -98 callgsubr
        </CharString>
        <CharString name="ampersand">
          318 -119 -21 1060 -20 hstem
          385 -140 rmoveto
          61 59 12 22 57 hvcurveto
          -19 29 36 -9 48 hhcurveto
          81 77 36 55 62 hvcurveto
          54 48 28 48 2 2 rrcurveto
          56 callgsubr
          1 vvcurveto
          6 60 callgsubr
          5 -3 -94 -185 -191 hhcurveto
          -38 -31 6 13 -23 hvcurveto
          62 23 67 52 54 55 84 85 42 84 2 4 rrcurveto
          1 1 1 1 vvcurveto
          6 -4 4 -5 -15 callsubr
          -3 -3 -97 -208 -214 -88 rrcurveto
          -29 24 -14 35 49 vvcurveto
          70 30 96 57 122 vhcurveto
          51 109 68 115 61 98 rrcurveto
          233 66 109 60 88 vvcurveto
          38 -26 35 -54 -72 -72 -60 -212 -129 vhcurveto
          -234 -62 -305 -71 -102 -275 rrcurveto
          -17 -45 -8 -45 -42 vvcurveto
          -171 127 -77 147 vhcurveto
          377 765 rmoveto
          -58 -94 -63 -108 -49 -104 rrcurveto
          -59 -125 -30 -96 -74 vvcurveto
          -52 15 -38 27 -27 vhcurveto
          -18 -47 -54 -11 -59 hhcurveto
          -156 -100 85 145 41 8 42 16 43 hvcurveto
          95 251 261 77 253 63 rrcurveto
          247 268 rmoveto
          5 11 15 3 15 hhcurveto
          28 34 -14 -40 -48 -37 -65 -272 -78 hvcurveto
          103 168 56 47 47 22 rrcurveto
          endchar
        </CharString>
        <CharString name="aring">
          1 callgsubr
          68 -18 242 hstemhm
          489 162 -17 97 hintmask 01101000
          -106 callgsubr
          hintmask 10100100
          -96 callgsubr
          hintmask 01010100
          481 553 28 callgsubr
          hvcurveto
          hintmask 01011000
          -5 callsubr
          hvcurveto
          hintmask 01100100
          11 callgsubr
          vhcurveto
          endchar
        </CharString>
        <CharString name="asciicircum">
          -37 578 -21 306 -20 hstem
          740 557 rmoveto
          4 4 3 4 1 hvcurveto
          5 -3 5 -5 1 vhcurveto
          -46 6 -17 41 52 81 39 90 9 vvcurveto
          5 -5 4 -18 callsubr
          -163 -126 -163 -71 -107 -37 rrcurveto
          -193 -67 -12 25 -19 vvcurveto
          -5 4 -4 4 vhcurveto
          -17 -1 71 2 148 52 146 51 138 73 131 95 rrcurveto
          -12 -36 -17 -61 -56 vvcurveto
          -58 24 -61 56 vhcurveto
          endchar
        </CharString>
        <CharString name="asciitilde">
          -404 -46 callgsubr
        </CharString>
        <CharString name="asterisk">
          -414 544 -21 40 170 -70 70 -70 168 42 -20 hstemhm
          90 169 -70 70 -70 170 hintmask 11001001
          399 699 rmoveto
          23 -1 -18 11 -23 hhcurveto
          -27 -48 -24 -5 -42 hvcurveto
          47 39 72 13 42 vvcurveto
          8 -3 7 -6 7 vhcurveto
          -3 3 rlineto
          hintmask 10011010
          6 -7 -8 2 -7 hhcurveto
          -43 -14 -72 -45 -37 hvcurveto
          4 42 24 48 27 vvcurveto
          24 -12 18 -24 vhcurveto
          -23 -2 -11 -18 -22 vvcurveto
          -27 23 -49 6 -41 vhcurveto
          44 -39 -12 73 -43 hhcurveto
          -8 -7 -2 -6 -7 hvcurveto
          -3 -3 rlineto
          hintmask 10101100
          -6 -7 -3 -8 -7 vvcurveto
          -44 74 -11 44 -39 vhcurveto
          6 -41 -49 23 -27 hhcurveto
          -23 -19 -12 -25 hvcurveto
          -22 2 17 -11 23 hhcurveto
          27 48 24 4 42 hvcurveto
          -46 -38 -72 -13 -45 vvcurveto
          hintmask 11001010
          -16 16 -16 17 43 12 72 47 40 vhcurveto
          -6 -43 -23 -47 -27 vvcurveto
          -23 11 -18 23 -1 vhcurveto
          3 hlineto
          22 1 11 18 23 vvcurveto
          28 -24 46 -4 43 vhcurveto
          -48 37 15 -70 42 hhcurveto
          7 8 3 6 7 hvcurveto
          2 2 rlineto
          6 7 3 7 8 vvcurveto
          42 -70 14 -48 38 vhcurveto
          hintmask 10101100
          -4 43 46 -24 28 hhcurveto
          23 18 11 22 1 hvcurveto
          endchar
        </CharString>
        <CharString name="at">
          298 -50 207 -18 34 428 166 hstemhm
          48 241 hintmask 10110000
          121 424 rmoveto
          -51 -72 -22 -69 -61 vvcurveto
          -161 154 -111 206 159 193 62 113 118 vhcurveto
          1 1 0 callgsubr
          5 -4 5 -5 -2 38 callsubr
          -2 vhcurveto
          -101 -86 -109 -59 -196 -21 rrcurveto
          -2 -18 -18 -1 -18 hhcurveto
          -178 -159 98 157 226 361 300 338 165 165 -84 -128 -32 -9 -35 -21 -39 hvcurveto
          hintmask 01110000
          -87 -46 -168 -171 -124 hhcurveto
          -56 -4 25 5 hvcurveto
          24 callgsubr
          2 vvcurveto
          20 22 47 126 93 vhcurveto
          118 88 46 20 7 vvcurveto
          4 -4 5 -4 -2 -2 -1 14 callsubr
          -1 -81 -49 -58 -79 hvcurveto
          -4 -3 rlineto
          52 55 26 48 41 vvcurveto
          74 -84 22 -60 -124 -119 -70 -81 -96 vhcurveto
          -84 -71 -42 -67 -59 vvcurveto
          -78 67 -54 77 100 93 74 62 77 vhcurveto
          -24 -27 -12 -22 -19 vvcurveto
          -29 28 -23 49 131 170 165 102 54 vhcurveto
          22 42 11 38 35 vvcurveto
          126 -153 104 -197 -240 -270 -152 -191 -133 vhcurveto
          hintmask 10110000
          294 -267 rmoveto
          -61 -65 41 74 71 67 66 53 45 hvcurveto
          94 110 119 53 98 hhcurveto
          44 82 -12 -68 -38 -30 -62 -116 -97 hvcurveto
          -75 -90 -111 -92 -100 hhcurveto
          endchar
        </CharString>
        <CharString name="atilde">
          1 callgsubr
          91 65 callgsubr
          651 132 hintmask 01101000
          -106 callgsubr
          hintmask 10101000
          -96 callgsubr
          hintmask 01011000
          660 576 -53 callsubr
          hintmask 01101000
          -76 callsubr
          vhcurveto
          hintmask 01011000
          -38 21 -29 46 vhcurveto
          86 51 93 66 hhcurveto
          68 9 -53 -16 hvcurveto
          -13 45 callgsubr
          vvcurveto
          -54 callsubr
          vhcurveto
          endchar
        </CharString>
        <CharString name="b">
          -163 0 -20 24 -21 247 215 573 -20 hstemhm
          405 106 hintmask 01111000
          69 9 rmoveto
          -18 29 34 -8 35 hhcurveto
          22 233 18 250 74 hvcurveto
          -14 25 31 -7 32 hhcurveto
          57 50 20 46 53 hvcurveto
          2 2 1 2 3 vvcurveto
          5 -5 4 -4 -84 callsubr
          -36 -42 -55 -26 -54 hhcurveto
          -28 -27 7 14 -25 -1 callsubr
          -8 7 -73 68 -43 vhcurveto
          -18 -63 -33 -48 -29 -32 rrcurveto
          hintmask 10111000
          -102 -92 -95 -16 -49 -52 callsubr
          vhcurveto
          -22 -1 -39 -19 -50 -46 19 callgsubr
          rrcurveto
          -145 -191 -77 -149 -99 vvcurveto
          -13 1 -13 3 -11 vhcurveto
          1 -6 11 -66 58 -36 rrcurveto
          576 993 -55 callsubr
          41 45 33 23 22 -7 callsubr
          -53 36 -8 55 13 53 callsubr
          endchar
        </CharString>
        <CharString name="backslash">
          -361 -206 -21 1253 -20 hstem
          327 -227 rmoveto
          -50 callsubr
          hvcurveto
          -9 callgsubr
          vvcurveto
          -234 1235 rlineto
          27 callsubr
          234 -1235 rlineto
          -4 1 4 -3 4 hhcurveto
          endchar
        </CharString>
        <CharString name="bar">
          -204 19 callsubr
          40 -225 -66 callsubr
        </CharString>
        <CharString name="br">
          472 -12 -21 33 -20 1038 -20 hstemhm
          405 106 333 237 hintmask 10111000
          888 489 rmoveto
          -37 callgsubr
          hvcurveto
          -52 -219 -220 -117 vvcurveto
          -48 29 -33 56 78 141 61 83 134 vhcurveto
          -47 callgsubr
          121 219 214 57 vvcurveto
          42 -63 -1 -11 vhcurveto
          -23 1 -56 7 -32 18 rrcurveto
          -68 callsubr
          -118 -49 -83 -130 -144 hhcurveto
          -29 -32 5 12 -34 -1 callsubr
          -17 12 -67 63 -40 vhcurveto
          hintmask 01111000
          -49 callgsubr
          25 callsubr
          34 48 19 64 rrcurveto
          -12 35 33 -6 31 hhcurveto
          142 97 120 136 54 hvcurveto
          -243 513 -40 callsubr
          -57 40 -4 61 3 53 callsubr
          405 136 -51 callsubr
        </CharString>
        <CharString name="braceleft">
          -405 -155 -21 1172 -20 hstem
          129 -175 rmoveto
          0 39 callsubr
          3 5 2 6 4 -23 callsubr
          2 vhcurveto
          -38 17 -15 38 32 vvcurveto
          54 35 32 32 26 vhcurveto
          96 79 88 68 121 vvcurveto
          59 -35 38 -38 22 vhcurveto
          103 31 73 81 26 132 rrcurveto
          192 38 106 115 145 hhcurveto
          -67 callgsubr
          -48 -70 -13 -59 -65 hvcurveto
          -61 -56 -42 -84 -21 -109 -18 -92 -42 -70 -61 -40 -78 -51 -15 31 -4 -21 rrcurveto
          -4 2 -4 4 -1 vhcurveto
          1 -1 82 -41 -61 vvcurveto
          -100 -33 -50 -145 -116 vhcurveto
          -41 -33 -33 -31 -64 vvcurveto
          -37 19 -47 49 -17 vhcurveto
          endchar
        </CharString>
        <CharString name="braceright">
          -156 -125 -21 1172 -20 hstem
          572 1025 rmoveto
          0 45 callsubr
          -2 -6 -2 -6 -4 60 callsubr
          -2 vhcurveto
          38 -17 15 -38 -32 vvcurveto
          -54 -35 -32 -32 -26 vhcurveto
          -96 -80 -88 -68 -120 vvcurveto
          -59 34 -38 39 -22 vhcurveto
          -103 -31 -73 -81 -26 -132 rrcurveto
          -192 -38 -107 -115 -144 hhcurveto
          -53 callgsubr
          -5 4 -4 5 48 70 13 59 65 hvcurveto
          61 56 42 84 21 109 18 92 42 70 61 40 78 51 15 -31 4 21 rrcurveto
          4 -2 4 -4 1 vhcurveto
          -1 1 -82 41 61 vvcurveto
          100 32 49 146 117 vhcurveto
          41 33 33 31 64 vvcurveto
          37 -19 47 -49 17 vhcurveto
          endchar
        </CharString>
        <CharString name="bracketleft">
          -317 -209 -21 1154 -20 hstem
          196 -230 -63 callsubr
          hvcurveto
          -148 hlineto
          725 1118 rlineto
          138 hlineto
          -67 callgsubr
          hvcurveto
          -142 hlineto
          -4 -2 -2 -2 -2 hvcurveto
          -737 -1136 -10 callgsubr
          14 callgsubr
          6 vhcurveto
          164 hlineto
          endchar
        </CharString>
        <CharString name="bracketright">
          -180 -21 1154 -20 hstem
          15 -201 rmoveto
          48 callgsubr
          hvcurveto
          737 1136 rlineto
          56 callgsubr
          1 vvcurveto
          5 38 callgsubr
          vhcurveto
          -164 hlineto
          -53 callgsubr
          -5 4 -4 5 61 callsubr
          hlineto
          -725 -1118 rlineto
          -138 hlineto
          -53 callgsubr
          -5 4 -4 5 62 callgsubr
          hlineto
          endchar
        </CharString>
        <CharString name="breve">
          -421 797 128 hstem
          192 797 rmoveto
          48 45 20 38 35 hvcurveto
          27 28 13 27 2 43 callsubr
          vvcurveto
          4 -4 5 -5 vhcurveto
          -14 -1 14 -10 -45 -47 rrcurveto
          -34 -32 -39 -18 -44 hhcurveto
          -95 -17 65 29 4 0 2 0 hvcurveto
          5 -4 5 -6 -7 -1 -6 -10 -37 24 -75 106 vhcurveto
          endchar
        </CharString>
        <CharString name="bt">
          -2079 0 -20 24 -21 259 203 635 -20 hstemhm
          -849 106 hintmask 01111000
          -254 504 rmoveto
          67 callgsubr
          -92 -173 -92 callsubr
          49 -5 138 -5 31 -2 rrcurveto
          -236 -277 -87 -35 -89 hhcurveto
          -29 -19 5 5 -7 -1 callsubr
          -46 36 -54 39 -24 vhcurveto
          hintmask 10111000
          -49 callgsubr
          hintmask 01111000
          25 callsubr
          35 50 19 64 rrcurveto
          -4 5 21 -7 33 hhcurveto
          45 65 13 51 78 hvcurveto
          88 58 56 42 112 98 rrcurveto
          56 75 -43 callgsubr
          -411 423 -40 callsubr
          -32 24 -29 40 40 53 callsubr
          endchar
        </CharString>
        <CharString name="bullet">
          -559 218 191 hstem
          51 191 vstem
          242 313 rmoveto
          54 -44 42 -52 -53 -42 -42 -54 -53 42 -42 53 52 44 42 53 vhcurveto
          endchar
        </CharString>
        <CharString name="c">
          -139 16 -21 22 -21 505 -20 hstemhm
          hintmask 10100000
          162 -5 rmoveto
          hintmask 01100000
          19 13 1 3 hhcurveto
          6 67 4 23 90 hvcurveto
          126 32 121 67 102 84 rrcurveto
          13 callsubr
          -85 callsubr
          -125 -105 -130 -52 -86 -22 rrcurveto
          -23 -90 -69 -4 -1 -1 -13 -1 -19 hhcurveto
          -59 -112 11 91 54 37 74 63 71 hvcurveto
          107 96 124 62 94 hhcurveto
          50 25 -23 -34 hvcurveto
          -17 -10 -16 -9 vvcurveto
          -5 3 -3 6 11 8 29 22 42 -31 32 -60 -21 -26 -3 -7 -29 vhcurveto
          -160 -37 -199 -206 -133 vvcurveto
          hintmask 10100000
          -75 67 -45 122 vhcurveto
          endchar
        </CharString>
        <CharString name="caron">
          -511 792 -21 128 -20 hstem
          127 772 rmoveto
          -1 1 24 callgsubr
          hhcurveto
          4 3 32 callgsubr
          hvcurveto
          1 1 82 80 82 hhcurveto
          -67 callgsubr
          -48 -57 -26 -44 -55 hvcurveto
          93 -102 3 -5 -53 callgsubr
          -5 4 -4 5 vhcurveto
          1 1 88 -2 -76 -8 -2 -9 -9 vvcurveto
          -3 1 -2 3 -1 vhcurveto
          endchar
        </CharString>
        <CharString name="ccedilla">
          -139 -220 233 488 -20 hstem
          -27 238 vstem
          162 -5 rmoveto
          19 13 1 3 hhcurveto
          6 67 4 23 90 hvcurveto
          126 32 121 67 102 84 rrcurveto
          13 callsubr
          -85 callsubr
          -125 -105 -130 -52 -86 -22 rrcurveto
          -23 -90 -69 -4 -1 -1 -13 -1 -19 hhcurveto
          -59 -112 11 91 54 37 74 63 71 hvcurveto
          107 96 124 62 94 hhcurveto
          50 25 -23 -34 hvcurveto
          -17 -10 -16 -9 vvcurveto
          -5 3 -3 6 11 8 29 22 42 -31 32 -60 -21 -26 -3 -7 -29 vhcurveto
          -160 -37 -199 -206 -133 vvcurveto
          -75 67 -45 122 vhcurveto
          -164 -196 rmoveto
          -14 39 31 -5 26 hhcurveto
          88 29 65 26 44 -54 16 -28 5 hvcurveto
          47 59 rlineto
          1 2 0 callgsubr
          56 callsubr
          20 callgsubr
          -57 -70 21 callgsubr
          -16 90 4 -46 vvcurveto
          -43 -54 -32 -46 -26 -29 6 12 -34 31 callsubr
          1 -2 25 callgsubr
          -4 -6 -3 2 -3 4 -1 hvcurveto
          endchar
        </CharString>
        <CharString name="cedilla">
          -575 -202 -21 229 -20 hstem
          26 -204 rmoveto
          -14 39 31 -5 26 hhcurveto
          88 29 65 26 44 -54 16 -28 5 hvcurveto
          47 59 rlineto
          1 2 0 callgsubr
          56 callsubr
          20 callgsubr
          -57 -70 21 callgsubr
          -16 90 4 -46 vvcurveto
          -43 -54 -32 -46 -26 -29 6 12 -34 31 callsubr
          1 -2 25 callgsubr
          -4 -6 -3 2 -3 4 -1 hvcurveto
          endchar
        </CharString>
        <CharString name="cent">
          -26 -232 19 callsubr
          239 -53 rmoveto
          203 72 147 8 4 hvcurveto
          1 1 1 1 vvcurveto
          5 -5 4 -5 -15 callsubr
          2 -52 -146 -210 vhcurveto
          -12 1 -12 -1 -13 2 -21 3 rcurveline
          541 845 rlineto
          53 -7 27 -25 -40 vvcurveto
          -52 -43 -62 14 callsubr
          -1 -2 -1 -1 -2 vvcurveto
          -4 4 54 callgsubr
          2 vhcurveto
          2 3 45 64 58 vvcurveto
          47 -31 31 -57 10 vhcurveto
          122 190 rlineto
          1 1 0 callgsubr
          4 -4 5 -5 2 callsubr
          -127 -197 rlineto
          1 -9 -10 0 -11 hhcurveto
          -217 -299 -271 -309 -89 hvcurveto
          -5 -18 -12 -46 -55 vvcurveto
          -89 29 -65 63 -22 vhcurveto
          -127 -199 rlineto
          5 callsubr
          -2 vvcurveto
          -5 -61 callsubr
          48 callgsubr
          vhcurveto
          130 203 rlineto
          -6 18 29 -1 21 hhcurveto
          445 870 rmoveto
          6 6 0 -1 5 hvcurveto
          -539 -841 rlineto
          -64 25 -21 67 67 vvcurveto
          44 9 43 8 28 vhcurveto
          93 320 297 246 198 2 rrcurveto
          endchar
        </CharString>
        <CharString name="circumflex">
          -140 780 -21 156 -20 hstem
          630 759 -101 callgsubr
        </CharString>
        <CharString name="colon">
          -521 47 113 160 113 hstemhm
          118 113 -48 113 hintmask 11100000
          231 103 -47 callsubr
          hintmask 11010000
          65 273 -47 callsubr
          endchar
        </CharString>
        <CharString name="comma">
          -642 -32 -21 49 113 hstem
          69 66 callgsubr
          182 52 -26 callsubr
        </CharString>
        <CharString name="d">
          39 5 -21 910 -20 hstem
          1107 862 rmoveto
          1 -9 31 -30 -11 -13 -6 -10 -14 vhcurveto
          -49 -36 -169 -211 -174 -255 rrcurveto
          6 17 3 17 15 vvcurveto
          85 -102 14 -56 -115 -131 -59 -112 -131 vhcurveto
          -95 -81 -47 -75 -67 vvcurveto
          -94 83 -52 83 121 140 93 173 158 vhcurveto
          -31 -48 -29 -49 -25 -46 rrcurveto
          -1 -2 -14 -26 -27 vvcurveto
          -45 41 -6 24 180 199 207 7 56 callsubr
          -6 -5 -15 -69 -90 vhcurveto
          -49 -64 -115 -72 -91 hhcurveto
          -41 -5 19 16 17 8 20 5 9 hvcurveto
          44 81 58 91 57 83 rrcurveto
          224 200 239 200 94 vvcurveto
          5 0 5 -1 4 vhcurveto
          -636 -672 rmoveto
          -81 -87 -128 -108 -119 hhcurveto
          -84 -65 52 78 84 80 77 56 47 hvcurveto
          109 129 124 58 112 hhcurveto
          54 87 -11 -70 -43 -32 -72 -127 -120 hvcurveto
          523 508 rmoveto
          -78 -83 -114 -96 -113 -101 173 245 147 175 31 25 rrcurveto
          9 11 10 4 8 hhcurveto
          15 7 -13 -14 -33 -32 -49 -65 -69 hvcurveto
          endchar
        </CharString>
        <CharString name="dieresis">
          -479 788 108 hstem
          44 9 callgsubr
          vstem
          152 842 -76 callgsubr
        </CharString>
        <CharString name="dollar">
          105 -167 19 callsubr
          536 61 335 20 vstem
          241 -94 rmoveto
          123 111 52 118 62 hvcurveto
          40 77 20 78 85 131 -42 112 131 vvcurveto
          212 124 97 106 84 63 -59 -71 -117 -132 -58 -13 vhcurveto
          -4 -2 -2 -3 -3 vvcurveto
          -6 -61 callsubr
          1 42 callgsubr
          vhcurveto
          12 3 147 51 137 vvcurveto
          86 -77 63 -95 -112 -132 -104 -220 vhcurveto
          -133 43 -118 -125 vvcurveto
          -73 -14 -76 -44 -84 vhcurveto
          -119 -62 -114 -41 -91 hhcurveto
          -125 -84 72 94 35 13 34 25 34 hvcurveto
          50 68 25 -6 12 vvcurveto
          5 -5 4 -5 -29 callgsubr
          -9 -5 -108 -80 -101 vvcurveto
          -120 111 -61 103 -2 vhcurveto
          -134 -92 rmoveto
          -1 1 2 -1 3 hhcurveto
          2 22 callsubr
          2 hvcurveto
          813 1270 rlineto
          1 1 1 3 2 vvcurveto
          5 60 callgsubr
          -813 -1270 64 callgsubr
          -1 vvcurveto
          -3 1 -3 3 -1 vhcurveto
          endchar
        </CharString>
        <CharString name="dotlessi">
          44 callgsubr
          530 -20 hstem
          -97 callgsubr
          endchar
        </CharString>
        <CharString name="e">
          -143 10 -21 567 -20 hstem
          -103 callsubr
          endchar
        </CharString>
        <CharString name="eacute">
          34 callgsubr
          83 124 -20 hstem
          -103 callsubr
          117 269 -100 callgsubr
        </CharString>
        <CharString name="ecircumflex">
          34 callgsubr
          72 108 -20 hstem
          -103 callsubr
          605 224 -101 callgsubr
        </CharString>
        <CharString name="edieresis">
          34 callgsubr
          161 48 callsubr
          319 108 54 101 hintmask 11011000
          -103 callsubr
          304 307 18 callsubr
          hintmask 10111000
          -35 callsubr
        </CharString>
        <CharString name="egrave">
          34 callgsubr
          94 hstem
          -103 callsubr
          410 275 -98 callgsubr
        </CharString>
        <CharString name="eight">
          155 -123 20 998 20 116 -20 hstem
          7 20 477 20 106 20 203 20 33 20 vstem
          225 -123 rmoveto
          61 73 21 36 65 hvcurveto
          161 88 65 159 117 vvcurveto
          85 -32 69 -32 65 vhcurveto
          95 35 92 41 44 61 rrcurveto
          36 50 20 57 59 vvcurveto
          20 -30 13 -37 -48 vvcurveto
          -13 -1 -14 -2 -15 vhcurveto
          -6 3 -6 7 14 -1 37 17 59 -18 49 -36 40 vhcurveto
          -11 97 -53 75 -1 2 rrcurveto
          2 -3 -3 2 -3 hhcurveto
          -6 -4 -6 -4 -2 1 -2 2 -2 hvcurveto
          0 42 -62 16 -79 vhcurveto
          26 -36 -44 15 -46 hhcurveto
          -126 -93 -110 -108 -59 26 -54 28 -56 hvcurveto
          -54 -17 -80 -19 -99 -45 -214 -98 -79 -191 -8 -20 rrcurveto
          -1 -5 -16 -40 -47 vvcurveto
          -112 78 -57 140 vhcurveto
          342 633 rmoveto
          31 -62 32 -68 -82 vvcurveto
          -59 -17 -66 -45 -79 vhcurveto
          -122 -70 -163 -75 -110 hhcurveto
          -133 -65 55 93 hvcurveto
          46 16 39 1 vvcurveto
          1 vlineto
          7 -3 32 184 252 116 99 46 81 15 53 20 rrcurveto
          156 385 rmoveto
          45 48 -15 -36 36 hvcurveto
          -8 1 -7 -7 vvcurveto
          -57 -18 -51 -34 -48 vhcurveto
          -42 -58 -90 -39 -92 -34 rrcurveto
          -28 56 -25 51 55 vvcurveto
          130 114 68 85 vhcurveto
          endchar
        </CharString>
        <CharString name="equal">
          234 227 hstem
          774 443 -58 callgsubr
          482 -209 -58 callgsubr
          endchar
        </CharString>
        <CharString name="er">
          451 -12 -21 632 -20 hstem
          863 237 vstem
          943 -33 rmoveto
          78 141 58 86 139 hvcurveto
          -47 callgsubr
          124 219 207 61 -19 callgsubr
          -130 -212 -142 -138 -231 -90 rrcurveto
          -15 -39 -98 -28 -85 hhcurveto
          -110 -51 50 75 -4 callsubr
          32 -14 rlineto
          -20 46 81 -27 91 -80 callsubr
          -88 61 -55 124 78 87 20 22 57 vhcurveto
          217 82 162 137 134 230 6 10 rcurveline
          -8 callsubr
          -843 384 -63 callgsubr
          756 225 -51 callsubr
        </CharString>
        <CharString name="et">
          509 4 -21 1097 -20 hstem
          1033 499 rmoveto
          67 callgsubr
          -89 -168 -92 callsubr
          -5 49 138 -7 31 hhcurveto
          -58 -42 -267 -226 -14 -12 -128 -108 -92 -50 -108 -43 rrcurveto
          -16 -39 -97 -27 -85 hhcurveto
          -110 -52 49 76 -4 callsubr
          -18 40 93 -43 117 -45 callgsubr
          -129 -78 -118 -110 -69 callgsubr
          -85 58 -57 122 5 callgsubr
          vhcurveto
          -34 callsubr
          131 111 143 119 41 33 rrcurveto
          -937 -148 15 callgsubr
          -87 -77 27 18 -45 hvcurveto
          969 240 -43 callgsubr
          endchar
        </CharString>
        <CharString name="exclam">
          -223 -10 113 770 -20 hstem
          77 66 callgsubr
          200 174 rmoveto
          4 3 3 3 2 hvcurveto
          68 167 112 175 81 118 88 128 73 89 -48 callgsubr
          -2 -1 -2 -2 31 callsubr
          -73 -90 -89 -129 -82 -118 -112 -177 -69 -168 rrcurveto
          -14 callgsubr
          14 callgsubr
          5 vhcurveto
          -10 -128 -47 callsubr
          endchar
        </CharString>
        <CharString name="exclamdown">
          -223 -221 -21 770 113 hstem
          471 66 callgsubr
          461 457 rmoveto
          -4 -3 -3 -3 -2 hvcurveto
          -68 -167 -112 -175 -81 -118 -88 -128 -73 -89 -1 -1 rrcurveto
          42 callsubr
          -2 vvcurveto
          -5 4 -4 5 2 3 66 callsubr
          vhcurveto
          1 1 73 90 89 129 82 118 112 177 69 168 rrcurveto
          43 callsubr
          vvcurveto
          4 -4 5 -5 vhcurveto
          10 128 15 callsubr
        </CharString>
        <CharString name="f">
          -335 -554 -21 1587 -20 hstem
          -99 callgsubr
          endchar
        </CharString>
        <CharString name="fi">
          96 -554 -21 1185 97 305 -20 hstem
          778 97 vstem
          -99 callgsubr
          -101 -964 rmoveto
          135 150 105 101 119 hvcurveto
          -88 callsubr
          -100 -115 -161 -102 -116 hhcurveto
          -35 -41 4 48 74 82 111 47 67 hvcurveto
          72 102 77 90 -48 callgsubr
          -3 59 callsubr
          31 callsubr
          -77 -91 -72 -103 rrcurveto
          -50 -71 -83 -112 -79 vvcurveto
          -62 48 -8 46 vhcurveto
          334 655 rmoveto
          26 -22 22 -26 -27 -22 -22 -26 -27 22 -22 27 26 22 22 27 vhcurveto
          endchar
        </CharString>
        <CharString name="five">
          12 -54 20 695 20 169 20 6 20 14 -20 hstemhm
          721 21 hintmask 11110100
          264 -54 rmoveto
          259 174 360 0 hvcurveto
          1 3 44 100 79 vvcurveto
          95 -60 98 -130 -56 -70 -27 -44 -69 vhcurveto
          193 249 rlineto
          1 8 16 26 8 9 -1 -4 11 vhcurveto
          -14 43 48 -7 53 hhcurveto
          34 37 3 6 38 hvcurveto
          145 24 -15 14 3 vvcurveto
          hintmask 11101100
          5 -6 5 -5 vhcurveto
          -8 -95 -40 -127 hhcurveto
          -43 -47 5 15 -45 hvcurveto
          hintmask 11110100
          4 -13 -12 2 -9 hhcurveto
          -37 -12 -23 -4 -3 hvcurveto
          -236 -304 15 -13 rlineto
          1 1 126 108 111 hhcurveto
          118 53 -86 -88 -91 -43 -79 1 -2 hvcurveto
          -1 -2 -66 -136 -104 -98 rrcurveto
          -49 -52 -87 -64 -105 hhcurveto
          -45 -49 12 30 -50 hvcurveto
          1 -53 32 65 vvcurveto
          52 31 57 61 63 vhcurveto
          2 2 1 2 3 vvcurveto
          5 -5 5 -5 20 callgsubr
          -65 -67 -32 -61 -57 vvcurveto
          -77 59 -38 3 -1 vhcurveto
          -30 49 52 -15 53 hhcurveto
          endchar
        </CharString>
        <CharString name="fl">
          190 -554 -21 1564 23 hstem
          -99 callgsubr
          -83 -977 rmoveto
          21 26 2 8 27 hvcurveto
          171 49 107 65 133 101 rrcurveto
          13 callsubr
          -85 callsubr
          -130 -100 -106 -61 -167 -50 rrcurveto
          -7 -22 -23 -4 -21 hhcurveto
          -52 -40 26 53 25 8 22 0 hvcurveto
          14 37 17 38 19 39 328 224 128 106 120 165 rrcurveto
          40 55 47 78 57 vvcurveto
          41 -26 33 -44 -16 -15 -4 -8 -19 vhcurveto
          -77 -32 -116 -130 -4 vvcurveto
          -1 -1 -79 -101 -89 -135 -82 -125 -116 -184 -50 -142 rrcurveto
          -1 -2 -8 -24 -28 vvcurveto
          -49 30 -47 76 vhcurveto
          334 827 rmoveto
          2 2 135 169 91 hhcurveto
          32 21 -22 -33 -41 -29 -64 -54 -75 hvcurveto
          -117 -160 -117 -98 -311 -215 140 272 199 257 8 8 rrcurveto
          endchar
        </CharString>
        <CharString name="four">
          -23 -4 -21 434 21 534 -20 hstem
          299 -25 rmoveto
          18 callgsubr
          2 hvcurveto
          320 408 94 -24 59 -31 27 -51 rlinecurve
          -4 1 3 -2 4 hhcurveto
          6 4 6 5 2 0 1 -1 2 hvcurveto
          -31 58 -57 24 -96 32 427 545 rcurveline
          -14 14 -1 -1 -141 -113 -189 -124 rlinecurve
          -174 -115 -252 -148 -212 -55 4 -20 rcurveline
          1 137 21 154 hhcurveto
          87 75 -5 -12 63 hvcurveto
          -314 -401 21 callgsubr
          vvcurveto
          -4 4 -6 6 vhcurveto
          88 455 rmoveto
          -73 -70 -5 -5 -54 hvcurveto
          70 24 76 35 81 43 191 100 281 191 113 86 -383 -490 rcurveline
          14 -64 -79 7 -89 hhcurveto
          endchar
        </CharString>
        <CharString name="fraction">
          -572 -4 19 callsubr
          -270 -25 -66 callsubr
        </CharString>
        <CharString name="g">
          -82 -577 -21 1117 -20 hstem
          771 215 -50 callgsubr
          -1 -1 -162 -127 -157 -58 -31 -12 -32 -14 -32 -15 rrcurveto
          255 159 252 97 -7 hhcurveto
          3 2 2 3 4 vvcurveto
          5 -5 4 -4 vhcurveto
          -2 45 callgsubr
          hhcurveto
          -54 -27 -48 -32 -48 -32 rrcurveto
          48 54 24 48 41 vvcurveto
          91 -105 18 -61 -115 -130 -59 -112 -132 vhcurveto
          -94 -80 -47 -74 -67 vvcurveto
          -90 75 -58 86 79 85 47 84 111 vhcurveto
          -40 -45 -31 -45 -33 -49 rrcurveto
          -257 -136 -339 -244 -129 vvcurveto
          -40 36 -20 31 57 66 57 3 3 vhcurveto
          99 85 170 202 146 209 40 20 43 21 41 15 rrcurveto
          65 176 145 123 3 hhcurveto
          22 callgsubr
          3 vvcurveto
          2 -1 1 -1 2 vhcurveto
          -633 -218 rmoveto
          -80 1 -63 50 80 vvcurveto
          59 47 73 88 75 vhcurveto
          108 128 126 58 111 hhcurveto
          58 90 -17 -74 -42 -33 -72 -132 58 callsubr
          -84 -102 -125 -105 -113 hhcurveto
          -244 -522 rmoveto
          -6 -6 -61 -50 -48 hhcurveto
          -19 -29 12 32 103 329 250 225 123 hvcurveto
          -144 -202 -149 -176 -98 -86 rrcurveto
          endchar
        </CharString>
        <CharString name="grave">
          -415 338 829 -98 callgsubr
        </CharString>
        <CharString name="greater">
          138 47 callsubr
          85 117 rmoveto
          8 callgsubr
          2 1 hvcurveto
          8 219 250 314 18 17 -3 18 hhcurveto
          4 5 4 4 4 -2 3 -3 2 hvcurveto
          5 -267 128 165 -12 hvcurveto
          5 -5 4 -5 vhcurveto
          -14 callsubr
          9 -113 139 -114 101 -62 rrcurveto
          -6 -6 0 -5 hhcurveto
          -58 1 -59 -11 -60 -18 rrcurveto
          -192 -58 -181 -163 -6 vvcurveto
          -56 callsubr
          16 callsubr
          endchar
        </CharString>
        <CharString name="guillemotleft">
          273 -60 callsubr
          365 hmoveto
          -78 callgsubr
          endchar
        </CharString>
        <CharString name="guillemotright">
          259 138 47 callsubr
          421 117 rmoveto
          8 callgsubr
          2 1 hvcurveto
          8 219 250 314 18 17 -3 18 hhcurveto
          4 5 4 4 4 -2 3 -3 2 hvcurveto
          5 -267 128 165 -12 hvcurveto
          5 -5 4 -5 vhcurveto
          -14 callsubr
          9 -113 139 -114 101 -62 rrcurveto
          -6 -6 0 -5 hhcurveto
          -58 1 -59 -11 -60 -18 rrcurveto
          -192 -58 -181 -163 -6 vvcurveto
          -56 callsubr
          16 callsubr
          -364 hmoveto
          8 callgsubr
          2 1 hvcurveto
          8 219 250 314 18 17 -3 18 hhcurveto
          4 5 4 4 4 -2 3 -3 2 hvcurveto
          5 -267 128 165 -12 hvcurveto
          5 -5 4 -5 vhcurveto
          -14 callsubr
          9 -113 139 -114 101 -62 rrcurveto
          -6 -6 0 -5 hhcurveto
          -58 1 -59 -11 -60 -18 rrcurveto
          -192 -58 -181 -163 -6 vvcurveto
          -56 callsubr
          16 callsubr
          endchar
        </CharString>
        <CharString name="h">
          -70 17 -21 1048 -20 hstem
          -102 -4 rmoveto
          1 62 97 85 108 vhcurveto
          113 143 103 97 82 41 rrcurveto
          1 1 62 30 64 hhcurveto
          56 57 -30 -62 -98 -109 -86 -59 -74 hvcurveto
          -41 -51 -20 -39 -26 vvcurveto
          -30 22 -12 36 104 124 89 126 150 vhcurveto
          13 callsubr
          -85 callsubr
          -157 -186 -95 -54 -82 hhcurveto
          -51 8 21 3 16 11 30 46 59 hvcurveto
          33 43 35 35 0 vvcurveto
          11 11 93 95 87 vvcurveto
          66 -59 42 -72 -64 -70 -32 14 callsubr
          -113 -55 -165 -190 -121 -168 57 119 76 121 73 106 59 39 112 75 113 86 142 109 99 92 55 74 rrcurveto
          1 1 22 32 36 vvcurveto
          38 -26 30 -37 -13 -14 -3 -7 -14 vhcurveto
          -76 -38 -284 -332 -152 -219 -5 -7 rcurveline
          -111 -166 -83 -142 -48 -126 rrcurveto
          800 1023 rmoveto
          39 6 -34 -17 -30 -19 -27 -1 -1 hvcurveto
          -112 -152 -289 -203 -135 -91 209 295 225 230 44 21 rrcurveto
          7 15 8 2 10 hhcurveto
          endchar
        </CharString>
        <CharString name="hyphen">
          -129 321 -20 23 -21 hstemhm
          hintmask 01000000
          661 303 rmoveto
          -13 callgsubr
        </CharString>
        <CharString name="i">
          44 callgsubr
          606 97 hstem
          266 97 vstem
          -97 callgsubr
          334 655 rmoveto
          26 -22 22 -26 -27 -22 -22 -26 -27 22 -22 27 26 22 22 27 vhcurveto
          endchar
        </CharString>
        <CharString name="iacute">
          44 callgsubr
          728 -20 hstem
          -97 callgsubr
          46 590 -100 callgsubr
        </CharString>
        <CharString name="icircumflex">
          44 callgsubr
          710 -20 hstem
          -97 callgsubr
          519 554 -101 callgsubr
        </CharString>
        <CharString name="idieresis">
          44 callgsubr
          573 108 hstem
          128 9 callgsubr
          vstem
          -97 callgsubr
          207 627 -76 callgsubr
        </CharString>
        <CharString name="igrave">
          44 callgsubr
          hstem
          -97 callgsubr
          370 595 -98 callgsubr
        </CharString>
        <CharString name="j">
          -527 -576 -21 1209 97 hstem
          198 97 vstem
          -604 -597 rmoveto
          60 67 74 4 4 hvcurveto
          64 70 90 125 114 179 188 116 201 109 142 132 rrcurveto
          1 22 callgsubr
          vvcurveto
          4 -5 5 -4 20 callgsubr
          -122 -115 -173 -102 -168 -99 -11 -7 -12 -7 -11 -6 rrcurveto
          181 291 194 335 11 vvcurveto
          56 callsubr
          2 callsubr
          2 5 -218 -395 -177 -272 rrcurveto
          -201 -121 -248 -153 -124 vvcurveto
          -41 23 -26 41 vhcurveto
          364 431 rmoveto
          -104 -161 -84 -116 -59 -64 rrcurveto
          5 -1 -53 -77 -65 hhcurveto
          -22 -22 13 37 19 8 22 14 20 hvcurveto
          77 106 146 97 165 99 rrcurveto
          535 826 rmoveto
          27 -22 22 -26 -27 -22 -22 -27 -26 22 -22 27 26 22 22 26 vhcurveto
          endchar
        </CharString>
        <CharString name="k">
          -174 10 -21 hstem
          -78 -11 rmoveto
          28 72 29 61 51 86 56 96 90 116 107 44 rrcurveto
          1 1 106 45 87 hhcurveto
          68 42 -32 -52 -85 -117 -61 -114 hvcurveto
          -92 -84 39 -1 hhcurveto
          -10 4 -3 -9 rlineto
          -1 -24 -75 -68 vvcurveto
          -118 56 -63 100 97 109 46 161 175 vhcurveto
          2 2 1 2 -65 callsubr
          -5 -2 -1 callgsubr
          -167 -184 -103 -36 -80 hhcurveto
          -100 -40 71 90 59 14 51 6 22 hvcurveto
          -10 24 66 -27 88 hhcurveto
          134 113 78 86 55 -42 47 -86 -57 -96 -29 -13 -34 hvcurveto
          65 50 48 41 24 20 18 15 93 82 76 86 rrcurveto
          71 80 38 65 44 vvcurveto
          44 -43 26 -30 1 vhcurveto
          -67 1 -66 -84 -5 -6 -1 -2 -121 -158 -135 -195 -196 -285 -118 -218 -36 -98 rrcurveto
          744 1027 rmoveto
          22 -1 34 -19 -34 vvcurveto
          -95 -253 -230 -37 -32 vhcurveto
          -37 -32 -99 -83 -131 -93 167 258 210 278 1 1 rrcurveto
          5 4 61 77 58 hhcurveto
          endchar
        </CharString>
        <CharString name="l">
          63 callgsubr
          57 -9 rmoveto
          21 26 2 8 27 hvcurveto
          171 49 107 65 133 101 rrcurveto
          13 callsubr
          -85 callsubr
          -130 -100 -106 -61 -167 -50 rrcurveto
          -7 -22 -23 -4 -21 hhcurveto
          -52 -40 26 53 25 8 22 0 hvcurveto
          14 37 17 38 19 39 328 224 128 106 120 165 rrcurveto
          40 55 47 78 57 vvcurveto
          41 -26 33 -44 -16 -15 -4 -8 -19 vhcurveto
          -77 -32 -116 -130 -4 vvcurveto
          -1 -1 -79 -101 -89 -135 -82 -125 -116 -184 -50 -142 rrcurveto
          -1 -2 -8 -24 -28 vvcurveto
          -49 30 -47 76 vhcurveto
          334 827 rmoveto
          2 2 135 169 91 hhcurveto
          32 21 -22 -33 -41 -29 -64 -54 -75 hvcurveto
          -117 -160 -117 -98 -311 -215 140 272 199 257 8 8 rrcurveto
          endchar
        </CharString>
        <CharString name="less">
          -60 callsubr
          endchar
        </CharString>
        <CharString name="lslash">
          63 callgsubr
          663 673 -13 callsubr
          -686 -316 -12 callgsubr
          80 -366 rmoveto
          21 26 2 8 27 hvcurveto
          171 49 107 65 133 101 rrcurveto
          13 callsubr
          -85 callsubr
          -130 -100 -106 -61 -167 -50 rrcurveto
          -7 -22 -23 -4 -21 hhcurveto
          -52 -40 26 53 25 8 22 0 hvcurveto
          14 37 17 38 19 39 328 224 128 106 120 165 rrcurveto
          40 55 47 78 57 vvcurveto
          41 -26 33 -44 -16 -15 -4 -8 -19 vhcurveto
          -77 -32 -116 -130 -4 vvcurveto
          -1 -1 -79 -101 -89 -135 -82 -125 -116 -184 -50 -142 rrcurveto
          -1 -2 -8 -24 -28 vvcurveto
          -49 30 -47 76 vhcurveto
          334 827 rmoveto
          2 2 135 169 91 hhcurveto
          32 21 -22 -33 -41 -29 -64 -54 -75 hvcurveto
          -117 -160 -117 -98 -311 -215 140 272 199 257 8 8 rrcurveto
          endchar
        </CharString>
        <CharString name="m">
          393 4 -21 534 -20 hstem
          -238 -17 rmoveto
          1 1 54 51 68 70 rrcurveto
          247 252 234 147 113 hhcurveto
          13 12 -2 -3 11 hvcurveto
          1 37 -15 -54 -61 -42 -90 -80 -108 hvcurveto
          -60 -76 -68 -82 -1 -1 14 -11 rcurveline
          50 60 46 60 33 38 rrcurveto
          223 195 160 110 113 hhcurveto
          6 7 0 -1 6 hvcurveto
          2 53 -6 -52 -49 -45 -76 -84 -96 hvcurveto
          -59 -68 -20 -44 -31 vvcurveto
          -45 45 -15 39 44 51 16 14 33 vhcurveto
          54 22 88 51 108 103 rrcurveto
          -11 callgsubr
          -1 -2 -2 vhcurveto
          -105 -100 -85 -49 -53 -23 rrcurveto
          -11 -25 -53 -18 -44 hhcurveto
          -33 -33 11 33 23 16 40 58 66 hvcurveto
          89 102 45 78 54 vvcurveto
          66 -65 6 -6 1 vhcurveto
          1 -7 -7 0 -8 hhcurveto
          -109 -128 -87 -166 -166 hvcurveto
          41 70 22 60 45 vvcurveto
          70 -47 22 -46 -89 -167 -80 -183 -206 vhcurveto
          95 108 49 78 38 vvcurveto
          13 -8 21 -18 -4 -4 -3 -6 vhcurveto
          -11 16 2 -15 vvcurveto
          -25 -29 -65 -162 -181 vhcurveto
          -53 -59 -153 -151 -2 -3 rrcurveto
          endchar
        </CharString>
        <CharString name="n">
          8 14 -21 518 -20 hstem
          -158 -7 rmoveto
          1 35 49 40 52 vhcurveto
          117 91 236 280 245 hhcurveto
          77 39 -21 -41 -46 -48 -59 0 hvcurveto
          0 -41 -48 -36 -55 vhcurveto
          -43 -66 -21 -52 -38 vvcurveto
          -39 26 -28 47 50 73 32 66 94 vhcurveto
          85 59 74 67 0 vvcurveto
          -88 callsubr
          -1 -73 -65 -85 -59 vhcurveto
          -63 -91 -70 -33 -45 hhcurveto
          -39 -16 22 28 34 21 50 40 62 hvcurveto
          36 55 39 46 1 vvcurveto
          2 2 51 61 54 vvcurveto
          54 -52 26 -81 -141 -166 -95 -182 -170 vhcurveto
          89 139 34 80 29 vvcurveto
          14 -3 8 -8 -53 callgsubr
          vhcurveto
          -4 3 -2 -8 vvcurveto
          -23 -20 -63 -114 -170 vhcurveto
          -79 -119 -83 -106 4 4 rrcurveto
          endchar
        </CharString>
        <CharString name="nine">
          -292 -39 -21 525 20 451 20 hstem
          95 20 vstem
          133 -60 rmoveto
          18 callgsubr
          2 hvcurveto
          689 940 -16 12 rlineto
          -1 -77 -95 -101 -97 vhcurveto
          -149 -155 -122 -69 -90 hhcurveto
          -86 -68 54 86 81 62 87 104 66 hvcurveto
          61 97 99 16 77 hhcurveto
          105 79 -29 0 hvcurveto
          -1 1 24 callgsubr
          hhcurveto
          5 6 5 6 4 -3 3 -4 2 hvcurveto
          1 -2 -79 29 -110 hhcurveto
          -257 -202 -181 -151 -95 74 -64 100 109 139 90 178 178 hvcurveto
          -570 -777 21 callgsubr
          vvcurveto
          -6 5 -4 5 vhcurveto
          endchar
        </CharString>
        <CharString name="ntilde">
          8 14 -21 499 97 65 callgsubr
          hintmask 11000000
          -158 -7 rmoveto
          1 35 49 40 52 vhcurveto
          117 91 236 280 245 hhcurveto
          77 39 -21 -41 -46 -48 -59 0 hvcurveto
          0 -41 -48 -36 -55 vhcurveto
          -43 -66 -21 -52 -38 vvcurveto
          -39 26 -28 47 50 73 32 66 94 vhcurveto
          85 59 74 67 0 vvcurveto
          -88 callsubr
          -1 -73 -65 -85 -59 vhcurveto
          -63 -91 -70 -33 -45 hhcurveto
          -39 -16 22 28 34 21 50 40 62 hvcurveto
          36 55 39 46 1 vvcurveto
          2 2 51 61 54 vvcurveto
          54 -52 26 -81 -141 -166 -95 -182 -170 vhcurveto
          89 139 34 80 29 vvcurveto
          14 -3 8 -8 -53 callgsubr
          vhcurveto
          -4 3 -2 -8 vvcurveto
          -23 -20 -63 -114 -170 vhcurveto
          -79 -119 -83 -106 4 4 rrcurveto
          hintmask 10100000
          901 567 -53 callsubr
          hintmask 11000000
          -76 callsubr
          vhcurveto
          hintmask 10100000
          -38 21 -29 46 vhcurveto
          86 51 93 66 hhcurveto
          68 9 -53 -16 hvcurveto
          -13 45 callgsubr
          vvcurveto
          -54 callsubr
          vhcurveto
          endchar
        </CharString>
        <CharString name="numbersign">
          117 -53 -21 648 -20 306 -20 hstem
          41 -74 rmoveto
          3 3 2 2 1 hvcurveto
          595 916 -44 callgsubr
          -595 -916 rlineto
          -1 -1 0 16 callsubr
          297 hmoveto
          48 callgsubr
          hvcurveto
          595 916 rlineto
          56 callgsubr
          1 vvcurveto
          5 -4 5 -5 -3 -3 -56 callsubr
          vhcurveto
          -595 -916 41 callgsubr
          546 630 -58 callgsubr
          432 -322 -58 callgsubr
          endchar
        </CharString>
        <CharString name="o">
          21 11 -21 473 85 hstem
          37 callsubr
          vstem
          -101 callsubr
          -95 callsubr
          127 -68 -42 callsubr
          -13 25 -5 30 30 vvcurveto
          92 44 56 56 1 vhcurveto
          endchar
        </CharString>
        <CharString name="oacute">
          12 callsubr
          96 124 -20 hstemhm
          37 callsubr
          hintmask 11011000
          -101 callsubr
          hintmask 10111000
          -95 callsubr
          hintmask 11011000
          -73 callgsubr
          -307 150 rmoveto
          -2 22 22 -2 23 hhcurveto
          139 137 46 79 125 hvcurveto
          3 2 1 3 -65 callsubr
          -4 -84 callsubr
          hintmask 10111000
          -71 -110 -144 -51 -136 -23 -22 4 -22 25 callgsubr
          -5 -4 -54 callsubr
          hvcurveto
          endchar
        </CharString>
        <CharString name="ocircumflex">
          12 callsubr
          90 108 -20 hstemhm
          37 callsubr
          hintmask 11011000
          -101 callsubr
          hintmask 10111000
          -95 callsubr
          hintmask 11011000
          -73 callgsubr
          185 110 -91 callgsubr
          hintmask 10111000
          -100 -162 -140 -7 -58 hhcurveto
          -44 -27 6 0 hvcurveto
          36 callgsubr
          -53 callgsubr
          -54 callsubr
          hvcurveto
          1 28 -6 46 hhcurveto
          117 124 35 67 116 hvcurveto
          -77 5 51 -55 72 hhcurveto
          endchar
        </CharString>
        <CharString name="odieresis">
          12 callsubr
          169 48 callsubr
          366 110 -18 167 -97 97 hintmask 11010100
          -101 callsubr
          hintmask 10100100
          -95 callsubr
          hintmask 11011010
          -73 callgsubr
          -102 183 -76 callgsubr
        </CharString>
        <CharString name="oe">
          401 -10 179 -159 -21 474 85 9 -20 hstemhm
          456 93 -93 169 hintmask 10100100
          502 210 rmoveto
          84 93 39 76 51 -99 callsubr
          10 hlineto
          106 133 85 135 122 hvcurveto
          -53 321 -27 callsubr
          -86 -34 -92 -76 -39 8 -33 17 -28 31 callgsubr
          -117 -129 -76 -93 -59 callgsubr
          127 -68 -42 callsubr
          -12 24 -7 27 32 vvcurveto
          71 30 78 71 2 vhcurveto
          -82 -234 rmoveto
          -2 -1 -6 -17 -3 vvcurveto
          -6 45 -50 114 58 67 7 31 97 vhcurveto
          159 51 111 125 82 vvcurveto
          hintmask 01011000
          68 -58 41 -79 -143 -135 -93 -104 -89 -45 callsubr
          2 11 12 1 11 hhcurveto
          68 54 -34 -61 -81 -122 -111 -131 -44 hvcurveto
          hintmask 10101000
          -32 -95 -67 -8 -58 hhcurveto
          -128 -23 60 0 hvcurveto
          endchar
        </CharString>
        <CharString name="ograve">
          12 callsubr
          107 hstemhm
          37 callsubr
          hintmask 11010000
          -101 callsubr
          hintmask 10110000
          -95 callsubr
          hintmask 11010000
          -73 callgsubr
          -6 156 -58 callsubr
          hintmask 10110000
          -2 -18 -18 0 -19 hhcurveto
          -121 -130 35 127 -42 hvcurveto
          63 -19 18 -7 -16 hhcurveto
          -53 callgsubr
          -1 0 -21 9 -29 31 callgsubr
          38 138 -48 130 hhcurveto
          endchar
        </CharString>
        <CharString name="one">
          -278 11 -21 994 -20 hstem
          87 -8 rmoveto
          -2 3 2 0 2 hhcurveto
          3 3 2 2 1 hvcurveto
          272 408 431 564 4 6 -15 12 rcurveline
          -114 -126 -173 -60 -125 -28 rrcurveto
          -211 -47 -47 30 -24 vvcurveto
          -5 5 -5 5 1 113 1 31 138 vhcurveto
          139 31 113 50 90 65 -132 -174 -302 -405 -209 -312 rrcurveto
          59 callsubr
          -2 -2 vvcurveto
          -3 2 -3 3 -2 vhcurveto
          endchar
        </CharString>
        <CharString name="oslash">
          21 -174 -21 658 85 160 -20 hstem
          37 callsubr
          vstem
          31 -195 rmoveto
          18 callgsubr
          2 hvcurveto
          566 885 -44 callgsubr
          -566 -885 -24 callsubr
          110 185 -34 callgsubr
          -46 43 62 -22 65 hhcurveto
          72 72 28 50 65 -2 callsubr
          -41 callgsubr
          -48 -61 -71 -26 -66 hhcurveto
          -59 -55 20 44 -43 -98 callsubr
          -95 callsubr
          127 -68 -42 callsubr
          -13 25 -5 30 30 vvcurveto
          92 44 56 56 1 vhcurveto
          endchar
        </CharString>
        <CharString name="ot">
          629 -17 153 327 82 535 -20 hstem
          37 callsubr
          vstem
          141 -10 -34 callgsubr
          -57 43 55 -23 60 hhcurveto
          201 232 263 120 138 hvcurveto
          67 callgsubr
          -89 -171 -33 callgsubr
          121 180 94 137 153 vhcurveto
          -88 callsubr
          -49 -54 -211 -178 -179 hhcurveto
          -52 -25 21 40 37 22 42 -30 callgsubr
          14 15 rcurveline
          -1 35 34 -1 34 hhcurveto
          37 106 -3 15 17 callsubr
          -2 -45 -46 -1 -48 -27 -27 1 -28 hhcurveto
          65 72 170 190 74 194 rrcurveto
          4 10 9 29 18 vvcurveto
          20 -14 1 -5 -22 callgsubr
          -46 -80 -291 -348 -208 hhcurveto
          -56 -53 22 55 -41 -98 callsubr
          -95 callsubr
          831 48 rmoveto
          -49 callsubr
          -704 -116 -73 callsubr
          endchar
        </CharString>
        <CharString name="otilde">
          12 callsubr
          82 65 callgsubr
          476 131 hintmask 11011000
          -101 callsubr
          hintmask 10101000
          -95 callsubr
          hintmask 11011000
          -73 callgsubr
          129 132 -53 callsubr
          hintmask 10101000
          -76 callsubr
          vhcurveto
          hintmask 11011000
          -38 21 -29 46 vhcurveto
          86 51 93 66 hhcurveto
          68 9 -53 -16 hvcurveto
          -13 45 callgsubr
          vvcurveto
          -54 callsubr
          vhcurveto
          endchar
        </CharString>
        <CharString name="ov">
          955 11 -21 22 -21 385 197 -110 85 hstemhm
          37 callsubr
          813 91 hintmask 01011100
          449 531 -27 callsubr
          -62 -56 -64 -104 -36 7 -35 17 -27 50 callsubr
          -118 -128 -76 -94 hhcurveto
          -105 -37 64 68 -46 callsubr
          398 -8 rmoveto
          1 1 38 57 38 hhcurveto
          13 14 -5 -20 -45 -60 -98 6 callsubr
          hintmask 01101100
          -55 callgsubr
          14 30 12 28 33 callsubr
          -41 -47 -62 -4 -4 vhcurveto
          -207 -136 -135 -79 -91 hhcurveto
          -63 -29 33 1 -1 hvcurveto
          81 89 40 84 44 -70 callgsubr
          hintmask 10011100
          2 -2 -43 56 -101 hhcurveto
          -95 -125 -70 callsubr
          10 hlineto
          99 133 77 133 120 hvcurveto
          0 33 -39 70 96 141 77 217 141 vhcurveto
          496 95 -33 callsubr
          endchar
        </CharString>
        <CharString name="p">
          46 -541 -21 554 49 569 -20 hstem
          695 20 vstem
          914 254 rmoveto
          1 -2 -2 2 -3 hhcurveto
          -56 callsubr
          -2 -2 hvcurveto
          -194 -218 -187 -50 -135 hhcurveto
          -44 -35 5 8 -35 hvcurveto
          106 132 62 86 95 hvcurveto
          66 60 69 91 85 vvcurveto
          82 -64 72 -129 -105 -83 -33 -53 -65 vhcurveto
          70 123 -1 5 -2 vvcurveto
          6 51 callgsubr
          -6 -9 -19 -144 -82 vhcurveto
          -243 -190 -265 -315 -150 -277 rrcurveto
          -47 -86 -25 -67 -35 vvcurveto
          -23 13 -16 24 44 59 62 4 3 vhcurveto
          81 82 138 206 182 302 31 -29 40 -21 37 -11 rrcurveto
          -21 51 77 -20 81 hhcurveto
          184 3 182 81 184 165 rrcurveto
          13 callsubr
          3 vvcurveto
          2 -1 -22 callsubr
          -1282 -738 rmoveto
          -16 -16 -46 -44 -30 hhcurveto
          -15 -5 10 11 58 86 177 155 212 hvcurveto
          83 114 159 199 205 168 -258 -452 -220 -335 -98 -102 rrcurveto
          528 534 rmoveto
          -31 11 -45 21 -28 28 69 122 70 115 51 88 rrcurveto
          37 51 71 71 154 hhcurveto
          130 43 -72 -66 -81 -64 -82 -63 -57 hvcurveto
          -98 -89 -125 -56 -112 1 rrcurveto
          -23 -25 2 7 -25 hvcurveto
          endchar
        </CharString>
        <CharString name="parenleft">
          -461 -124 -21 1134 -20 hstem
          119 -145 rmoveto
          5 4 5 4 hvcurveto
          33 -6 33 33 vvcurveto
          -1 294 161 245 142 160 90 101 91 79 62 49 rrcurveto
          105 83 12 -4 10 vvcurveto
          5 -5 4 -4 -7 -171 -104 -210 -186 vhcurveto
          -202 -228 -105 -242 -242 vvcurveto
          -28 -1 -80 16 vhcurveto
          endchar
        </CharString>
        <CharString name="parenright">
          -252 -162 -21 1134 -20 hstem
          -156 -183 rmoveto
          7 170 102 212 188 hvcurveto
          202 228 104 243 239 vvcurveto
          28 1 82 -17 vhcurveto
          -14 callsubr
          4 -33 2 -33 -32 vvcurveto
          -293 -159 -246 -142 -160 vhcurveto
          -90 -101 -92 -79 -61 -48 rrcurveto
          -120 -95 2 15 -9 vvcurveto
          -4 4 -6 5 vhcurveto
          endchar
        </CharString>
        <CharString name="percent">
          -32 206 -187 -21 724 206 3 -20 hstemhm
          288 207 hintmask 10101000
          495 793 rmoveto
          57 -1 -46 46 -57 hhcurveto
          -56 -47 -46 -57 -57 47 -46 56 57 47 46 57 hvcurveto
          8 -722 rmoveto
          57 -46 46 -57 -57 -46 -46 -57 -57 46 -46 57 57 46 46 57 vhcurveto
          hintmask 01011000
          -397 -105 rmoveto
          18 callgsubr
          2 hvcurveto
          588 915 rlineto
          1 2 0 1 2 64 callsubr
          2 callsubr
          -587 -915 -10 callgsubr
          10 callgsubr
          6 vhcurveto
          endchar
        </CharString>
        <CharString name="period">
          -622 -10 113 hstem
          77 66 callgsubr
          190 46 -47 callsubr
          endchar
        </CharString>
        <CharString name="plus">
          80 -21 596 -20 hstem
          204 59 rmoveto
          48 callgsubr
          hvcurveto
          376 578 rlineto
          56 callgsubr
          1 vvcurveto
          5 -4 5 -5 -3 -3 -56 callsubr
          vhcurveto
          -376 -578 41 callgsubr
          521 308 -58 callgsubr
          endchar
        </CharString>
        <CharString name="q">
          -47 -554 -21 575 -20 559 -20 hstem
          822 388 rmoveto
          4 -23 callsubr
          -54 -74 -41 -35 -52 vhcurveto
          30 42 16 37 32 vvcurveto
          103 -120 6 -46 -115 -130 -59 -111 -131 vhcurveto
          -95 -80 -47 -74 -67 vvcurveto
          -92 76 -56 85 79 94 49 87 109 vhcurveto
          -32 -40 -66 -82 -69 -92 rrcurveto
          -168 -224 -98 -138 -74 vvcurveto
          -31 19 -30 37 98 183 255 234 79 vhcurveto
          26 77 16 76 7 73 rrcurveto
          2 0 -22 callsubr
          4 5 53 50 127 155 160 22 rlinecurve
          4 4 4 4 hvcurveto
          -9 callgsubr
          vvcurveto
          -665 -370 rmoveto
          -76 -67 50 79 61 47 72 88 75 hvcurveto
          109 128 126 57 111 hhcurveto
          29 119 -4 -87 -38 -25 -57 -95 -89 hvcurveto
          -15 -14 -14 -13 -16 -13 rrcurveto
          -85 -101 -126 -103 -113 hhcurveto
          160 -297 rmoveto
          -148 -82 -116 -130 -59 hhcurveto
          -18 -20 14 30 103 343 425 86 108 hvcurveto
          -19 -165 -63 -144 -52 -93 rrcurveto
          endchar
        </CharString>
        <CharString name="question">
          -9 -10 113 781 -20 hstem
          59 66 callgsubr
          188 173 rmoveto
          3 3 2 3 2 hvcurveto
          134 215 rlineto
          -2 15 16 -1 15 hhcurveto
          220 202 208 147 73 -58 66 -128 -148 -134 -114 -142 -47 hvcurveto
          -1 0 -1 -1 vvcurveto
          51 callgsubr
          6 3 3 3 4 2 vhcurveto
          157 53 137 86 125 hhcurveto
          112 52 -58 -66 -136 -193 -198 -214 -16 -15 1 2 -16 hvcurveto
          -5 hlineto
          -140 -224 rlineto
          5 callsubr
          -2 vvcurveto
          -5 -61 callsubr
          vhcurveto
          -16 -127 -47 callsubr
          endchar
        </CharString>
        <CharString name="questiondown">
          -139 -195 -21 781 113 hstem
          560 66 callgsubr
          544 495 rmoveto
          -3 -3 -2 -3 -2 hvcurveto
          -134 -215 rlineto
          2 -16 -15 1 -16 hhcurveto
          -219 -202 -209 -146 -73 57 -66 129 148 134 114 142 47 -42 callgsubr
          -3 -3 -4 -1 vhcurveto
          -157 -53 -138 -86 -124 hhcurveto
          -113 -51 58 66 136 193 198 214 15 16 -1 -2 16 hvcurveto
          5 hlineto
          140 224 rlineto
          56 callgsubr
          1 vvcurveto
          6 -5 4 -4 vhcurveto
          16 127 15 callsubr
        </CharString>
        <CharString name="quotedbl">
          -438 525 -21 hstem
          202 127 vstem
          56 504 rmoveto
          -26 callgsubr
          109 hmoveto
          -26 callgsubr
          endchar
        </CharString>
        <CharString name="quotedblleft">
          -531 -71 callgsubr
          87 hmoveto
          -86 callgsubr
          endchar
        </CharString>
        <CharString name="quotedblright">
          -518 -71 callgsubr
          87 hmoveto
          -86 callgsubr
          endchar
        </CharString>
        <CharString name="quoteleft">
          -615 -71 callgsubr
          endchar
        </CharString>
        <CharString name="quoteright">
          -610 -71 callgsubr
          endchar
        </CharString>
        <CharString name="quotesingle">
          -602 581 -21 293 -20 hstem
          276 -74 callgsubr
          endchar
        </CharString>
        <CharString name="r">
          -193 52 callgsubr
          vstem
          274 -33 rmoveto
          78 141 58 86 139 hvcurveto
          3 2 1 3 3 vvcurveto
          4 -4 5 -4 -2 -2 -1 -1 -1 vhcurveto
          -78 -128 -143 -63 -67 -60 callgsubr
          -33 53 -2 -17 callgsubr
          endchar
        </CharString>
        <CharString name="ring">
          -521 773 242 hstem
          40 242 vstem
          161 773 6 callgsubr
          11 callgsubr
          hvcurveto
          endchar
        </CharString>
        <CharString name="rr">
          555 52 callgsubr
          502 237 vstem
          274 -33 rmoveto
          245 304 291 231 154 hvcurveto
          -8 callsubr
          78 141 58 86 139 hvcurveto
          -47 callgsubr
          124 219 207 61 -19 callgsubr
          -184 -113 -320 -320 -237 -60 callgsubr
          -34 53 -1 -17 callgsubr
          739 hmoveto
          -82 callsubr
          endchar
        </CharString>
        <CharString name="rs">
          433 -33 32 609 -20 hstemhm
          194 237 353 -2 callgsubr
          hintmask 11110000
          966 443 -44 callsubr
          hintmask 11101000
          -15 callgsubr
          -37 -35 -36 -107 vhcurveto
          -90 -159 -274 -390 -247 3 callgsubr
          121 219 214 57 vvcurveto
          42 -63 -1 -11 vhcurveto
          -23 1 -56 7 -32 18 rrcurveto
          -91 callsubr
          hvcurveto
          -52 -219 -220 -117 vvcurveto
          -49 30 -32 58 262 275 398 78 147 vhcurveto
          -752 121 -78 callsubr
          765 -349 -75 callgsubr
          endchar
        </CharString>
        <CharString name="rst">
          -2612 -12 -21 1113 -20 hstemhm
          -1589 21 574 -2 callgsubr
          hintmask 11110000
          -799 215 -75 callsubr
          574 hmoveto
          -49 callsubr
          -1303 -612 rmoveto
          297 74 316 159 312 hvcurveto
          3 -63 10 -68 -68 20 callsubr
          -28 callsubr
          37 callgsubr
          46 callsubr
          67 callgsubr
          -91 -174 -33 callgsubr
          121 180 94 137 153 vhcurveto
          -88 callsubr
          -49 -54 -211 -178 -179 hhcurveto
          -52 -25 21 40 37 22 42 -30 callgsubr
          4 -31 callgsubr
          6 6 rrcurveto
          -1 35 34 -1 34 hhcurveto
          37 106 -3 15 17 callsubr
          -2 -45 -46 -1 -48 -27 -27 1 -28 hhcurveto
          65 72 170 190 74 194 rrcurveto
          4 10 9 29 18 vvcurveto
          20 -14 1 -5 -36 -121 -197 -336 -179 vhcurveto
          -68 2 -70 4 -72 6 rrcurveto
          1 -11 -4 0 -2 hhcurveto
          -5 -4 -29 callsubr
          4 -4 5 -1 hvcurveto
          49 -5 138 -5 31 -2 -259 -201 -130 -32 -153 -55 rrcurveto
          -40 callgsubr
          hintmask 11101000
          -16 callsubr
          -38 -34 -38 -108 vhcurveto
          -155 -304 -110 -321 -248 hhcurveto
          -69 -24 32 43 hvcurveto
          128 210 189 60 -74 callsubr
          -44 -62 -156 -176 -106 vvcurveto
          -50 27 -44 67 -1 vhcurveto
          -80 597 -51 callsubr
        </CharString>
        <CharString name="rt">
          508 -11 -21 1112 -20 hstem
          193 238 vstem
          385 -10 rmoveto
          210 87 340 293 153 119 67 callgsubr
          -83 -156 -2 -5 rrcurveto
          -2 -4 -21 -42 -41 vvcurveto
          -49 31 -32 66 121 180 94 137 153 vhcurveto
          -88 callsubr
          -48 -54 -211 -179 -178 hhcurveto
          -52 -25 21 40 38 21 41 -30 callgsubr
          4 -31 callgsubr
          6 6 rrcurveto
          -1 35 34 -1 34 hhcurveto
          37 106 -3 15 17 callsubr
          -2 -45 -46 -1 -48 -27 -27 1 -28 hhcurveto
          65 72 170 190 74 194 rrcurveto
          4 10 9 29 18 vvcurveto
          20 -14 1 -5 -22 callgsubr
          -163 -132 -392 -327 -173 -64 rrcurveto
          -9 -24 -39 -12 -35 hhcurveto
          -37 -32 14 47 hvcurveto
          136 219 189 66 vvcurveto
          40 -55 1 -17 -21 -59 7 19 -33 vhcurveto
          -91 callsubr
          -22 -29 -31 -30 -40 hvcurveto
          -58 -77 -103 -118 -102 vvcurveto
          -59 42 -20 49 34 37 9 13 30 vhcurveto
          -171 574 -78 callsubr
          940 15 rmoveto
          -49 callsubr
          endchar
        </CharString>
        <CharString name="s">
          -304 3 -21 626 -11 callsubr
          hintmask 11100000
          85 22 rmoveto
          -27 13 31 -13 31 hhcurveto
          37 callgsubr
          hvcurveto
          -81 callgsubr
          hintmask 11010000
          -64 callsubr
          hintmask 11100000
          -32 callsubr
          -13 3 -12 5 -10 vhcurveto
          187 193 -75 callsubr
          endchar
        </CharString>
        <CharString name="scaron">
          -304 3 -21 803 -11 callsubr
          hintmask 11100000
          85 22 rmoveto
          -27 13 31 -13 31 hhcurveto
          37 callgsubr
          hvcurveto
          -81 callgsubr
          hintmask 11010000
          -64 callsubr
          hintmask 11100000
          -32 callsubr
          -13 3 -12 5 -10 vhcurveto
          187 193 -75 callsubr
          57 79 rmoveto
          -1 1 24 callgsubr
          hhcurveto
          4 3 32 callgsubr
          hvcurveto
          1 1 82 80 82 hhcurveto
          -67 callgsubr
          -48 -57 -26 -44 -55 hvcurveto
          93 -102 3 -5 -53 callgsubr
          -5 4 -4 5 vhcurveto
          1 1 88 -2 -76 -8 -2 -9 -9 vvcurveto
          -3 1 -2 3 -1 vhcurveto
          endchar
        </CharString>
        <CharString name="semicolon">
          -513 -32 -21 49 113 211 113 hstem
          69 113 1 66 callgsubr
          296 376 -47 callsubr
          -114 -324 -26 callsubr
        </CharString>
        <CharString name="seven">
          -378 -87 -21 951 20 -20 57 hstemhm
          766 20 hintmask 10110000
          42 -108 rmoveto
          3 3 66 callsubr
          hvcurveto
          2 3 196 228 187 234 110 138 85 113 59 85 rrcurveto
          78 112 19 46 22 vvcurveto
          16 -10 8 -13 -6 -7 -1 -3 -7 vhcurveto
          hintmask 11010000
          -25 -68 -80 -8 -75 -158 -135 33 -7 hhcurveto
          -6 -29 callsubr
          51 callgsubr
          5 -1 hvcurveto
          -1 -4 164 -33 142 hhcurveto
          91 77 12 22 62 hvcurveto
          3 7 4 0 3 hhcurveto
          3 -1 0 -3 -44 -126 -184 -221 -276 hvcurveto
          -187 -234 -195 -228 -2 -2 rrcurveto
          -56 callsubr
          -3 -2 vvcurveto
          -5 4 -5 6 vhcurveto
          endchar
        </CharString>
        <CharString name="six">
          -148 -69 20 601 20 339 20 hstem
          70 20 559 20 98 20 vstem
          251 -69 rmoveto
          193 118 178 107 55 hvcurveto
          33 65 19 65 56 vvcurveto
          107 -62 63 -104 -164 -105 -151 -11 -5 vhcurveto
          -1 -2 0 4 callgsubr
          -6 6 15 -14 19 67 77 vhcurveto
          48 56 64 24 69 hhcurveto
          89 55 -53 -95 -52 -17 -63 -32 -64 hvcurveto
          -104 -52 -115 -170 -181 hhcurveto
          -108 -54 54 108 108 62 170 87 134 hvcurveto
          236 153 170 150 114 hhcurveto
          62 29 -25 -50 hvcurveto
          -52 -32 -61 -1 vvcurveto
          -3 callgsubr
          -5 5 -6 6 3 4 2 4 1 vhcurveto
          2 4 33 62 57 vvcurveto
          61 -39 35 -70 -29 -62 -9 -69 -91 vhcurveto
          -158 -120 -268 -348 -273 vvcurveto
          -115 60 -66 121 vhcurveto
          endchar
        </CharString>
        <CharString name="slash">
          124 -204 19 callsubr
          176 -225 -66 callsubr
        </CharString>
        <CharString name="space">
          -433 endchar
        </CharString>
        <CharString name="sr">
          211 -12 -21 641 -11 callsubr
          219 237 hintmask 11101000
          272 215 -75 callgsubr
          322 -100 rmoveto
          -36 callgsubr
          hvcurveto
          -52 -219 -220 -117 vvcurveto
          -48 29 -33 56 78 141 61 83 134 vhcurveto
          -47 callgsubr
          121 219 214 57 vvcurveto
          42 -63 -1 -11 vhcurveto
          -23 1 -56 7 -32 18 rrcurveto
          -68 callgsubr
          -88 -153 -232 -96 -1 2 rrcurveto
          -40 callgsubr
          hintmask 11011000
          -64 callgsubr
          hintmask 11101000
          -6 callgsubr
          -2 247 99 90 160 vhcurveto
          -18 85 -51 callsubr
        </CharString>
        <CharString name="ss">
          172 3 -21 626 -11 callsubr
          147 -2 callgsubr
          hintmask 11101000
          699 435 rmoveto
          3 -63 10 -62 -67 20 callsubr
          -28 callsubr
          37 callgsubr
          vhcurveto
          -81 callgsubr
          hintmask 11100100
          -16 callsubr
          9 callsubr
          0 -270 -168 -138 -48 vhcurveto
          -40 callgsubr
          hintmask 11011000
          -64 callsubr
          hintmask 11101000
          -28 callsubr
          37 callgsubr
          vhcurveto
          165 67 244 146 0 vvcurveto
          -427 -220 -75 callsubr
          407 -364 -75 callsubr
          endchar
        </CharString>
        <CharString name="st">
          232 3 -21 22 -21 1097 -11 callsubr
          hintmask 01110000
          272 215 -75 callgsubr
          517 -74 rmoveto
          67 callgsubr
          -91 -174 -92 callsubr
          49 -5 138 -5 31 -2 -259 -201 -130 -32 -153 -55 rrcurveto
          -40 callgsubr
          hintmask 01101000
          -64 callgsubr
          hintmask 10110000
          -6 callgsubr
          46 callsubr
          rrcurveto
          57 74 -43 callgsubr
          endchar
        </CharString>
        <CharString name="sterling">
          413 -96 203 790 -20 hstem
          849 285 rmoveto
          1 hlineto
          5 4 -31 callgsubr
          -3 5 -5 hvcurveto
          -214 20 22 37 20 33 19 37 rlinecurve
          212 -20 rlineto
          6 3 5 4 -61 callsubr
          -4 hvcurveto
          -203 19 59 105 61 119 87 95 rlinecurve
          76 70 69 37 71 hhcurveto
          92 48 -47 -50 hvcurveto
          -34 -8 -6 13 callgsubr
          2 15 -3 53 55 -44 61 -115 -170 -124 -195 -253 -142 vhcurveto
          -232 21 26 callgsubr
          vhcurveto
          226 -21 -18 -34 -22 -36 -23 -37 rlinecurve
          -221 20 26 callgsubr
          -1 vhcurveto
          212 -19 -66 -111 -76 -96 -63 -63 rlinecurve
          28 -61 -78 41 -66 hhcurveto
          -45 -69 -29 -73 -52 46 -49 65 78 87 66 46 47 hvcurveto
          -27 72 98 -54 87 hhcurveto
          35 33 9 22 29 -2 callsubr
          2 vvcurveto
          5 -5 4 -4 42 callsubr
          -2 vhcurveto
          -18 -23 -29 -7 -32 hhcurveto
          -87 -107 52 23 -50 hvcurveto
          62 66 80 100 65 111 rrcurveto
          -480 -373 rmoveto
          -31 16 -15 29 31 vvcurveto
          52 4 53 28 42 hhcurveto
          44 48 -20 -44 95 hvcurveto
          -1 4 callsubr
          -43 -46 -82 -58 -69 hhcurveto
          -16 -15 3 7 -14 hvcurveto
          endchar
        </CharString>
        <CharString name="sv">
          608 3 -21 394 197 35 -11 callsubr
          718 91 hintmask 11110100
          634 455 rmoveto
          31 26 21 26 23 hhcurveto
          12 13 -6 -18 -44 -61 -99 6 callsubr
          -55 callgsubr
          13 30 14 29 23 vvcurveto
          25 -20 18 -24 -34 -27 -38 -28 -24 vhcurveto
          -101 -121 -180 -84 -48 -18 rrcurveto
          -40 callgsubr
          hintmask 11101100
          -64 callgsubr
          hintmask 11110100
          -6 callgsubr
          -2 234 101 110 134 vhcurveto
          -362 -240 -75 callgsubr
          815 -29 -33 callsubr
          endchar
        </CharString>
        <CharString name="t">
          -181 4 -21 1097 -20 hstem
          -22 220 rmoveto
          -4 30 callgsubr
          -3 vvcurveto
          10 callgsubr
          6 2 22 callsubr
          3 vhcurveto
          37 41 312 250 3 2 67 callgsubr
          -89 -168 -33 callgsubr
          121 180 94 137 153 vhcurveto
          -88 callsubr
          -49 -54 -211 -178 -179 hhcurveto
          -52 -25 21 40 37 22 42 -30 callgsubr
          4 -31 callgsubr
          6 6 rrcurveto
          -1 35 34 -1 34 hhcurveto
          37 106 -3 15 17 callsubr
          -2 -45 -46 -1 -48 -27 -27 1 -28 hhcurveto
          65 72 170 190 74 194 rrcurveto
          4 10 9 29 18 vvcurveto
          20 -14 1 -5 -22 callgsubr
          0 -233 -184 -143 -126 vhcurveto
          423 359 rmoveto
          -49 callsubr
          endchar
        </CharString>
        <CharString name="three">
          -87 20 351 21 234 20 76 20 285 20 hstemhm
          26 20 -20 239 218 20 234 20 148 20 hintmask 1111110111000000
          259 -87 rmoveto
          244 254 232 235 65 -26 64 -24 36 hvcurveto
          11 2 13 4 14 6 rrcurveto
          51 19 129 79 135 vvcurveto
          117 -85 53 -94 -33 -32 -6 -12 -29 vhcurveto
          -22 -9 -55 -32 -18 vvcurveto
          -5 4 -5 7 vhcurveto
          8 44 67 110 hhcurveto
          91 66 -56 -94 -39 -12 -41 -25 -33 hvcurveto
          -67 -91 -79 -18 -28 -5 rrcurveto
          5 -4 -57 87 -87 hhcurveto
          -67 4 -43 1 -59 103 -15 50 20 15 1 1 3 hvcurveto
          25 38 -78 -84 -51 -14 -62 -40 -71 hvcurveto
          -78 -136 -107 -64 -76 -30 rrcurveto
          -21 -54 -56 -11 -52 hhcurveto
          -143 -71 69 93 125 90 53 4 hvcurveto
          0 20 11 24 25 37 -25 -46 -49 -62 -26 -1 vhcurveto
          -4 -2 68 callgsubr
          vvcurveto
          -5 7 -5 4 1 42 callgsubr
          vhcurveto
          hintmask 1111101111000000
          3 1 72 30 63 vvcurveto
          58 -43 34 -39 -28 -24 -14 14 callsubr
          -7 -5 -90 -50 -7 -127 rrcurveto
          -129 87 -66 146 vhcurveto
          289 722 rmoveto
          31 29 -11 -21 25 hvcurveto
          -18 21 11 -19 1 hhcurveto
          1 -3 rlineto
          0 1 -1 2 -2 vhcurveto
          -5 -11 -1 -16 hhcurveto
          -40 -95 11 42 16 17 7 28 hvcurveto
          endchar
        </CharString>
        <CharString name="tilde">
          -414 -46 callgsubr
        </CharString>
        <CharString name="two">
          -39 -41 20 -3 85 -20 20 590 21 285 20 hstemhm
          413 20 497 20 hintmask 10111110
          614 -41 rmoveto
          36 23 13 28 23 hvcurveto
          1 2 1 2 3 vvcurveto
          5 -5 4 -5 -3 49 callsubr
          -2 vhcurveto
          -25 -19 -19 -9 -21 hhcurveto
          hintmask 01011110
          -61 -82 82 -133 -99 -136 -66 -37 hhcurveto
          -14 3 6 0 5 8 57 callgsubr
          hvcurveto
          158 215 404 209 169 124 rrcurveto
          70 52 72 89 95 vvcurveto
          122 -101 47 -103 -128 -123 -67 -123 -68 vhcurveto
          -9 -17 -5 -18 -18 vvcurveto
          -39 28 -44 70 46 41 29 53 33 vhcurveto
          27 44 12 46 2 42 callgsubr
          vvcurveto
          6 -5 3 -5 -18 21 -12 -81 -49 vhcurveto
          -48 -29 -35 -24 -40 hhcurveto
          -54 -23 30 30 13 4 17 8 15 hvcurveto
          116 62 130 64 116 hhcurveto
          105 72 -56 -92 -74 -49 -83 -85 -64 hvcurveto
          -172 -128 -400 -207 -163 -217 rrcurveto
          -5 -6 -12 -16 -15 vvcurveto
          -16 14 -7 16 vhcurveto
          hintmask 10111110
          52 123 65 94 hhcurveto
          127 77 -77 -5 67 hvcurveto
          endchar
        </CharString>
        <CharString name="u">
          -6 12 -21 547 -20 hstem
          466 -9 rmoveto
          96 3 138 82 137 133 rrcurveto
          43 callsubr
          3 43 callgsubr
          -5 -3 36 callsubr
          -129 -132 -140 -85 -86 hhcurveto
          -41 -19 19 33 19 6 24 12 27 hvcurveto
          63 143 124 125 99 125 -14 12 rcurveline
          -1 -1 -93 -120 -73 -85 -124 -135 -105 -72 -75 -40 rrcurveto
          -17 -32 -91 -41 -65 hhcurveto
          -38 -32 15 41 111 260 331 1 1 hvcurveto
          1 1 0 callgsubr
          5 -4 5 -5 -2 -23 -22 -128 -89 vhcurveto
          -103 -148 -55 -103 -57 vvcurveto
          -79 88 6 3 7 70 -1 59 114 vhcurveto
          78 41 73 60 84 73 rrcurveto
          -54 -82 -25 -61 -40 vvcurveto
          -47 35 -18 44 vhcurveto
          endchar
        </CharString>
        <CharString name="uacute">
          -6 12 -21 731 -20 hstem
          466 -9 rmoveto
          96 3 138 82 137 133 rrcurveto
          43 callsubr
          3 43 callgsubr
          -5 -3 36 callsubr
          -129 -132 -140 -85 -86 hhcurveto
          -41 -19 19 33 19 6 24 12 27 hvcurveto
          63 143 124 125 99 125 -14 12 rcurveline
          -1 -1 -93 -120 -73 -85 -124 -135 -105 -72 -75 -40 rrcurveto
          -17 -32 -91 -41 -65 hhcurveto
          -38 -32 15 41 111 260 331 1 1 hvcurveto
          1 1 0 callgsubr
          5 -4 5 -5 -2 -23 -22 -128 -89 vhcurveto
          -103 -148 -55 -103 -57 vvcurveto
          -79 88 6 3 7 70 -1 59 114 vhcurveto
          78 41 73 60 84 73 rrcurveto
          -54 -82 -25 -61 -40 vvcurveto
          -47 35 -18 44 vhcurveto
          -138 593 -100 callgsubr
        </CharString>
        <CharString name="ucircumflex">
          -6 12 -21 757 -20 hstem
          466 -9 rmoveto
          96 3 138 82 137 133 rrcurveto
          43 callsubr
          3 43 callgsubr
          -5 -3 36 callsubr
          -129 -132 -140 -85 -86 hhcurveto
          -41 -19 19 33 19 6 24 12 27 hvcurveto
          63 143 124 125 99 125 -14 12 rcurveline
          -1 -1 -93 -120 -73 -85 -124 -135 -105 -72 -75 -40 rrcurveto
          -17 -32 -91 -41 -65 hhcurveto
          -38 -32 15 41 111 260 331 1 1 hvcurveto
          1 1 0 callgsubr
          5 -4 5 -5 -2 -23 -22 -128 -89 vhcurveto
          -103 -148 -55 -103 -57 vvcurveto
          -79 88 6 3 7 70 -1 59 114 vhcurveto
          78 41 73 60 84 73 rrcurveto
          -54 -82 -25 -61 -40 vvcurveto
          -47 35 -18 44 vhcurveto
          297 601 -101 callgsubr
        </CharString>
        <CharString name="udieresis">
          -6 12 -21 587 108 hstem
          353 9 callgsubr
          vstem
          466 -9 rmoveto
          96 3 138 82 137 133 rrcurveto
          43 callsubr
          3 43 callgsubr
          -5 -3 36 callsubr
          -129 -132 -140 -85 -86 hhcurveto
          -41 -19 19 33 19 6 24 12 27 hvcurveto
          63 143 124 125 99 125 -14 12 rcurveline
          -1 -1 -93 -120 -73 -85 -124 -135 -105 -72 -75 -40 rrcurveto
          -17 -32 -91 -41 -65 hhcurveto
          -38 -32 15 41 111 260 331 1 1 hvcurveto
          1 1 0 callgsubr
          5 -4 5 -5 -2 -23 -22 -128 -89 vhcurveto
          -103 -148 -55 -103 -57 vvcurveto
          -79 88 6 3 7 70 -1 59 114 vhcurveto
          78 41 73 60 84 73 rrcurveto
          -54 -82 -25 -61 -40 vvcurveto
          -47 35 -18 44 vhcurveto
          -5 641 -76 callgsubr
        </CharString>
        <CharString name="ugrave">
          -6 12 -21 hstem
          466 -9 rmoveto
          96 3 138 82 137 133 rrcurveto
          43 callsubr
          3 43 callgsubr
          -5 -3 36 callsubr
          -129 -132 -140 -85 -86 hhcurveto
          -41 -19 19 33 19 6 24 12 27 hvcurveto
          63 143 124 125 99 125 -14 12 rcurveline
          -1 -1 -93 -120 -73 -85 -124 -135 -105 -72 -75 -40 rrcurveto
          -17 -32 -91 -41 -65 hhcurveto
          -38 -32 15 41 111 260 331 1 1 hvcurveto
          1 1 0 callgsubr
          5 -4 5 -5 -2 -23 -22 -128 -89 vhcurveto
          -103 -148 -55 -103 -57 vvcurveto
          -79 88 6 3 7 70 -1 59 114 vhcurveto
          78 41 73 60 84 73 rrcurveto
          -54 -82 -25 -61 -40 vvcurveto
          -47 35 -18 44 vhcurveto
          140 617 -98 callgsubr
        </CharString>
        <CharString name="underscore">
          -194 18 -20 23 -21 hstemhm
          hintmask 01000000
          627 hmoveto
          -13 callgsubr
        </CharString>
        <CharString name="v">
          14 12 -21 385 197 hstem
          506 91 vstem
          -33 82 rmoveto
          -57 41 -34 62 185 208 202 212 99 vhcurveto
          -17 25 40 -12 40 hhcurveto
          36 40 9 20 41 hvcurveto
          42 20 71 48 14 64 callsubr
          -2 -1 callgsubr
          -32 -36 -88 -67 -92 hhcurveto
          -38 -36 12 16 -23 12 callgsubr
          27 -13 22 -27 -30 -21 -23 -35 -42 13 -33 28 -24 -59 callsubr
          6 27 14 29 hvcurveto
          60 131 39 43 35 74 rrcurveto
          14 29 12 29 33 callsubr
          -15 -20 -6 -18 -20 vhcurveto
          -40 -36 2 -12 2 -32 callgsubr
          -50 -83 -64 -112 -60 vvcurveto
          571 468 -28 callgsubr
          -19 19 -11 25 33 vvcurveto
          18 4 15 9 6 vhcurveto
          endchar
        </CharString>
        <CharString name="ve">
          617 10 -21 587 -20 hstem
          506 91 718 21 vstem
          576 542 rmoveto
          2 -5 2 -7 -7 vvcurveto
          -24 -12 -33 -13 -32 vhcurveto
          -17 24 -13 18 35 vvcurveto
          25 16 21 16 7 7 -4 -11 5 vhcurveto
          -15 -139 rmoveto
          -3 145 -144 226 135 269 46 155 59 -60 41 -74 -139 -134 -97 -100 -86 -45 callsubr
          1 10 10 1 10 hhcurveto
          64 49 -33 -50 -128 -234 -55 -159 -206 -149 146 3 2 12 callgsubr
          37 -21 15 -19 -25 -26 -25 -35 -46 23 -31 18 -56 callgsubr
          199 202 218 194 90 vhcurveto
          endchar
        </CharString>
        <CharString name="vs">
          430 3 -21 392 199 35 -20 hstemhm
          506 91 192 -2 callgsubr
          hintmask 11111000
          538 550 -33 callsubr
          433 -107 -44 callsubr
          hintmask 11110100
          -15 callgsubr
          -38 -34 -37 -107 vhcurveto
          -36 -68 -114 -36 -97 hhcurveto
          -47 -44 9 21 -31 hvcurveto
          19 43 9 34 25 vvcurveto
          27 -12 22 -28 -33 -18 -25 -37 -40 15 -32 26 -56 callgsubr
          200 201 219 195 91 vhcurveto
          -22 38 44 -9 50 hhcurveto
          82 96 26 43 99 hvcurveto
          13 -228 -75 callgsubr
          endchar
        </CharString>
        <CharString name="w">
          105 -16 31 270 241 hstem
          768 105 vstem
          459 -16 rmoveto
          122 136 126 194 97 hvcurveto
          -13 18 25 -6 29 hhcurveto
          27 34 7 13 38 hvcurveto
          100 35 10 20 2 vvcurveto
          6 10 callgsubr
          -2 -1 0 -1 -2 vhcurveto
          0 -107 -67 -90 -23 -22 5 13 -17 vhcurveto
          20 41 31 81 41 vvcurveto
          28 -13 14 -20 52 callsubr
          -195 -97 -130 -118 -115 hhcurveto
          -52 -25 27 56 45 17 62 32 79 32 callsubr
          -21 callsubr
          -24 -17 -78 -137 -19 callsubr
          vhcurveto
          381 524 10 callsubr
          endchar
        </CharString>
        <CharString name="ws">
          650 -16 31 -12 -21 303 241 82 -20 hstemhm
          768 105 122 213 -32 111 hintmask 01111010
          1176 458 rmoveto
          -55 -57 -136 -101 -99 hhcurveto
          -23 -21 6 13 -18 hvcurveto
          20 41 31 81 41 vvcurveto
          28 -12 14 -21 52 callsubr
          -191 -96 -129 -122 -117 hhcurveto
          -52 -25 27 56 45 17 63 32 78 32 callsubr
          hintmask 10111100
          -21 callsubr
          -26 -20 -76 -134 -19 callsubr
          117 138 119 201 100 vhcurveto
          -13 20 24 -6 25 hhcurveto
          104 131 97 53 59 hvcurveto
          3 -66 10 -64 0 callsubr
          -32 callsubr
          hintmask 01111100
          28 callsubr
          vhcurveto
          -81 callgsubr
          hintmask 10111010
          30 23 63 53 45 vvcurveto
          21 -15 16 -24 9 callsubr
          vhcurveto
          -336 50 10 callsubr
          350 -293 -88 callgsubr
          19 3 -16 -5 -20 -24 -28 -10 -10 hvcurveto
          -13 -13 -13 -15 -16 -11 2 55 11 38 16 14 rrcurveto
          endchar
        </CharString>
        <CharString name="x">
          -94 -28 -21 49 -20 527 -20 hstem
          758 202 rmoveto
          2 -2 -3 1 -2 hhcurveto
          -79 callgsubr
          31 callgsubr
          -147 -137 -74 -95 hhcurveto
          -67 -28 36 66 45 12 55 15 54 hvcurveto
          117 80 138 85 140 62 rrcurveto
          3 1 2 3 4 vvcurveto
          -65 callgsubr
          vhcurveto
          59 callsubr
          -1 hhcurveto
          -116 -50 -131 -74 -132 -92 rrcurveto
          17 63 25 78 36 vvcurveto
          33 -16 14 -30 -31 -48 -14 -29 -64 vhcurveto
          -70 -32 -113 -58 -13 vvcurveto
          -5 60 callsubr
          2 2 0 1 1 vhcurveto
          36 21 71 41 69 31 rrcurveto
          33 73 40 9 22 hhcurveto
          21 8 -4 -24 -38 -30 -91 -17 -65 hvcurveto
          -209 -141 -175 -162 2 2 rrcurveto
          42 callsubr
          -2 vvcurveto
          -5 4 -4 5 2 2 1 50 callgsubr
          1 1 152 141 208 145 rrcurveto
          -13 -48 -10 -48 -41 vvcurveto
          -77 36 -44 79 99 141 76 132 150 vhcurveto
          2 2 1 2 3 vvcurveto
          39 callsubr
          -1 1 vhcurveto
          endchar
        </CharString>
        <CharString name="y">
          -56 -573 -21 1126 -20 21 -20 hstemhm
          hintmask 10100000
          -92 callgsubr
          hintmask 11000000
          -84 callgsubr
          endchar
        </CharString>
        <CharString name="yacute">
          -56 -573 -21 1100 126 124 -20 hstem
          -89 callsubr
          -285 146 -100 callgsubr
        </CharString>
        <CharString name="ydieresis">
          -56 -573 -21 1166 108 hstemhm
          396 9 callgsubr
          -108 159 hintmask 11101000
          -89 callsubr
          -133 154 -17 callsubr
          hintmask 11110000
          -81 callsubr
        </CharString>
        <CharString name="z">
          -166 -571 -21 1124 -20 hstem
          -260 -525 rmoveto
          -2 0 -3 -2 17 callgsubr
          121 67 35 callsubr
          95 140 3 73 41 24 39 21 36 18 182 89 141 124 2 2 rrcurveto
          1 1 2 3 2 vvcurveto
          5 -5 4 -18 callsubr
          -2 -1 -139 -123 -180 -88 -34 -17 -37 -20 -39 -22 -7 71 -83 35 -36 11 rrcurveto
          45 24 268 134 170 16 callgsubr
          -49 -30 -33 -34 -1 -1 rrcurveto
          42 callsubr
          -3 -51 callgsubr
          -291 -171 -227 -208 -11 -91 rrcurveto
          529 449 -12 callsubr
          -102 -98 -70 -54 hhcurveto
          -26 -24 13 30 90 254 212 257 153 hvcurveto
          endchar
        </CharString>
        <CharString name="zcaron">
          -166 -571 -21 1106 137 26 -20 hstem
          -260 -525 rmoveto
          -2 0 -3 -2 17 callgsubr
          121 67 35 callsubr
          95 140 3 73 41 24 39 21 36 18 182 89 141 124 2 2 rrcurveto
          1 1 2 3 2 vvcurveto
          5 -5 4 -18 callsubr
          -2 -1 -139 -123 -180 -88 -34 -17 -37 -20 -39 -22 -7 71 -83 35 -36 11 rrcurveto
          45 24 268 134 170 16 callgsubr
          -49 -30 -33 -34 -1 -1 rrcurveto
          42 callsubr
          -3 -51 callgsubr
          -291 -171 -227 -208 -11 -91 rrcurveto
          529 449 -12 callsubr
          -102 -98 -70 -54 hhcurveto
          -26 -24 13 30 90 254 212 257 153 hvcurveto
          7 626 rmoveto
          -1 1 24 callgsubr
          hhcurveto
          4 3 32 callgsubr
          hvcurveto
          1 1 82 80 82 hhcurveto
          -67 callgsubr
          -48 -57 -26 -44 -55 hvcurveto
          93 -102 3 -5 -53 callgsubr
          -5 4 -4 5 vhcurveto
          1 1 88 -2 -76 -8 -2 -9 -9 vvcurveto
          -3 1 -2 3 -1 vhcurveto
          endchar
        </CharString>
        <CharString name="zero">
          -67 -1 -21 914 20 47 21 hstem
          67 20 420 20 237 20 vstem
          266 -22 rmoveto
          79 78 35 69 75 hvcurveto
          115 107 171 291 209 vvcurveto
          132 -73 91 -97 -14 -14 -2 -4 -14 vhcurveto
          1 -66 -15 -78 -33 20 -24 39 -19 hvcurveto
          -19 39 28 1 -7 hhcurveto
          5 5 4 6 -65 callgsubr
          1 hvcurveto
          -1 -99 14 59 60 50 15 0 hvcurveto
          1 hlineto
          3 11 12 2 12 hhcurveto
          37 37 -16 -30 27 hvcurveto
          19 -22 31 -49 -88 vvcurveto
          -59 -13 -75 -40 -97 vhcurveto
          -291 -120 -159 -168 -166 hhcurveto
          -114 -65 80 136 121 53 154 91 146 hvcurveto
          313 197 194 12 61 44 -2 -3 1 hhcurveto
          6 4 4 7 5 8 8 -60 -301 -316 -459 -308 -152 76 -83 123 hvcurveto
          endchar
        </CharString>
        <CharString name="zz">
          511 -571 -21 1124 -20 hstem
          269 -76 -8 callgsubr
          569 526 rmoveto
          -57 callgsubr
          -272 -160 -257 -218 -99 17 callgsubr
          122 66 35 callsubr
          94 140 4 73 41 24 39 21 36 18 182 89 141 124 2 2 rrcurveto
          1 1 2 3 2 vvcurveto
          5 -5 4 -18 callsubr
          -2 -1 -139 -123 -180 -88 -34 -17 -37 -20 -39 -22 -7 71 -83 35 -36 11 rrcurveto
          53 29 260 131 168 vvcurveto
          64 -36 68 -80 -81 -94 -62 -5 -7 vhcurveto
          -264 -189 24 -176 -302 -145 -7 71 -83 35 -36 11 rrcurveto
          53 29 260 131 168 16 callgsubr
          -95 -58 10 -17 3 -51 callgsubr
          -272 -160 -257 -218 -99 17 callgsubr
          122 66 35 callsubr
          94 140 4 73 308 143 -6 203 248 169 rrcurveto
          84 -526 -8 callgsubr
          endchar
        </CharString>
      <CharString index="0">
        1544 980 -102 callgsubr
        -105 callsubr
        269 -115 rmoveto
        -74 2 -54 10 -52 callgsubr
        -4 -42 -37 0 -37 hhcurveto
        178 -144 -100 callsubr
        return
      </CharString>
      <CharString index="1">
        900 225 -50 callgsubr
        -106 -114 -153 -107 -119 hhcurveto
        -31 -57 9 38 39 58 64 111 81 hvcurveto
        126 92 57 24 -1 7 rrcurveto
        -65 callgsubr
        -29 callgsubr
        -6 -85 -58 -65 -97 hvcurveto
        59 62 29 54 45 vvcurveto
        75 -80 22 -5 1 vhcurveto
        7 -24 -25 3 -27 hhcurveto
        -116 -138 -62 -108 -127 hvcurveto
        -94 -80 -48 -75 -67 vvcurveto
        -92 76 -55 86 84 102 59 94 116 vhcurveto
        -24 -29 -12 -24 -21 vvcurveto
        -54 67 -12 40 138 163 130 87 97 vhcurveto
        1 2 0 callgsubr
        3 -1 -22 callsubr
        return
      </CharString>
      <CharString index="2">
        368 -14 rmoveto
        -85 callgsubr
        106 135 161 -90 callsubr
        -1 -179 -27 -174 -68 hvcurveto
        -38 callgsubr
        -36 callsubr
        -95 callgsubr
        return
      </CharString>
      <CharString index="3">
        -106 callsubr
        -61 callgsubr
        return
      </CharString>
      <CharString index="4">
        90 -119 rmoveto
        139 110 149 237 175 61 callsubr
        195 132 216 148 119 rrcurveto
        -31 109 67 -15 67 hhcurveto
        96 30 55 45 62 -66 11 -40 -95 -84 -38 -66 -88 hvcurveto
        19 -57 -58 19 -60 hhcurveto
        -20 -70 -5 -17 -6 4 -5 6 1 42 callgsubr
        hvcurveto
        8 24 25 3 25 hhcurveto
        59 60 -18 -15 41 hvcurveto
        -148 -116 -127 -216 -147 -193 rrcurveto
        -233 -171 -108 -145 -130 hhcurveto
        -54 -63 23 79 hvcurveto
        13 5 15 15 vvcurveto
        5 -4 5 -6 -15 0 -38 -15 -89 67 -33 71 vhcurveto
        872 931 rmoveto
        55 72 82 37 92 hhcurveto
        35 48 -8 -47 -45 -45 -33 -56 -64 -64 11 30 -100 hvcurveto
        return
      </CharString>
      <CharString index="5">
        rmoveto
        40 -56 -62 10 -54 hhcurveto
        -272 -204 -217 -289 -214 hvcurveto
        -8 -11 -8 -11 -7 -11 rrcurveto
        8 -27 -26 2 -25 hhcurveto
        -72 -67 -28 -73 -38 26 -37 65 -26 hvcurveto
        -176 -111 -91 -152 -145 hhcurveto
        -113 -32 117 52 1 hvcurveto
        -65 callgsubr
        -6 -3 -5 -5 -9 6 -177 155 158 98 162 178 109 vhcurveto
        return
      </CharString>
      <CharString index="6">
        -91 callgsubr
        -100 -162 -140 -7 -58 hhcurveto
        -44 -27 6 0 hvcurveto
        36 callgsubr
        -53 callgsubr
        -54 callsubr
        hvcurveto
        1 28 -6 46 hhcurveto
        117 124 35 67 116 hvcurveto
        -77 5 51 -55 72 hhcurveto
        endchar
      </CharString>
      <CharString index="7">
        rmoveto
        -2 22 22 -2 23 hhcurveto
        139 137 46 79 125 hvcurveto
        3 2 1 3 -65 callsubr
        -4 -84 callsubr
        -71 -110 -144 -51 -136 -23 -22 4 -22 25 callgsubr
        -5 -4 -54 callsubr
        hvcurveto
        endchar
      </CharString>
      <CharString index="8">
        -435 -575 rmoveto
        38 50 26 50 52 hvcurveto
        129 124 97 218 182 vvcurveto
        17 -1 17 -1 17 vhcurveto
        -29 32 70 -27 69 hhcurveto
        91 99 32 37 81 hvcurveto
        44 20 66 38 67 56 rrcurveto
        -88 callsubr
        -65 -55 -65 -36 -42 -20 rrcurveto
        -35 -74 -98 -33 -91 hhcurveto
        -37 -35 5 13 -32 hvcurveto
        -39 15 -25 25 -7 7 28 34 28 37 28 35 410 195 249 256 67 194 rrcurveto
        1 3 14 38 39 vvcurveto
        40 -15 38 -45 -15 -25 -6 -26 -23 vhcurveto
        -23 -26 -223 -257 -241 -297 -211 -260 -267 -337 -72 -140 rrcurveto
        -7 -10 -66 -132 -48 vvcurveto
        -22 9 -26 38 vhcurveto
        345 657 rmoveto
        2 -19 1 -19 -19 vvcurveto
        -265 -215 -318 -130 -23 -8 9 22 91 110 182 263 336 vhcurveto
        732 886 rmoveto
        13 12 19 13 19 hhcurveto
        34 8 -32 -27 -37 -14 -37 -1 -1 hvcurveto
        -65 -186 -234 -241 -384 -192 284 354 294 342 28 31 rrcurveto
        return
      </CharString>
      <CharString index="9">
        -58 callsubr
        -2 -18 -18 0 -19 hhcurveto
        -121 -130 35 127 -42 hvcurveto
        63 -19 18 -7 -16 hhcurveto
        -53 callgsubr
        -1 0 -21 9 -29 31 callgsubr
        38 138 -48 130 hhcurveto
        endchar
      </CharString>
      <CharString index="10">
        29 4 rmoveto
        135 150 105 101 119 hvcurveto
        -88 callsubr
        -100 -115 -161 -102 -116 hhcurveto
        -35 -41 4 48 74 82 111 47 67 hvcurveto
        72 102 77 90 -48 callgsubr
        -3 59 callsubr
        31 callsubr
        -77 -91 -72 -103 rrcurveto
        -50 -71 -83 -112 -79 vvcurveto
        -62 48 -8 46 vhcurveto
        return
      </CharString>
      <CharString index="11">
        -771 62 callsubr
        -78 -66 49 80 62 46 70 90 76 hvcurveto
        105 124 133 61 112 hhcurveto
        25 24 -3 -6 22 hvcurveto
        2 71 -20 -61 -43 -33 -71 -133 58 callsubr
        -84 -101 -126 -105 -112 hhcurveto
        return
      </CharString>
      <CharString index="12">
        -83 callgsubr
        -71 callsubr
        return
      </CharString>
      <CharString index="13">
        -20 hstemhm
        1 119 -18 187 hintmask 11101000
        -97 callsubr
        hintmask 11110000
        -86 callsubr
        hintmask 11101000
        -7 callgsubr
        return
      </CharString>
      <CharString index="14">
        -67 callsubr
        -72 callgsubr
        return
      </CharString>
      <CharString index="15">
        -166 -594 rmoveto
        89 107 103 88 77 hvcurveto
        100 114 83 129 41 77 1 2 2 22 callsubr
        80 44 49 23 10 5 3 2 150 70 169 135 rrcurveto
        2 1 -24 callgsubr
        -2 vhcurveto
        -169 -135 -149 -69 -1 -1 rrcurveto
        -1 -46 -23 -36 -68 hvcurveto
        27 50 43 77 44 79 12 11 12 9 10 9 rrcurveto
        147 125 71 110 55 vvcurveto
        46 -32 -2 -6 -24 -23 -21 -22 -11 vhcurveto
        -18 -36 -80 -141 -72 -131 rrcurveto
        -67 -84 -140 -93 -114 hhcurveto
        -64 -57 31 64 90 95 118 2 2 hvcurveto
        56 71 90 85 114 42 rrcurveto
        22 callsubr
        4 4 vvcurveto
        4 -5 5 -5 vhcurveto
        return
      </CharString>
      <CharString index="16">
        -63 callsubr
        -46 -32 21 42 -19 hvcurveto
        -14 32 0 33 1 vvcurveto
        5 -5 4 -5 -2 -1 0 14 callsubr
        return
      </CharString>
      <CharString index="17">
        163 -64 56 976 -20 hstem
        1164 873 rmoveto
        75 -32 -85 20 -72 hhcurveto
        -101 -84 -35 -56 -78 hvcurveto
        21 -54 -60 14 -58 hhcurveto
        -78 -73 -25 -70 -47 hvcurveto
        -19 -28 -8 -27 -25 vvcurveto
        -71 68 -57 84 -13 vhcurveto
        -27 -42 -28 -43 -27 -43 rrcurveto
        -264 -167 -78 -250 -175 hhcurveto
        -46 -43 28 48 -10 hvcurveto
        3 -4 callgsubr
        -51 66 -40 51 189 82 262 261 164 hvcurveto
        28 45 30 46 29 43 rrcurveto
        -1 8 7 0 8 hhcurveto
        66 63 23 39 54 hvcurveto
        84 60 -13 11 -4 vvcurveto
        -65 callgsubr
        -8 -49 -51 -13 -19 vhcurveto
        -40 -56 -60 -16 -64 hhcurveto
        66 98 69 86 81 62 rrcurveto
        162 -70 53 -134 -139 vvcurveto
        -227 -132 -294 -255 -87 -102 49 105 53 29 54 80 30 38 -7 -20 49 vhcurveto
        -1 1 24 callgsubr
        hhcurveto
        5 5 5 4 26 -123 11 -7 -97 -30 -69 -53 -125 115 -50 92 288 117 344 195 140 -54 143 -162 72 hvcurveto
        51 67 83 31 93 hhcurveto
        72 72 -20 -64 29 hvcurveto
        -4 1 4 -2 3 -10 callsubr
        hvcurveto
        1 -1 2 1 vvcurveto
        -593 -136 rmoveto
        -32 -38 -31 -42 -29 -44 rrcurveto
        -88 15 -57 51 61 vvcurveto
        88 106 66 99 53 56 -13 -17 48 vhcurveto
        -45 -36 -41 -43 -39 -48 rrcurveto
        return
      </CharString>
      <CharString index="18">
        -34 callsubr
        rrcurveto
        2 2 -54 callgsubr
        -127 -109 -94 -48 -107 -44 rrcurveto
        -16 -39 -97 -27 -85 hhcurveto
        return
      </CharString>
      <CharString index="19">
        rmoveto
        -97 -4 -20 -119 -88 hhcurveto
        -32 -33 17 40 57 57 52 120 50 hvcurveto
        33 44 callsubr
        7 8 8 4 9 hhcurveto
        return
      </CharString>
      <CharString index="20">
        hstem
        -324 -16 rmoveto
        -34 29 43 -14 48 hhcurveto
        166 -1 160 150 196 265 rrcurveto
        271 200 224 284 126 hhcurveto
        17 7 -7 -11 -8 -4 -11 -6 -10 hvcurveto
        -67 -131 -229 -391 -10 -271 rrcurveto
        -32 3 -60 45 80 66 232 273 194 vhcurveto
        203 285 140 68 71 41 rrcurveto
        -51 48 69 -28 74 hhcurveto
        43 62 19 62 47 -39 31 -67 -69 -66 -34 -23 -51 hvcurveto
        13 -13 -34 73 -6 hhcurveto
        -7 -3 -5 -4 47 callgsubr
        vvcurveto
        1 -5 12 -35 34 -44 -21 -12 -15 -9 -3 -2 -11 -6 -169 -88 -198 -280 rrcurveto
        -256 -181 -78 -242 -66 hhcurveto
        -25 -5 37 26 131 61 172 69 150 hvcurveto
        84 185 102 162 35 vvcurveto
        22 -17 12 -25 vhcurveto
        -141 -1 -225 -292 -199 -270 rrcurveto
        -264 -195 -158 -142 -154 hhcurveto
        -70 -66 39 96 37 9 37 18 26 11 callsubr
        -15 -83 -31 -37 9 -38 25 -30 vhcurveto
        1893 827 rmoveto
        -62 -60 19 51 -53 hvcurveto
        23 48 66 30 60 hhcurveto
        48 39 -22 -38 -47 -45 -16 -41 hvcurveto
        return
      </CharString>
      <CharString index="21">
        3 4 8 callgsubr
        hvcurveto
        137 275 rlineto
        56 callgsubr
        2 vvcurveto
        56 callsubr
        -15 callsubr
        -137 -275 rlineto
        30 callsubr
        4 callgsubr
        -4 5 vhcurveto
        return
      </CharString>
      <CharString index="22">
        165 139 83 149 77 hvcurveto
        1 1 1 1 vvcurveto
        5 -4 5 -6 -3 -4 -2 -4 -1 vhcurveto
        -140 -68 -141 -81 -155 hhcurveto
        -115 -130 73 150 149 return
      </CharString>
      <CharString index="23">
        -1 45 callgsubr
        hhcurveto
        -117 -43 -99 -92 -52 -70 rrcurveto
        -45 -60 -56 -85 -74 vvcurveto
        -74 62 -40 80 107 120 74 65 87 vhcurveto
        -45 -80 -40 -74 -22 -40 rrcurveto
        -246 -137 -309 -203 -132 vvcurveto
        -34 20 -26 47 -1 vhcurveto
        472 503 rmoveto
        -43 -77 -78 -118 -91 -105 rrcurveto
        -116 -101 -95 -69 -63 hhcurveto
        -36 -13 19 24 106 237 180 283 156 hvcurveto
        331 563 rmoveto
        15 9 16 19 17 hhcurveto
        11 9 -9 -18 -52 -72 -104 -139 -120 hvcurveto
        68 121 62 116 19 32 rrcurveto
        return
      </CharString>
      <CharString index="24">
        -10 -29 -5 -30 -31 vvcurveto
        -31 5 -32 11 -30 vhcurveto
        -59 -12 -53 -28 -50 -42 rrcurveto
        -45 -38 -70 -79 -133 vvcurveto
        -152 120 -84 144 -6 vhcurveto
        184 516 rmoveto
        return
      </CharString>
      <CharString index="25">
        30 -24 24 -30 -30 -24 -24 -30 -35 callsubr
      </CharString>
      <CharString index="26">
        68 28 61 18 0 vvcurveto
        11 38 57 11 53 5 6 0 6 -10 callsubr
        12 -17 -3 -10 -54 -58 -11 -12 -40 hvcurveto
        0 -58 -16 -66 -27 vhcurveto
        -40 callgsubr
        return
      </CharString>
      <CharString index="27">
        9 callsubr
        vhcurveto
        -122 -101 -143 -126 -1 -2 rrcurveto
        -56 callsubr
        -2 -3 vvcurveto
        -4 -41 callsubr
        1 1 135 118 119 100 rrcurveto
        3 return
      </CharString>
      <CharString index="28">
        -56 callsubr
        -1 -2 return
      </CharString>
      <CharString index="29">
        5 4 5 5 hvcurveto
        -9 110 -138 115 -103 64 rrcurveto
        6 5 0 6 hhcurveto
        120 -1 126 41 125 76 rrcurveto
        66 109 70 72 1 hhcurveto
        -11 callgsubr
        -2 -1 -2 31 callsubr
        -68 -70 -108 -65 rrcurveto
        -54 -88 -131 -60 -144 hhcurveto
        -17 -18 1 2 -17 hvcurveto
        -6 -4 -3 -5 -4 2 -3 3 -2 hvcurveto
        -6 -4 267 -120 13 -170 rrcurveto
        -4 4 -4 5 vhcurveto
        return
      </CharString>
      <CharString index="30">
        hstemhm
        hintmask 01100000
        -106 callgsubr
        hintmask 10100000
        -96 callgsubr
        return
      </CharString>
      <CharString index="31">
        rmoveto
        -82 callgsubr
      </CharString>
      <CharString index="32">
        -88 callgsubr
        19 3 -16 -5 -57 callsubr
        return
      </CharString>
      <CharString index="33">
        560 rmoveto
        -86 callgsubr
        return
      </CharString>
      <CharString index="34">
        127 -68 -73 callsubr
        return
      </CharString>
      <CharString index="35">
        -30 24 -24 30 30 24 24 30 vhcurveto
        return
      </CharString>
      <CharString index="36">
        581 -21 293 -20 hstem
        60 -74 callgsubr
        return
      </CharString>
      <CharString index="37">
        vvcurveto
        23 -10 21 -23 5 vhcurveto
        56 callgsubr
        2 59 callgsubr
        -22 callsubr
        return
      </CharString>
      <CharString index="38">
        hvcurveto
        26 -55 29 -6 -12 hhcurveto
        67 callsubr
        -6 -6 -9 3 43 -22 hvcurveto
        -45 -47 -45 -90 -78 vvcurveto
        return
      </CharString>
      <CharString index="39">
        -68 callsubr
        -1 -4 -6 -2 -4 vhcurveto
        return
      </CharString>
      <CharString index="40">
        -50 callsubr
        -65 callgsubr
        return
      </CharString>
      <CharString index="41">
        -53 callsubr
        -76 callsubr
        -38 21 -29 46 vhcurveto
        86 51 93 66 hhcurveto
        68 9 -53 -16 hvcurveto
        -13 45 callgsubr
        vvcurveto
        -54 callsubr
        vhcurveto
        endchar
      </CharString>
      <CharString index="42">
        5 14 callgsubr
        return
      </CharString>
      <CharString index="43">
        -15 callgsubr
        -80 callgsubr
        -66 10 -64 0 callsubr
        return
      </CharString>
      <CharString index="44">
        rmoveto
        146 137 115 42 86 -37 callsubr
        -86 -80 26 19 -43 hvcurveto
        return
      </CharString>
      <CharString index="45">
        -23 -59 callsubr
        7 27 13 29 hvcurveto
        60 131 40 43 34 74 rrcurveto
        return
      </CharString>
      <CharString index="46">
        -557 60 rmoveto
        2 3 0 2 hhcurveto
        27 16 -11 -24 -56 -108 2 -34 -16 -16 1 2 -15 hvcurveto
        42 34 45 49 52 3 rrcurveto
        return
      </CharString>
      <CharString index="47">
        3 callgsubr
        124 219 207 61 -74 callsubr
        -59 -83 -147 -174 -101 vvcurveto
        -46 27 return
      </CharString>
      <CharString index="48">
        hhcurveto
        -107 -35 67 65 -62 callsubr
        return
      </CharString>
      <CharString index="49">
        -63 callsubr
        hvcurveto
        41 callsubr
        -5 4 -4 5 hvcurveto
        return
      </CharString>
      <CharString index="50">
        1 1 94 63 77 hhcurveto
        65 33 -56 -58 -73 -65 -83 -115 -81 hvcurveto
        -52 -74 -70 -34 -1 hhcurveto
        -25 -12 28 -5 rlineto
        1 127 -24 -91 8 hvcurveto
        return
      </CharString>
      <CharString index="51">
        -62 callgsubr
        14 30 12 28 33 callsubr
        -41 -47 -62 -4 -4 vhcurveto
        -1 -1 0 -2 -1 -32 callgsubr
        -53 -88 -61 -111 -61 vvcurveto
        -54 45 -32 58 return
      </CharString>
      <CharString index="52">
        -17 25 40 -12 40 hhcurveto
        84 95 61 43 48 -2 callsubr
        3 64 callsubr
        -2 -1 callgsubr
        -32 -36 -88 -67 -92 hhcurveto
        -38 -36 12 16 -23 -35 callgsubr
        return
      </CharString>
      <CharString index="53">
        1 3 2 vvcurveto
        6 51 callgsubr
        -84 callsubr
        return
      </CharString>
      <CharString index="54">
        -5 -29 callsubr
        return
      </CharString>
      <CharString index="55">
        -41 12 34 53 34 55 38 53 87 -29 56 -72 36 -80 rrcurveto
        return
      </CharString>
      <CharString index="56">
        vvcurveto
        -5 3 -3 5 8 -3 12 53 82 vhcurveto
        -57 callgsubr
        return
      </CharString>
      <CharString index="57">
        rmoveto
        2 -2 45 callsubr
        hhcurveto
        -79 callgsubr
        hvcurveto
        return
      </CharString>
      <CharString index="58">
        -249 -71 -229 -12 -16 -52 callsubr
        -22 -39 -21 -45 -50 vhcurveto
        19 callgsubr
        -145 -191 -76 -149 -1 -99 rrcurveto
        -13 1 -13 3 -11 vhcurveto
        return
      </CharString>
      <CharString index="59">
        1 1 rrcurveto
        1 2 0 callgsubr
        -65 callgsubr
        -3 return
      </CharString>
      <CharString index="60">
        3 2 -24 callgsubr
        -1 vhcurveto
        -78 -128 -143 -63 -67 3 callgsubr
        return
      </CharString>
      <CharString index="61">
        796 112 hstem
        387 796 -66 callgsubr
      </CharString>
      <CharString index="62">
        hhcurveto
        96 152 56 113 66 -72 45 -78 -113 return
      </CharString>
      <CharString index="63">
        rlineto
        1 1 0 callgsubr
        5 -5 4 -5 -3 -2 -2 -2 -2 vhcurveto
        return
      </CharString>
      <CharString index="64">
        rmoveto
        112 206 128 233 54 43 rrcurveto
        1 1 2 0 1 49 callgsubr
        -4 0 -9 -38 callsubr
        return
      </CharString>
      <CharString index="65">
        hvcurveto
        24 callgsubr
        0 vhcurveto
        5 38 callgsubr
        -4 return
      </CharString>
      <CharString index="66">
        2 vvcurveto
        5 -5 5 -18 callsubr
        return
      </CharString>
      <CharString index="67">
        5 0 4 5 62 -14 61 71 vvcurveto
        return
      </CharString>
      <CharString index="68">
        -21 28 -14 36 -7 36 rrcurveto
        4 -1 -1 5 -6 hhcurveto
        -6 68 callgsubr
        -40 25 -45 19 -27 hvcurveto
        -206 -153 -197 -244 -197 vvcurveto
        -85 return
      </CharString>
      <CharString index="69">
        -33 37 -23 40 -10 58 rrcurveto
        5 -1 -3 3 -6 hhcurveto
        return
      </CharString>
      <CharString index="70">
        -24 44 71 -4 5 hhcurveto
        14 41 -1 -23 return
      </CharString>
      <CharString index="71">
        2 4 2 3 2 3 rrcurveto
        -37 callgsubr
        return
      </CharString>
      <CharString index="72">
        12 callgsubr
        27 -12 22 -28 -33 -18 -25 -37 -40 15 -32 26 -62 callgsubr
        return
      </CharString>
      <CharString index="73">
        rmoveto
        102 135 82 127 114 hvcurveto
        return
      </CharString>
      <CharString index="74">
        -2 -5 rrcurveto
        -2 -4 -22 -41 -41 vvcurveto
        -48 32 -32 65 return
      </CharString>
      <CharString index="75">
        29 callgsubr
        1 vhcurveto
        27 callgsubr
        return
      </CharString>
      <CharString index="76">
        4 4 5 return
      </CharString>
      <CharString index="77">
        0 hvcurveto
        2 3 87 174 104 196 return
      </CharString>
      <CharString index="78">
        -1 -2 0 14 callsubr
        return
      </CharString>
      <CharString index="79">
        rmoveto
        4 6 6 2 5 hhcurveto
        15 9 -12 -20 -24 -11 -34 -13 -32 hvcurveto
        return
      </CharString>
      <CharString index="80">
        29 23 65 46 48 vvcurveto
        23 return
      </CharString>
      <CharString index="81">
        1 32 callgsubr
        2 hvcurveto
        108 81 51 94 74 vvcurveto
        49 -10 -7 -4 -6 -2 -5 -4 vhcurveto
        -1 4 0 -32 vvcurveto
        -34 -9 -91 -143 -110 vhcurveto
        38 callsubr
        -3 -2 vvcurveto
        -6 6 -3 4 vhcurveto
        return
      </CharString>
      <CharString index="82">
        -31 -25 -25 -32 -31 25 -25 31 return
      </CharString>
      <CharString index="83">
        1 3 3 vvcurveto
        4 -4 5 -4 -56 callsubr
        -1 return
      </CharString>
      <CharString index="84">
        1 1 0 return
      </CharString>
      <CharString index="85">
        -36 -121 -197 -336 -179 vhcurveto
        -68 2 -70 4 -72 6 rrcurveto
        1 -11 -4 0 -2 hhcurveto
        -5 -4 -29 callsubr
        4 -4 5 -1 hvcurveto
        -5 49 138 -7 31 hhcurveto
        return
      </CharString>
      <CharString index="86">
        7 callsubr
        -1 return
      </CharString>
      <CharString index="87">
        -13 callsubr
        -548 -256 -12 callgsubr
        return
      </CharString>
      <CharString index="88">
        vvcurveto
        40 -55 1 -17 -21 -59 7 19 -33 vhcurveto
        -68 callgsubr
        return
      </CharString>
      <CharString index="89">
        106 -15 -21 769 183 -28 28 return
      </CharString>
      <CharString index="90">
        vhcurveto
        -60 597 -78 callsubr
        return
      </CharString>
      <CharString index="91">
        -119 20 850 20 66 21 46 20 return
      </CharString>
      <CharString index="92">
        -27 callgsubr
        -14 18 -26 return
      </CharString>
      <CharString index="93">
        5 callsubr
        -1 vvcurveto
        return
      </CharString>
      <CharString index="94">
        -50 callsubr
        hvcurveto
        hintmask 10000000
        7 callgsubr
        hintmask 01000000
        -5 4 -4 5 vhcurveto
        605 hlineto
        endchar
      </CharString>
      <CharString index="95">
        rlineto
        -3 -2 -2 -3 -3 3 callsubr
        1 1 0 50 callgsubr
        return
      </CharString>
      <CharString index="96">
        1 2 1 2 -65 callsubr
        57 callsubr
        return
      </CharString>
      <CharString index="97">
        rlineto
        -3 callgsubr
        return
      </CharString>
      <CharString index="98">
        1 0 0 1 return
      </CharString>
      <CharString index="99">
        -12 callsubr
        -103 -97 -70 -54 hhcurveto
        -26 -24 13 30 86 241 208 270 161 hvcurveto
        return
      </CharString>
      <CharString index="100">
        25 7 -33 -18 -48 -35 -48 -29 -33 hvcurveto
        -12 24 -7 29 27 vvcurveto
        return
      </CharString>
      <CharString index="101">
        -28 callsubr
        79 51 85 155 return
      </CharString>
      <CharString index="102">
        1 1 1 2 2 43 callgsubr
        -6 2 callsubr
        return
      </CharString>
      <CharString index="103">
        -1 -23 callsubr
        hhcurveto
        -53 callgsubr
        return
      </CharString>
      <CharString index="104">
        59 callsubr
        69 callgsubr
        return
      </CharString>
      <CharString index="105">
        213 -32 112 return
      </CharString>
      <CharString index="106">
        -2 -1 -2 -2 vhcurveto
        return
      </CharString>
      <CharString index="107">
        1 -9 callsubr
        return
      </CharString>
      <CharString index="108">
        42 0 -20 23 -21 521 return
      </CharString>
      <CharString index="109">
        57 -173 97 848 124 return
      </CharString>
      <CharString index="110">
        hhcurveto
        -47 -26 20 41 hvcurveto
        return
      </CharString>
      <CharString index="111">
        29 callsubr
        4 return
      </CharString>
      <CharString index="112">
        80 89 23 21 58 return
      </CharString>
      <CharString index="113">
        28 callgsubr
        -5 callsubr
        return
      </CharString>
      <CharString index="114">
        -65 callgsubr
        vhcurveto
        41 callsubr
        hvcurveto
        return
      </CharString>
      <CharString index="115">
        2 3 1 return
      </CharString>
      <CharString index="116">
        108 54 108 return
      </CharString>
      <CharString index="117">
        -4 3 -5 return
      </CharString>
      <CharString index="118">
        -57 -46 -46 -57 -57 -46 46 57 57 46 46 57 return
      </CharString>
      <CharString index="119">
        hvcurveto
        19 43 9 34 25 vvcurveto
        return
      </CharString>
      <CharString index="120">
        -2 3 callsubr
        return
      </CharString>
      <CharString index="121">
        -4 4 -5 return
      </CharString>
      <CharString index="122">
        rmoveto
        149 140 114 39 84 -37 callsubr
        return
      </CharString>
      <CharString index="123">
        vvcurveto
        64 -36 68 -79 -82 -94 -63 -4 -7 vhcurveto
        return
      </CharString>
      <CharString index="124">
        vvcurveto
        -35 26 -25 39 84 125 return
      </CharString>
      <CharString index="125">
        3 22 callsubr
        return
      </CharString>
      <CharString index="126">
        -35 -32 -146 -149 -135 -178 return
      </CharString>
      <CharString index="127">
        -3 -1 callgsubr
        return
      </CharString>
      <CharString index="128">
        64 callgsubr
        -2 return
      </CharString>
      <CharString index="129">
        24 callsubr
        3 return
      </CharString>
      <CharString index="130">
        -2 13 callgsubr
        return
      </CharString>
      <CharString index="131">
        1 0 1 return
      </CharString>
      <CharString index="132">
        hhcurveto
        -5 -3 return
      </CharString>
      <CharString index="133">
        rlineto
        36 callgsubr
        -4 68 callgsubr
        -1 hvcurveto
        51 callgsubr
        5 return
      </CharString>
      <CharString index="134">
        1 1 38 57 38 hhcurveto
        13 14 -5 -20 -45 -60 -98 -5 -8 hvcurveto
        return
      </CharString>
      <CharString index="135">
        rmoveto
        67 54 54 67 67 -54 54 -67 return
      </CharString>
      <CharString index="136">
        vvcurveto
        -5 4 54 callgsubr
        return
      </CharString>
      <CharString index="137">
        -3 -1 -3 return
      </CharString>
      <CharString index="138">
        hvcurveto
        -129 return
      </CharString>
      <CharString index="139">
        2 1 1 return
      </CharString>
      <CharString index="140">
        76 -182 -21 1020 126 return
      </CharString>
      <CharString index="141">
        -143 10 -21 550 return
      </CharString>
      <CharString index="142">
        -48 20 1319 20 return
      </CharString>
      <CharString index="143">
        -21 callgsubr
        hhcurveto
        return
      </CharString>
      <CharString index="144">
        76 54 80 160 return
      </CharString>
      <CharString index="145">
        -3 5 -6 return
      </CharString>
      <CharString index="146" raw="1">
        881a870b   
      </CharString>
      <CharString index="147">
        -222 -21 189 183 652 152 hstem
        return
      </CharString>
      <CharString index="148">
        64 callgsubr
        -1 vvcurveto
        -6 6 -3 3 vhcurveto
        return
      </CharString>
      <CharString index="149">
        24 callgsubr
        1 return
      </CharString>
      <CharString index="150">
        vvcurveto
        60 callsubr
        return
      </CharString>
      <CharString index="151">
        -416 25 -21 return
      </CharString>
      <CharString index="152">
        -1 -1 -1 return
      </CharString>
      <CharString index="153">
        319 -74 -21 22 198 603 172 return
      </CharString>
      <CharString index="154">
        hvcurveto
        -21 callgsubr
        return
      </CharString>
      <CharString index="155">
        3 3 24 callsubr
        return
      </CharString>
      <CharString index="156">
        hhcurveto
        1 1 -1 -4 return
      </CharString>
      <CharString index="157">
        1 2 vhcurveto
        return
      </CharString>
      <CharString index="158">
        -5 3 -4 return
      </CharString>
      <CharString index="159">
        -12 -21 632 -20 hstem
        194 237 return
      </CharString>
      <CharString index="160">
        4 -4 callgsubr
        return
      </CharString>
      <CharString index="161">
        -5 5 18 callgsubr
        return
      </CharString>
      <CharString index="162" raw="1">
        86b10a0b   
      </CharString>
      <CharString index="163">
        -23 callgsubr
        2 return
      </CharString>
      <CharString index="164">
        9 7 9 return
      </CharString>
      <CharString index="165" raw="1">
        8d89890b   
      </CharString>
      <CharString index="166">
        vvcurveto
        2 0 return
      </CharString>
      <CharString index="167">
        10 callgsubr
        2 callsubr
        return
      </CharString>
      <CharString index="168">
        4 -1 3 return
      </CharString>
      <CharString index="169">
        hvcurveto
        142 return
      </CharString>
      <CharString index="170">
        -312 12 -21 1016 -20 hstem
        return
      </CharString>
      <CharString index="171">
        rlineto
        59 callsubr
        -2 return
      </CharString>
      <CharString index="172">
        -18 112 hstemhm
        return
      </CharString>
      <CharString index="173">
        113 vstem
        return
      </CharString>
      <CharString index="174">
        -94 -177 return
      </CharString>
      <CharString index="175">
        -3 -4 -4 return
      </CharString>
      <CharString index="176">
        -1 -2 vvcurveto
        return
      </CharString>
</ttFont>
